<svg version="1.1" id="Layer_1" xmlns="http://www.w3.org/2000/svg" xmlns:xlink="http://www.w3.org/1999/xlink" x="0px" y="0px"
	 width="100%" viewBox="0 0 1024 1024" enable-background="new 0 0 1024 1024" xml:space="preserve">
<path fill="#000000" opacity="1.000000" stroke="none" 
	d="
M722.678650,638.978882 
	C722.678162,611.366882 722.678162,584.251160 722.678162,556.996704 
	C718.557068,556.534790 715.564575,558.178162 712.484253,559.194397 
	C675.018127,571.555298 637.578674,583.997131 600.115967,596.368469 
	C574.504517,604.826111 548.802002,613.014954 523.285217,621.747803 
	C516.439331,624.090881 510.263611,624.200256 503.436981,621.918762 
	C457.800964,606.666809 412.089172,591.641174 366.392883,576.569763 
	C327.182343,563.637451 287.958740,550.744812 248.744308,537.824402 
	C245.655014,536.806580 242.754837,535.647461 242.655884,531.579468 
	C242.546768,527.094116 245.582657,525.580078 249.060974,524.442383 
	C274.064270,516.264282 299.071808,508.099121 324.081879,499.941620 
	C352.887146,490.546265 381.701996,481.180206 410.494293,471.745270 
	C413.101013,470.891083 415.494293,470.445007 418.234924,471.439270 
	C434.356476,477.287933 450.495697,483.092285 466.704987,488.691498 
	C471.011536,490.179108 471.355957,491.880554 468.706543,495.399231 
	C462.094482,504.180939 455.727966,513.148010 449.301758,522.068726 
	C447.985077,523.896423 446.126831,525.439453 445.640808,529.248657 
	C457.172974,520.181030 467.900299,511.746216 479.558350,502.579559 
	C490.743500,537.209290 501.648438,570.971375 512.553345,604.733398 
	C512.884521,604.762573 513.215698,604.791748 513.546936,604.820923 
	C524.394836,571.041504 535.242798,537.262085 546.427795,502.433075 
	C557.000305,510.696594 566.952087,518.474976 576.903870,526.253357 
	C577.403015,525.816345 577.902161,525.379395 578.401306,524.942444 
	C571.226685,513.261169 562.198242,502.767334 554.412659,490.923676 
	C559.776611,487.449463 565.439087,486.496552 570.662231,484.591095 
	C582.860291,480.141144 595.216675,476.126831 607.455566,471.785492 
	C610.123962,470.838959 612.505066,470.804810 615.183105,471.686920 
	C650.914978,483.455902 686.666443,495.165436 722.424377,506.854919 
	C739.668335,512.492065 756.936462,518.055298 774.192749,523.654602 
	C775.618469,524.117188 777.037048,524.601685 778.459900,525.072998 
	C781.644287,526.127747 783.517578,528.078613 783.353943,531.686035 
	C783.199890,535.080872 781.229004,536.616943 778.242188,537.589661 
	C765.735779,541.662354 753.317566,546.016357 740.745544,549.871033 
	C736.550415,551.157349 735.329041,553.459167 735.338501,557.489502 
	C735.409607,587.653564 735.393921,617.817871 735.308655,647.981934 
	C735.300415,650.887695 736.132996,652.876221 738.434570,654.806702 
	C745.227417,660.504333 745.733765,669.352783 739.624756,675.958374 
	C737.365356,678.401428 737.102478,680.598694 737.989685,683.626282 
	C741.124512,694.324402 744.055908,705.082703 746.988586,715.838867 
	C747.412048,717.391785 748.357361,718.912476 747.658936,721.133240 
	C735.278320,721.133240 722.787537,721.133240 709.662170,721.133240 
	C711.997375,712.636719 714.195496,704.673035 716.372131,696.703491 
	C717.293152,693.330872 717.901611,689.845215 719.128601,686.590515 
	C720.912598,681.858337 720.967773,678.090454 717.047058,673.943115 
	C712.716675,669.362427 712.841248,660.383545 717.651672,656.593506 
	C722.961243,652.410400 722.849548,647.463928 722.682556,641.974670 
	C722.657227,641.142212 722.679138,640.308350 722.678650,638.978882 
z"/>
<path fill="#000000" opacity="1.000000" stroke="none" 
	d="
M678.253784,602.000122 
	C678.249756,619.665527 678.233704,636.830994 678.245850,653.996399 
	C678.252136,662.855713 676.964722,663.902954 668.288757,664.377808 
	C622.305786,666.894470 577.355103,674.632996 534.336304,691.683472 
	C529.245300,693.701355 524.090393,695.937988 519.610718,699.013611 
	C514.937561,702.221985 511.556061,701.987427 506.685547,699.063538 
	C489.521423,688.759705 470.384369,683.282837 451.150269,678.481201 
	C420.266571,670.771240 388.972137,665.464050 357.082703,664.173218 
	C349.571503,663.869202 347.842072,661.882996 347.835236,654.348816 
	C347.814667,631.684021 347.796936,609.019165 347.799286,586.354370 
	C347.799866,580.552856 348.408752,580.130554 353.813354,581.849243 
	C404.409882,597.938477 455.019562,613.986511 505.585999,630.169800 
	C510.741425,631.819702 515.352844,631.693604 520.591675,629.996521 
	C556.859741,618.247498 593.241821,606.850281 629.590576,595.350525 
	C644.034424,590.780945 658.514465,586.323364 672.916870,581.627136 
	C676.919495,580.321960 678.462769,581.228027 678.312683,585.503052 
	C678.125732,590.829590 678.258667,596.167297 678.253784,602.000122 
z"/>
<path fill="#000000" opacity="1.000000" stroke="none" 
	d="
M409.039490,447.811707 
	C435.147980,443.136810 460.815582,438.445709 486.527618,434.012238 
	C490.502625,433.326843 492.079407,431.613678 492.819061,427.736603 
	C498.985931,395.412170 505.349182,363.125183 511.662323,330.828674 
	C511.783051,330.211182 512.016296,329.615631 512.299805,328.665375 
	C515.079895,330.952576 514.555359,334.100677 515.071411,336.643280 
	C521.254456,367.105530 527.295593,397.597229 533.175842,428.119385 
	C533.871155,431.728333 535.537048,433.127960 538.945740,433.738220 
	C571.988037,439.653931 605.010376,445.680878 638.040039,451.667145 
	C639.128540,451.864410 640.388977,451.588196 641.248840,453.083893 
	C639.941284,455.043915 637.637451,454.579620 635.940308,454.954498 
	C603.775513,462.059570 571.477844,468.521637 539.044495,474.275269 
	C534.980042,474.996338 534.053528,477.483856 533.379456,480.730835 
	C528.716003,503.194458 524.030090,525.653381 519.350586,548.113708 
	C517.526184,556.870056 515.699463,565.625793 513.878601,574.358643 
	C511.564880,574.383301 511.914673,572.723999 511.669556,571.555969 
	C505.352539,541.453247 498.965668,511.364685 492.839600,481.223114 
	C491.939850,476.796356 490.128876,474.875793 485.579865,473.995392 
	C453.740021,467.833527 421.961456,461.354858 390.168060,454.953674 
	C388.574432,454.632812 387.025238,454.091339 385.455353,453.652557 
	C385.408020,453.223297 385.360718,452.794006 385.313416,452.364746 
	C393.079987,450.869812 400.846588,449.374908 409.039490,447.811707 
z"/>
<path fill="#000000" opacity="1.000000" stroke="none" 
	d="
M567.950562,391.931488 
	C575.127808,386.178955 582.024597,380.642670 588.921326,375.106354 
	C589.303162,375.483734 589.685059,375.861084 590.066895,376.238434 
	C580.571655,390.688049 570.485962,404.726807 560.140747,418.923706 
	C555.608704,416.534058 552.997925,412.845581 550.082397,409.565674 
	C548.533569,407.823395 550.151794,406.590179 551.483276,405.496521 
	C556.887512,401.057404 562.275818,396.599030 567.950562,391.931488 
z"/>
<path fill="#000000" opacity="1.000000" stroke="none" 
	d="
M446.819275,392.127808 
	C443.015259,386.599854 439.402771,381.375244 435.107361,375.162964 
	C439.233521,375.711975 440.623016,377.963593 442.417297,379.434174 
	C452.822693,387.962616 463.105408,396.641113 473.538330,405.135376 
	C476.170715,407.278564 476.596130,408.910950 474.110260,411.559326 
	C465.386780,420.853027 467.140228,421.211395 459.883728,410.796204 
	C455.610168,404.662384 451.302917,398.552032 446.819275,392.127808 
z"/>
</svg>