<svg version="1.1" id="Layer_1" xmlns="http://www.w3.org/2000/svg" xmlns:xlink="http://www.w3.org/1999/xlink" x="0px" y="0px"
	 width="100%" viewBox="0 0 1024 1024" enable-background="new 0 0 1024 1024" xml:space="preserve">
<path fill="#FEFEFE" opacity="1.000000" stroke="none" 
	d="
M456.000000,1025.000000 
	C304.000000,1025.000000 152.500000,1025.000000 1.000000,1025.000000 
	C1.000000,683.666687 1.000000,342.333344 1.000000,1.000000 
	C342.333344,1.000000 683.666687,1.000000 1025.000000,1.000000 
	C1025.000000,342.333344 1025.000000,683.666687 1025.000000,1025.000000 
	C835.500000,1025.000000 646.000000,1025.000000 456.000000,1025.000000 
M633.643372,367.844330 
	C633.564514,365.867615 633.625427,363.872864 633.373352,361.918518 
	C633.014465,359.135773 632.425598,356.382660 631.348145,353.208801 
	C629.253357,353.346954 627.158569,353.485107 624.130432,353.771606 
	C613.499512,353.771606 602.868591,353.771606 591.832458,353.771606 
	C591.832458,358.081879 591.832458,361.529480 591.018555,364.992462 
	C589.127319,364.979889 587.236023,364.967316 585.195374,364.042633 
	C585.195374,360.782715 585.195374,357.522797 585.195374,353.562469 
	C576.752808,353.562469 568.858887,353.562469 560.778442,353.331665 
	C560.468628,353.188416 560.220642,353.265350 559.177917,353.721893 
	C557.440063,353.668243 555.702271,353.614594 553.777954,353.330475 
	C553.468384,353.187836 553.220642,353.264771 552.107605,353.722382 
	C543.359619,353.722382 534.611572,353.722382 525.128357,353.722382 
	C525.128357,359.024170 525.128357,363.502411 524.266846,368.015015 
	C522.269531,368.438690 520.272217,368.862366 518.128540,368.435333 
	C518.128540,363.120178 518.128540,357.805023 518.128540,352.321991 
	C494.883179,345.068695 471.459137,341.375244 447.514252,341.262878 
	C433.621552,341.197693 428.548706,350.644928 435.739380,362.668823 
	C438.386902,367.095856 441.431396,371.291260 443.973511,375.774506 
	C452.552765,390.904663 449.839050,403.984528 435.899628,414.311584 
	C425.396027,422.093109 413.311951,426.231445 400.631104,428.786591 
	C399.358643,429.042999 397.939453,428.991913 396.660583,428.730347 
	C384.166565,426.175110 372.164490,422.285522 361.669769,414.775269 
	C346.924042,404.222778 344.037842,390.265961 353.313354,374.679657 
	C355.865784,370.390625 358.914917,366.390076 361.358276,362.044678 
	C367.762695,350.654633 362.486359,341.623962 349.530396,342.343597 
	C325.614197,343.671936 302.456573,349.193726 279.687683,356.332916 
	C272.977325,358.436951 269.962952,363.362885 269.917511,370.391296 
	C269.846436,381.389496 269.888733,392.388550 269.785736,403.386353 
	C269.508911,432.941559 260.991974,459.426666 240.737534,481.600769 
	C237.719193,484.905090 234.981598,488.550354 232.613129,492.349030 
	C222.758957,508.153656 221.902313,524.369019 231.783524,540.412598 
	C235.778000,546.898193 240.698257,552.853088 245.538651,558.770142 
	C256.389557,572.034668 264.840179,586.736816 267.021362,603.727722 
	C269.174988,620.504333 269.264008,637.559570 269.955353,654.504944 
	C270.339844,663.928833 273.145264,668.324585 282.176575,670.807434 
	C292.283630,673.586243 302.394562,676.494263 312.671967,678.472168 
	C324.425873,680.734131 336.345978,682.183594 348.231659,683.687378 
	C353.928650,684.408203 359.453674,683.350037 362.723816,677.973145 
	C365.916626,672.723328 363.943573,667.691467 361.005127,662.965210 
	C359.246796,660.136963 357.333221,657.403076 355.633453,654.541260 
	C353.851654,651.541321 351.979034,648.552368 350.605652,645.360779 
	C346.066681,634.812561 347.540466,625.046692 355.560211,616.761658 
	C367.090515,604.849915 382.102203,600.083923 397.839905,597.042114 
	C398.627167,596.889893 399.508362,597.065552 400.320099,597.221863 
	C412.364838,599.542175 423.807709,603.437561 434.038269,610.384827 
	C449.344421,620.778687 452.712830,635.062378 443.542908,651.082825 
	C441.065216,655.411560 438.028229,659.418762 435.518890,663.731140 
	C428.812042,675.257324 434.409424,685.538757 447.691559,684.842163 
	C462.122131,684.085205 476.537811,682.360779 490.851318,680.302551 
	C499.990540,678.988342 508.932495,676.302551 518.046936,674.212402 
	C518.046936,658.456116 517.971680,643.468628 518.075439,628.482422 
	C518.136719,619.620972 521.357117,612.033447 528.985474,607.206116 
	C532.396362,605.047668 536.578979,603.894897 540.564148,602.894653 
	C557.863159,598.552856 568.972656,582.264404 566.254456,564.885437 
	C562.503967,540.905640 542.416809,533.084839 523.508118,548.141479 
	C518.179199,552.384827 512.809265,556.705872 506.954651,560.130676 
	C497.180817,565.848083 486.981781,566.082031 477.107391,560.030151 
	C459.685638,549.352600 449.827057,520.399780 457.320648,501.546448 
	C459.338989,496.468445 461.799072,491.478760 464.704620,486.855957 
	C476.715332,467.747009 494.507477,464.358917 512.741028,477.632904 
	C517.985596,481.450928 522.729309,485.956238 527.968811,489.781799 
	C539.208252,497.988159 551.621765,495.952393 559.954895,484.796265 
	C574.785706,464.941467 563.989014,436.386688 539.618652,431.011444 
	C525.179810,427.826782 518.312256,419.444702 518.170471,404.672729 
	C518.109741,398.344879 518.234802,392.015228 518.979065,385.876129 
	C519.803162,387.062103 520.627197,388.248077 521.643616,389.710785 
	C522.639832,389.499786 523.893494,389.234283 525.301880,389.893127 
	C525.459106,396.055511 525.457520,402.227081 525.813843,408.377930 
	C526.255615,416.005096 530.567932,421.017273 537.963379,422.960083 
	C539.572510,423.382782 541.213501,423.683319 542.825562,424.095612 
	C567.514832,430.409302 580.867615,457.424255 570.917603,480.915955 
	C565.075317,494.709198 552.386108,503.104828 538.956848,502.013855 
	C530.520142,501.328491 524.168823,496.414825 517.827515,491.489838 
	C513.228699,487.918213 508.876526,483.931549 503.931915,480.922852 
	C493.359924,474.489960 482.333649,476.030884 475.063080,485.969482 
	C469.841980,493.106476 466.306030,501.519043 462.400787,509.548553 
	C461.296112,511.819946 460.865387,514.855164 461.273163,517.352661 
	C463.328186,529.938660 468.207123,541.367737 477.181122,550.609253 
	C483.862457,557.489685 492.802277,558.987976 501.542542,554.679871 
	C505.967957,552.498535 509.884369,549.262329 513.964172,546.407715 
	C519.003174,542.881897 523.687866,538.742065 529.033081,535.784607 
	C539.389465,530.054382 551.902588,531.712708 560.621094,539.716125 
	C571.027344,549.268738 575.491028,561.361450 573.681274,575.314148 
	C571.407349,592.844910 559.295044,605.898926 542.237610,610.127563 
	C529.702820,613.234924 525.572693,618.097961 525.327637,631.091919 
	C525.085632,643.919617 525.277771,656.755615 525.314880,669.587952 
	C525.317139,670.362244 525.631531,671.135620 525.799683,671.904907 
	C567.415405,671.904907 608.804749,671.904907 650.381470,671.904907 
	C644.504883,662.065613 645.260620,654.803284 652.461609,649.788696 
	C657.312439,646.410645 657.809143,640.044617 653.488892,635.770508 
	C643.774292,626.159668 634.269104,616.316467 624.181030,607.113342 
	C619.778870,603.097290 617.880371,598.921265 618.638428,593.216003 
	C619.031677,590.256531 618.489746,588.160461 615.179077,586.544006 
	C609.469299,583.756104 607.297485,577.747559 608.822998,571.725891 
	C610.348328,565.704529 614.900940,561.975708 620.995422,561.755981 
	C627.054260,561.537659 632.843811,565.653381 634.661194,571.470703 
	C636.349548,576.875061 634.106812,582.859375 629.085022,586.349670 
	C624.183594,589.756348 623.589539,596.961670 627.977417,601.322815 
	C637.669617,610.955688 647.264404,620.696777 657.238281,630.031128 
	C661.424805,633.949158 663.924561,637.916626 663.104370,643.840759 
	C662.894165,645.359558 663.885986,647.794189 665.124573,648.644836 
	C674.622742,655.168457 675.775330,662.431213 668.242859,671.845032 
	C669.513367,672.031799 670.626770,672.339478 671.739807,672.338196 
	C704.735962,672.299988 737.732239,672.254761 770.728271,672.150024 
	C778.643311,672.124878 783.849487,668.637512 785.925537,661.003052 
	C789.283997,648.652710 792.143799,636.162781 795.016357,623.686279 
	C795.997498,619.424927 796.383606,615.026611 797.143372,610.020264 
	C778.088745,610.020264 759.944702,609.938599 741.802673,610.094482 
	C738.481873,610.122986 735.821472,609.377197 734.177917,606.554932 
	C729.984802,599.354675 723.554688,601.178467 716.781860,602.473999 
	C721.423340,607.844727 727.210938,612.040955 731.528198,617.417786 
	C737.327881,624.640808 744.097595,627.024658 753.086853,626.233887 
	C758.174316,625.786316 762.060608,625.649109 765.458984,620.652588 
	C769.755493,614.335693 779.095093,614.548950 784.438599,619.892395 
	C789.682190,625.135925 789.544373,634.241516 784.146301,639.210205 
	C778.537354,644.372864 768.802246,644.333557 765.269775,637.943054 
	C762.150330,632.299866 758.186035,632.061646 753.088562,632.449707 
	C750.269592,632.664307 747.370117,632.201233 744.603821,632.646118 
	C739.411438,633.481018 735.998535,631.207642 732.481689,627.659668 
	C704.911499,599.845459 677.115601,572.254883 649.548462,544.437561 
	C645.918701,540.774841 642.380432,539.019226 637.017761,539.107971 
	C615.858276,539.458313 594.689209,539.230835 573.523743,539.218018 
	C571.758789,539.216919 569.993835,539.217834 568.170776,539.217834 
	C568.170776,536.751892 568.170776,535.005493 568.170776,533.358521 
	C568.738342,533.128296 569.034302,532.903442 569.330627,532.902893 
	C594.660706,532.856873 619.990906,532.793335 645.320496,532.891418 
	C646.731567,532.896851 648.365417,533.994751 649.504333,535.019104 
	C653.458679,538.575684 657.240295,542.324158 661.349060,546.602356 
	C672.963562,558.317322 685.266052,569.442383 695.975708,581.933167 
	C704.602051,591.994202 713.918335,597.529907 727.252502,594.972595 
	C731.328369,594.190857 734.328735,595.919006 736.473267,599.311401 
	C738.654663,602.761963 741.691406,603.695923 745.762085,603.621277 
	C758.421997,603.389221 771.090271,603.614563 783.755249,603.653198 
	C788.377808,603.667297 793.000427,603.655457 798.594360,603.655457 
	C799.322266,589.051636 800.577637,574.945129 800.549988,560.841125 
	C800.528625,549.961060 791.064636,544.637695 781.192383,549.257080 
	C776.539185,551.434326 772.355103,554.601135 767.740356,556.877319 
	C763.001709,559.214600 758.167297,561.888428 753.076111,562.877563 
	C739.372009,565.539978 730.288879,557.974426 724.163391,547.013428 
	C719.405457,538.499573 716.233398,529.104431 712.239563,520.153198 
	C711.646179,518.823303 710.441467,516.792725 709.464478,516.760559 
	C701.196655,516.488403 692.915955,516.605164 684.067322,516.605164 
	C684.067322,524.851746 683.761169,532.507996 684.225830,540.117249 
	C684.399170,542.956055 685.696838,546.334717 687.639160,548.354004 
	C697.223938,558.318298 707.143799,567.964294 717.098511,577.563782 
	C718.364380,578.784485 720.516968,579.665039 722.277710,579.698242 
	C732.939453,579.899292 743.609680,579.935669 754.268860,579.682495 
	C755.933472,579.642822 758.139587,578.225769 759.094604,576.783081 
	C762.768494,571.233398 768.514465,568.532166 774.463501,570.119446 
	C780.237549,571.660095 784.114441,576.874451 784.151428,583.149597 
	C784.185730,588.984375 780.303772,594.135315 774.643738,595.765381 
	C768.584106,597.510437 762.486267,595.200256 759.361084,589.330261 
	C758.018982,586.809265 756.535461,586.187744 753.937073,586.206726 
	C743.272644,586.284546 732.603760,586.007812 721.943237,586.213623 
	C717.808533,586.293457 714.878723,585.089966 711.902893,582.108643 
	C697.081421,567.260132 681.994446,552.676514 666.671265,537.335510 
	C665.715393,535.014343 663.990479,532.711731 663.933838,530.368835 
	C663.656128,518.875977 663.684509,507.369171 663.952148,495.875366 
	C664.003296,493.678009 665.073486,490.993713 666.591797,489.420166 
	C681.982056,473.470581 697.511841,457.653931 713.177246,441.974579 
	C714.595337,440.555145 717.219604,439.727081 719.303040,439.689148 
	C729.965454,439.495209 740.635132,439.584686 751.300110,439.728882 
	C754.040649,439.765930 755.683838,439.184143 757.110962,436.433228 
	C760.178040,430.520996 766.133606,428.346527 772.383179,430.104950 
	C778.074463,431.706268 782.018433,436.767059 782.119385,442.598053 
	C782.225464,448.722839 778.340149,454.055908 772.549438,455.733887 
	C766.527283,457.478973 760.366943,455.175781 757.144592,449.458405 
	C755.817139,447.102997 754.477295,446.144775 751.757507,446.193848 
	C741.760498,446.374237 731.756714,446.203003 721.761169,446.422577 
	C720.003662,446.461212 717.828491,447.293945 716.598328,448.516632 
	C701.946167,463.080048 687.392761,477.744110 672.962830,492.527557 
	C671.637329,493.885498 670.726562,496.226868 670.667236,498.143829 
	C670.384033,507.303101 670.882080,516.502319 670.258057,525.629578 
	C669.860352,531.444946 672.613647,534.393982 677.753418,537.386169 
	C677.753418,521.289001 677.753418,505.790375 677.753418,490.434265 
	C680.347900,490.434265 682.225342,490.434265 684.550293,490.434265 
	C684.550293,497.115143 684.550293,503.385529 684.550293,509.952026 
	C691.818542,509.952026 698.657471,509.613007 705.442261,510.072388 
	C709.896179,510.373962 711.763000,509.040985 712.974365,504.675354 
	C716.103394,493.398773 720.551331,482.589905 727.959351,473.350250 
	C736.805237,462.317383 747.953552,459.559174 760.973511,465.076813 
	C764.631836,466.627136 768.013977,468.829041 771.523560,470.730499 
	C775.325500,472.790283 778.980652,475.211914 782.962158,476.830048 
	C790.848450,480.035187 798.141541,475.896912 800.036072,467.535339 
	C800.072876,467.372894 800.114380,467.209839 800.131409,467.044769 
	C801.711914,451.711243 799.525024,436.618042 797.899536,421.725647 
	C796.916321,421.427094 796.603821,421.249786 796.290771,421.248871 
	C770.292175,421.172455 744.293396,421.070282 718.295166,421.144897 
	C716.746887,421.149323 714.865479,422.241241 713.707397,423.396667 
	C697.190796,439.875641 681.319946,457.052521 664.114807,472.770996 
	C654.516113,481.540314 649.919006,490.694550 651.802612,503.527557 
	C652.581543,508.834717 651.931702,514.351624 651.931702,520.043762 
	C649.138428,520.043762 647.149475,520.043152 645.160583,520.043884 
	C600.660828,520.060730 556.161072,520.068054 511.661377,520.122375 
	C509.361938,520.125183 507.059784,519.340820 505.533386,522.716187 
	C502.681885,529.021851 496.735077,531.426208 490.169250,529.897522 
	C484.497894,528.577026 480.142944,523.085327 480.046387,517.132324 
	C479.951935,511.309204 483.793091,505.881805 489.225769,504.162201 
	C495.446259,502.193237 501.660339,504.392944 505.027771,510.445648 
	C506.528809,513.143738 508.269348,513.627136 510.964722,513.623596 
	C554.130798,513.567261 597.296997,513.585144 640.463135,513.570496 
	C641.914612,513.570007 643.366089,513.405090 645.175781,513.295044 
	C645.175781,504.951172 645.431763,496.957062 645.076721,488.990204 
	C644.873840,484.437714 646.334900,481.278229 649.543823,478.067383 
	C675.577148,452.018402 701.799438,426.139008 727.119263,399.407684 
	C734.834656,391.262207 742.309448,386.390198 753.595764,388.346954 
	C758.188782,389.143250 761.728027,388.136139 764.612305,383.336914 
	C768.583069,376.730011 778.183838,376.222382 783.956177,381.303802 
	C789.490356,386.175751 789.755493,395.095978 784.527771,400.535553 
	C779.069763,406.214783 769.712708,406.905182 765.702698,400.532837 
	C761.951416,394.571686 757.290344,394.750793 751.871948,394.862213 
	C749.206604,394.917053 746.531616,394.742950 743.875488,394.906586 
	C742.647888,394.982178 741.098938,395.262115 740.302979,396.057281 
	C734.550720,401.803558 728.953979,407.705536 722.702454,414.185852 
	C747.908203,414.185852 772.271240,414.185852 797.075806,414.185852 
	C796.338196,409.518951 795.918091,405.215851 794.948364,401.040344 
	C792.277161,389.538483 789.623352,378.021912 786.490295,366.641174 
	C783.798767,356.864075 779.330383,353.862335 768.992310,353.836823 
	C734.827148,353.752441 700.662048,353.693237 666.496887,353.656158 
	C665.410034,353.654999 664.322815,354.001434 663.010864,354.223999 
	C663.010864,370.168335 663.142273,385.829895 662.876221,401.484741 
	C662.833923,403.974365 661.618713,407.025513 659.900024,408.809448 
	C649.841675,419.249207 639.922058,429.900940 629.053772,439.455231 
	C621.479004,446.114166 618.185608,453.240631 619.326172,463.243073 
	C620.143982,470.415039 619.485168,477.755402 619.485168,485.030640 
	C616.883972,485.030640 615.134399,485.030640 612.931946,485.030640 
	C612.931946,472.614014 612.835693,460.483215 613.054504,448.358063 
	C613.081604,446.852753 614.540039,445.136688 615.744751,443.925629 
	C628.203369,431.401428 640.840576,419.052917 653.162781,406.397186 
	C654.995605,404.514801 656.319641,401.321228 656.398499,398.689880 
	C656.717957,388.034393 656.453796,377.361572 656.415710,366.695099 
	C656.400513,362.435913 656.413208,358.176697 656.413208,353.938354 
	C650.590393,353.938354 645.651917,353.938354 640.156311,353.938354 
	C640.156311,356.888824 640.294983,359.519073 640.124573,362.129120 
	C639.853699,366.278900 640.441833,369.190765 644.823669,371.727142 
	C652.105652,375.942261 652.629822,386.542847 646.302551,391.924713 
	C643.059082,394.683502 638.541809,396.056000 639.129395,401.678986 
	C639.219543,402.541748 637.483215,403.633423 636.534668,404.560974 
	C623.785034,417.028809 611.004211,429.464752 598.278870,441.957306 
	C593.465149,446.683014 594.188416,455.315765 599.611267,459.203033 
	C604.358948,462.606323 606.454956,468.732391 604.771301,474.284668 
	C603.097595,479.804199 597.852966,483.549500 591.882080,483.489075 
	C586.093506,483.430542 580.617737,479.379913 579.104553,474.037231 
	C577.514099,468.421570 579.461914,461.867676 584.639038,459.234650 
	C588.593018,457.223724 589.332581,454.584015 588.787720,450.899658 
	C587.855286,444.594757 590.295532,440.142944 595.007141,435.804657 
	C607.139404,424.633759 618.747620,412.892181 630.516968,401.329559 
	C634.395752,397.518951 634.230896,396.633362 629.662720,393.543091 
	C625.082886,390.445007 623.057007,386.066162 623.788208,380.648682 
	C624.511536,375.289429 627.239624,371.355865 633.376587,369.705505 
	C633.533447,369.334045 633.690308,368.962585 633.643372,367.844330 
M614.735291,573.980530 
	C614.229248,578.341675 616.327393,581.089966 620.408997,581.925964 
	C624.310974,582.725159 627.351807,580.975830 628.457214,577.063965 
	C629.558044,573.168213 627.775085,570.244324 624.228333,568.572998 
	C620.538452,566.834167 617.332153,568.534790 614.735291,573.980530 
M640.230774,376.146271 
	C634.873535,374.537109 630.621460,376.603882 629.911255,381.211273 
	C629.315735,385.074646 631.079224,388.329041 634.586548,388.850250 
	C637.154358,389.231720 640.934082,387.960052 642.657532,386.054199 
	C645.513245,382.896362 644.154419,379.248566 640.230774,376.146271 
M660.317383,654.066162 
	C655.850830,654.105286 653.022644,656.168457 652.722473,660.761475 
	C652.491028,664.303284 654.277161,666.921265 657.720337,667.815674 
	C661.538574,668.807434 664.568481,667.397400 666.269836,663.713013 
	C668.010864,659.942932 666.203979,656.676514 660.317383,654.066162 
M490.589111,523.227051 
	C495.655426,524.513062 498.976746,523.182861 500.253326,519.147705 
	C501.515198,515.159058 499.865601,512.229614 496.248383,510.598541 
	C492.717499,509.006348 489.579742,510.131561 487.619324,513.359192 
	C485.349182,517.096741 486.454498,520.355896 490.589111,523.227051 
M772.177002,589.924683 
	C777.176331,587.753723 779.108765,584.361328 777.332947,580.488708 
	C775.793396,577.131287 772.819641,574.824707 769.443420,576.393433 
	C767.085632,577.488953 764.524353,580.615356 764.213318,583.104431 
	C763.660889,587.525574 766.892273,589.845642 772.177002,589.924683 
M778.778687,635.218750 
	C782.022034,633.066345 783.265137,629.814697 781.238464,626.710205 
	C779.945679,624.730042 776.669312,622.591614 774.662903,622.911560 
	C772.339722,623.281860 769.703552,625.894226 768.511292,628.207458 
	C766.520874,632.069397 772.190063,638.639526 778.778687,635.218750 
M597.776306,465.915344 
	C593.378296,462.043915 589.180359,462.115387 586.324097,466.110443 
	C583.946472,469.436035 584.696350,474.147278 588.636963,475.807953 
	C590.816895,476.726593 594.269409,476.518188 596.341614,475.366486 
	C599.641113,473.532715 599.817017,470.015259 597.776306,465.915344 
M764.862305,437.226959 
	C761.465942,439.912903 760.677673,443.321289 763.000610,446.882812 
	C764.908264,449.807526 767.952881,450.840851 771.310547,449.219879 
	C774.867126,447.502838 776.663452,444.726898 775.297241,440.692108 
	C773.926086,436.642761 770.646179,435.408264 764.862305,437.226959 
M778.877136,385.565674 
	C775.324158,383.444550 771.739807,383.835175 769.726929,387.233948 
	C768.536072,389.244659 768.200256,393.024506 769.347534,394.806244 
	C770.522461,396.630829 774.070251,398.003052 776.414062,397.786224 
	C782.155334,397.255127 783.493469,391.445923 778.877136,385.565674 
z"/>
<path fill="#084777" opacity="1.000000" stroke="none" 
	d="
M518.275452,385.686401 
	C518.234802,392.015228 518.109741,398.344879 518.170471,404.672729 
	C518.312256,419.444702 525.179810,427.826782 539.618652,431.011444 
	C563.989014,436.386688 574.785706,464.941467 559.954895,484.796265 
	C551.621765,495.952393 539.208252,497.988159 527.968811,489.781799 
	C522.729309,485.956238 517.985596,481.450928 512.741028,477.632904 
	C494.507477,464.358917 476.715332,467.747009 464.704620,486.855957 
	C461.799072,491.478760 459.338989,496.468445 457.320648,501.546448 
	C449.827057,520.399780 459.685638,549.352600 477.107391,560.030151 
	C486.981781,566.082031 497.180817,565.848083 506.954651,560.130676 
	C512.809265,556.705872 518.179199,552.384827 523.508118,548.141479 
	C542.416809,533.084839 562.503967,540.905640 566.254456,564.885437 
	C568.972656,582.264404 557.863159,598.552856 540.564148,602.894653 
	C536.578979,603.894897 532.396362,605.047668 528.985474,607.206116 
	C521.357117,612.033447 518.136719,619.620972 518.075439,628.482422 
	C517.971680,643.468628 518.046936,658.456116 518.046936,674.212402 
	C508.932495,676.302551 499.990540,678.988342 490.851318,680.302551 
	C476.537811,682.360779 462.122131,684.085205 447.691559,684.842163 
	C434.409424,685.538757 428.812042,675.257324 435.518890,663.731140 
	C438.028229,659.418762 441.065216,655.411560 443.542908,651.082825 
	C452.712830,635.062378 449.344421,620.778687 434.038269,610.384827 
	C423.807709,603.437561 412.364838,599.542175 400.320099,597.221863 
	C399.508362,597.065552 398.627167,596.889893 397.839905,597.042114 
	C382.102203,600.083923 367.090515,604.849915 355.560211,616.761658 
	C347.540466,625.046692 346.066681,634.812561 350.605652,645.360779 
	C351.979034,648.552368 353.851654,651.541321 355.633453,654.541260 
	C357.333221,657.403076 359.246796,660.136963 361.005127,662.965210 
	C363.943573,667.691467 365.916626,672.723328 362.723816,677.973145 
	C359.453674,683.350037 353.928650,684.408203 348.231659,683.687378 
	C336.345978,682.183594 324.425873,680.734131 312.671967,678.472168 
	C302.394562,676.494263 292.283630,673.586243 282.176575,670.807434 
	C273.145264,668.324585 270.339844,663.928833 269.955353,654.504944 
	C269.264008,637.559570 269.174988,620.504333 267.021362,603.727722 
	C264.840179,586.736816 256.389557,572.034668 245.538651,558.770142 
	C240.698257,552.853088 235.778000,546.898193 231.783524,540.412598 
	C221.902313,524.369019 222.758957,508.153656 232.613129,492.349030 
	C234.981598,488.550354 237.719193,484.905090 240.737534,481.600769 
	C260.991974,459.426666 269.508911,432.941559 269.785736,403.386353 
	C269.888733,392.388550 269.846436,381.389496 269.917511,370.391296 
	C269.962952,363.362885 272.977325,358.436951 279.687683,356.332916 
	C302.456573,349.193726 325.614197,343.671936 349.530396,342.343597 
	C362.486359,341.623962 367.762695,350.654633 361.358276,362.044678 
	C358.914917,366.390076 355.865784,370.390625 353.313354,374.679657 
	C344.037842,390.265961 346.924042,404.222778 361.669769,414.775269 
	C372.164490,422.285522 384.166565,426.175110 396.660583,428.730347 
	C397.939453,428.991913 399.358643,429.042999 400.631104,428.786591 
	C413.311951,426.231445 425.396027,422.093109 435.899628,414.311584 
	C449.839050,403.984528 452.552765,390.904663 443.973511,375.774506 
	C441.431396,371.291260 438.386902,367.095856 435.739380,362.668823 
	C428.548706,350.644928 433.621552,341.197693 447.514252,341.262878 
	C471.459137,341.375244 494.883179,345.068695 518.128540,352.321991 
	C518.128540,357.805023 518.128540,363.120178 518.106323,369.138428 
	C518.152161,371.220612 518.220215,372.599701 518.215698,374.316833 
	C518.191589,375.110657 518.239990,375.566498 518.187439,376.387543 
	C518.149475,379.730652 518.212463,382.708527 518.275452,385.686401 
z"/>
<path fill="#0BC5CF" opacity="1.000000" stroke="none" 
	d="
M560.964966,353.562469 
	C568.858887,353.562469 576.752808,353.562469 585.195374,353.562469 
	C585.195374,357.522797 585.195374,360.782715 585.174255,364.961792 
	C585.124512,372.696320 585.279724,379.520966 584.935791,386.320343 
	C584.851562,387.985809 583.523315,390.183990 582.100891,391.081543 
	C576.349609,394.710510 573.570435,400.495819 575.119812,406.788086 
	C576.512939,412.445679 581.964722,416.909546 587.751892,417.131165 
	C593.933777,417.367828 599.321594,413.389343 601.110229,407.267029 
	C602.904175,401.126190 600.401062,395.263885 594.772644,391.355530 
	C593.467041,390.448914 592.249084,388.450287 592.176575,386.898773 
	C591.835632,379.602112 591.907715,372.286163 591.832458,364.977081 
	C591.832458,361.529480 591.832458,358.081879 591.832458,353.771606 
	C602.868591,353.771606 613.499512,353.771606 625.017090,353.801331 
	C627.914124,353.759644 629.924500,353.688263 631.934937,353.616913 
	C632.425598,356.382660 633.014465,359.135773 633.373352,361.918518 
	C633.625427,363.872864 633.564514,365.867615 633.511719,368.389404 
	C633.183228,369.263000 632.986450,369.591553 632.789612,369.920074 
	C627.239624,371.355865 624.511536,375.289429 623.788208,380.648682 
	C623.057007,386.066162 625.082886,390.445007 629.662720,393.543091 
	C634.230896,396.633362 634.395752,397.518951 630.516968,401.329559 
	C618.747620,412.892181 607.139404,424.633759 595.007141,435.804657 
	C590.295532,440.142944 587.855286,444.594757 588.787720,450.899658 
	C589.332581,454.584015 588.593018,457.223724 584.639038,459.234650 
	C579.461914,461.867676 577.514099,468.421570 579.104553,474.037231 
	C580.617737,479.379913 586.093506,483.430542 591.882080,483.489075 
	C597.852966,483.549500 603.097595,479.804199 604.771301,474.284668 
	C606.454956,468.732391 604.358948,462.606323 599.611267,459.203033 
	C594.188416,455.315765 593.465149,446.683014 598.278870,441.957306 
	C611.004211,429.464752 623.785034,417.028809 636.534668,404.560974 
	C637.483215,403.633423 639.219543,402.541748 639.129395,401.678986 
	C638.541809,396.056000 643.059082,394.683502 646.302551,391.924713 
	C652.629822,386.542847 652.105652,375.942261 644.823669,371.727142 
	C640.441833,369.190765 639.853699,366.278900 640.124573,362.129120 
	C640.294983,359.519073 640.156311,356.888824 640.156311,353.938354 
	C645.651917,353.938354 650.590393,353.938354 656.413208,353.938354 
	C656.413208,358.176697 656.400513,362.435913 656.415710,366.695099 
	C656.453796,377.361572 656.717957,388.034393 656.398499,398.689880 
	C656.319641,401.321228 654.995605,404.514801 653.162781,406.397186 
	C640.840576,419.052917 628.203369,431.401428 615.744751,443.925629 
	C614.540039,445.136688 613.081604,446.852753 613.054504,448.358063 
	C612.835693,460.483215 612.931946,472.614014 612.931946,485.030640 
	C615.134399,485.030640 616.883972,485.030640 619.485168,485.030640 
	C619.485168,477.755402 620.143982,470.415039 619.326172,463.243073 
	C618.185608,453.240631 621.479004,446.114166 629.053772,439.455231 
	C639.922058,429.900940 649.841675,419.249207 659.900024,408.809448 
	C661.618713,407.025513 662.833923,403.974365 662.876221,401.484741 
	C663.142273,385.829895 663.010864,370.168335 663.010864,354.223999 
	C664.322815,354.001434 665.410034,353.654999 666.496887,353.656158 
	C700.662048,353.693237 734.827148,353.752441 768.992310,353.836823 
	C779.330383,353.862335 783.798767,356.864075 786.490295,366.641174 
	C789.623352,378.021912 792.277161,389.538483 794.948364,401.040344 
	C795.918091,405.215851 796.338196,409.518951 797.075806,414.185852 
	C772.271240,414.185852 747.908203,414.185852 722.702454,414.185852 
	C728.953979,407.705536 734.550720,401.803558 740.302979,396.057281 
	C741.098938,395.262115 742.647888,394.982178 743.875488,394.906586 
	C746.531616,394.742950 749.206604,394.917053 751.871948,394.862213 
	C757.290344,394.750793 761.951416,394.571686 765.702698,400.532837 
	C769.712708,406.905182 779.069763,406.214783 784.527771,400.535553 
	C789.755493,395.095978 789.490356,386.175751 783.956177,381.303802 
	C778.183838,376.222382 768.583069,376.730011 764.612305,383.336914 
	C761.728027,388.136139 758.188782,389.143250 753.595764,388.346954 
	C742.309448,386.390198 734.834656,391.262207 727.119263,399.407684 
	C701.799438,426.139008 675.577148,452.018402 649.543823,478.067383 
	C646.334900,481.278229 644.873840,484.437714 645.076721,488.990204 
	C645.431763,496.957062 645.175781,504.951172 645.175781,513.295044 
	C643.366089,513.405090 641.914612,513.570007 640.463135,513.570496 
	C597.296997,513.585144 554.130798,513.567261 510.964722,513.623596 
	C508.269348,513.627136 506.528809,513.143738 505.027771,510.445648 
	C501.660339,504.392944 495.446259,502.193237 489.225769,504.162201 
	C483.793091,505.881805 479.951935,511.309204 480.046387,517.132324 
	C480.142944,523.085327 484.497894,528.577026 490.169250,529.897522 
	C496.735077,531.426208 502.681885,529.021851 505.533386,522.716187 
	C507.059784,519.340820 509.361938,520.125183 511.661377,520.122375 
	C556.161072,520.068054 600.660828,520.060730 645.160583,520.043884 
	C647.149475,520.043152 649.138428,520.043762 651.931702,520.043762 
	C651.931702,514.351624 652.581543,508.834717 651.802612,503.527557 
	C649.919006,490.694550 654.516113,481.540314 664.114807,472.770996 
	C681.319946,457.052521 697.190796,439.875641 713.707397,423.396667 
	C714.865479,422.241241 716.746887,421.149323 718.295166,421.144897 
	C744.293396,421.070282 770.292175,421.172455 796.290771,421.248871 
	C796.603821,421.249786 796.916321,421.427094 797.899536,421.725647 
	C799.525024,436.618042 801.711914,451.711243 800.131409,467.044769 
	C800.114380,467.209839 800.072876,467.372894 800.036072,467.535339 
	C798.141541,475.896912 790.848450,480.035187 782.962158,476.830048 
	C778.980652,475.211914 775.325500,472.790283 771.523560,470.730499 
	C768.013977,468.829041 764.631836,466.627136 760.973511,465.076813 
	C747.953552,459.559174 736.805237,462.317383 727.959351,473.350250 
	C720.551331,482.589905 716.103394,493.398773 712.974365,504.675354 
	C711.763000,509.040985 709.896179,510.373962 705.442261,510.072388 
	C698.657471,509.613007 691.818542,509.952026 684.550293,509.952026 
	C684.550293,503.385529 684.550293,497.115143 684.550293,490.434265 
	C682.225342,490.434265 680.347900,490.434265 677.753418,490.434265 
	C677.753418,505.790375 677.753418,521.289001 677.753418,537.386169 
	C672.613647,534.393982 669.860352,531.444946 670.258057,525.629578 
	C670.882080,516.502319 670.384033,507.303101 670.667236,498.143829 
	C670.726562,496.226868 671.637329,493.885498 672.962830,492.527557 
	C687.392761,477.744110 701.946167,463.080048 716.598328,448.516632 
	C717.828491,447.293945 720.003662,446.461212 721.761169,446.422577 
	C731.756714,446.203003 741.760498,446.374237 751.757507,446.193848 
	C754.477295,446.144775 755.817139,447.102997 757.144592,449.458405 
	C760.366943,455.175781 766.527283,457.478973 772.549438,455.733887 
	C778.340149,454.055908 782.225464,448.722839 782.119385,442.598053 
	C782.018433,436.767059 778.074463,431.706268 772.383179,430.104950 
	C766.133606,428.346527 760.178040,430.520996 757.110962,436.433228 
	C755.683838,439.184143 754.040649,439.765930 751.300110,439.728882 
	C740.635132,439.584686 729.965454,439.495209 719.303040,439.689148 
	C717.219604,439.727081 714.595337,440.555145 713.177246,441.974579 
	C697.511841,457.653931 681.982056,473.470581 666.591797,489.420166 
	C665.073486,490.993713 664.003296,493.678009 663.952148,495.875366 
	C663.684509,507.369171 663.656128,518.875977 663.933838,530.368835 
	C663.990479,532.711731 665.715393,535.014343 666.586182,537.870483 
	C666.490601,538.860046 666.333191,539.376953 666.494934,539.758606 
	C667.208069,541.442139 668.013184,543.086792 668.784973,544.745483 
	C666.865051,545.163635 664.951294,545.614075 663.021667,545.981323 
	C662.398376,546.100037 661.733521,545.999756 661.087646,545.999634 
	C657.240295,542.324158 653.458679,538.575684 649.504333,535.019104 
	C648.365417,533.994751 646.731567,532.896851 645.320496,532.891418 
	C619.990906,532.793335 594.660706,532.856873 569.330627,532.902893 
	C569.034302,532.903442 568.738342,533.128296 568.170776,533.358521 
	C568.170776,535.005493 568.170776,536.751892 568.170776,539.217834 
	C569.993835,539.217834 571.758789,539.216919 573.523743,539.218018 
	C594.689209,539.230835 615.858276,539.458313 637.017761,539.107971 
	C642.380432,539.019226 645.918701,540.774841 649.548462,544.437561 
	C677.115601,572.254883 704.911499,599.845459 732.481689,627.659668 
	C735.998535,631.207642 739.411438,633.481018 744.603821,632.646118 
	C747.370117,632.201233 750.269592,632.664307 753.088562,632.449707 
	C758.186035,632.061646 762.150330,632.299866 765.269775,637.943054 
	C768.802246,644.333557 778.537354,644.372864 784.146301,639.210205 
	C789.544373,634.241516 789.682190,625.135925 784.438599,619.892395 
	C779.095093,614.548950 769.755493,614.335693 765.458984,620.652588 
	C762.060608,625.649109 758.174316,625.786316 753.086853,626.233887 
	C744.097595,627.024658 737.327881,624.640808 731.528198,617.417786 
	C727.210938,612.040955 721.423340,607.844727 716.781860,602.473999 
	C723.554688,601.178467 729.984802,599.354675 734.177917,606.554932 
	C735.821472,609.377197 738.481873,610.122986 741.802673,610.094482 
	C759.944702,609.938599 778.088745,610.020264 797.143372,610.020264 
	C796.383606,615.026611 795.997498,619.424927 795.016357,623.686279 
	C792.143799,636.162781 789.283997,648.652710 785.925537,661.003052 
	C783.849487,668.637512 778.643311,672.124878 770.728271,672.150024 
	C737.732239,672.254761 704.735962,672.299988 671.739807,672.338196 
	C670.626770,672.339478 669.513367,672.031799 668.242859,671.845032 
	C675.775330,662.431213 674.622742,655.168457 665.124573,648.644836 
	C663.885986,647.794189 662.894165,645.359558 663.104370,643.840759 
	C663.924561,637.916626 661.424805,633.949158 657.238281,630.031128 
	C647.264404,620.696777 637.669617,610.955688 627.977417,601.322815 
	C623.589539,596.961670 624.183594,589.756348 629.085022,586.349670 
	C634.106812,582.859375 636.349548,576.875061 634.661194,571.470703 
	C632.843811,565.653381 627.054260,561.537659 620.995422,561.755981 
	C614.900940,561.975708 610.348328,565.704529 608.822998,571.725891 
	C607.297485,577.747559 609.469299,583.756104 615.179077,586.544006 
	C618.489746,588.160461 619.031677,590.256531 618.638428,593.216003 
	C617.880371,598.921265 619.778870,603.097290 624.181030,607.113342 
	C634.269104,616.316467 643.774292,626.159668 653.488892,635.770508 
	C657.809143,640.044617 657.312439,646.410645 652.461609,649.788696 
	C645.260620,654.803284 644.504883,662.065613 650.381470,671.904907 
	C608.804749,671.904907 567.415405,671.904907 525.799683,671.904907 
	C525.631531,671.135620 525.317139,670.362244 525.314880,669.587952 
	C525.277771,656.755615 525.085632,643.919617 525.327637,631.091919 
	C525.572693,618.097961 529.702820,613.234924 542.237610,610.127563 
	C559.295044,605.898926 571.407349,592.844910 573.681274,575.314148 
	C575.491028,561.361450 571.027344,549.268738 560.621094,539.716125 
	C551.902588,531.712708 539.389465,530.054382 529.033081,535.784607 
	C523.687866,538.742065 519.003174,542.881897 513.964172,546.407715 
	C509.884369,549.262329 505.967957,552.498535 501.542542,554.679871 
	C492.802277,558.987976 483.862457,557.489685 477.181122,550.609253 
	C468.207123,541.367737 463.328186,529.938660 461.273163,517.352661 
	C460.865387,514.855164 461.296112,511.819946 462.400787,509.548553 
	C466.306030,501.519043 469.841980,493.106476 475.063080,485.969482 
	C482.333649,476.030884 493.359924,474.489960 503.931915,480.922852 
	C508.876526,483.931549 513.228699,487.918213 517.827515,491.489838 
	C524.168823,496.414825 530.520142,501.328491 538.956848,502.013855 
	C552.386108,503.104828 565.075317,494.709198 570.917603,480.915955 
	C580.867615,457.424255 567.514832,430.409302 542.825562,424.095612 
	C541.213501,423.683319 539.572510,423.382782 537.963379,422.960083 
	C530.567932,421.017273 526.255615,416.005096 525.813843,408.377930 
	C525.457520,402.227081 525.459106,396.055511 525.325500,389.020844 
	C525.275574,381.425934 525.201965,374.703308 525.128357,367.980682 
	C525.128357,363.502411 525.128357,359.024170 525.128357,353.722382 
	C534.611572,353.722382 543.359619,353.722382 552.803589,353.719452 
	C553.499573,353.716522 553.964417,353.560974 553.964417,353.560974 
	C555.702271,353.614594 557.440063,353.668243 559.838867,353.720001 
	C560.499756,353.718109 560.964966,353.562469 560.964966,353.562469 
M652.667175,452.169128 
	C663.784302,441.141418 674.963989,430.175262 685.943665,419.012390 
	C687.407043,417.524628 688.884460,414.882507 688.603271,413.042786 
	C687.135620,403.440399 690.685730,396.325226 698.225708,390.723724 
	C699.680664,389.642853 700.939697,388.245728 702.109802,386.844635 
	C704.751221,383.681549 707.248108,382.364014 711.786438,384.199585 
	C718.414307,386.880310 726.444763,381.750061 727.976807,374.848724 
	C729.712158,367.031494 724.579407,359.335052 716.837097,358.145142 
	C709.590454,357.031403 701.371338,362.899506 702.087952,370.112335 
	C702.741638,376.691193 699.637512,380.237701 695.615112,383.994446 
	C693.668213,385.812775 692.012207,388.002991 689.880676,389.551758 
	C683.346252,394.299774 680.585388,400.469910 682.007324,408.460022 
	C682.653015,412.088196 681.128967,414.634399 678.530029,417.181519 
	C662.825317,432.572906 647.209534,448.057831 631.791260,463.734955 
	C629.949158,465.607971 628.663147,468.792511 628.530396,471.439880 
	C628.115906,479.705750 628.378235,488.005554 628.378235,496.929932 
	C607.804382,496.929932 587.773926,496.929932 567.779175,496.929932 
	C567.779175,499.488983 567.779175,501.378326 567.779175,503.187927 
	C590.394531,503.187927 612.612427,503.187927 635.184082,503.187927 
	C635.184082,496.725769 635.799072,490.675964 635.050903,484.799774 
	C633.666138,473.924103 636.752686,465.412720 645.825623,459.022400 
	C648.236572,457.324341 650.069885,454.806244 652.667175,452.169128 
M678.332092,621.168823 
	C673.365784,616.244019 668.274963,611.434998 663.514771,606.318420 
	C662.217529,604.924072 661.336487,602.626404 661.261902,600.704651 
	C661.010193,594.220581 661.428101,587.708313 661.109497,581.230408 
	C661.001648,579.038757 659.996094,576.401855 658.491638,574.849548 
	C650.034058,566.122864 641.385376,557.574280 632.573059,549.205933 
	C631.118896,547.825012 628.540222,547.018982 626.468750,546.994080 
	C610.316956,546.800171 594.161987,546.856506 578.008057,546.860779 
	C577.062378,546.861023 576.116760,547.079834 575.247192,547.187500 
	C575.247192,549.391113 575.247192,551.291565 575.247192,553.607483 
	C576.896912,553.607483 578.197510,553.606995 579.498169,553.607544 
	C593.820129,553.613647 608.143188,553.715637 622.463318,553.555969 
	C625.872253,553.517944 628.360413,554.373962 630.781555,556.890442 
	C636.897461,563.247253 643.154297,569.495239 649.711060,575.390503 
	C653.369629,578.680115 654.949585,582.163513 654.593811,587.089233 
	C654.211365,592.384766 654.287659,597.770142 654.818970,603.050354 
	C655.073242,605.577026 656.262878,608.518555 658.015259,610.304016 
	C670.728699,623.257080 683.677429,635.979797 696.596863,648.729614 
	C698.589966,650.696594 699.809204,652.500000 699.116089,655.674500 
	C698.195251,659.891785 699.251099,663.929138 702.556519,667.120667 
	C707.630920,672.020203 715.154785,672.439575 720.773010,668.072876 
	C725.811035,664.157104 727.242737,657.095703 724.139648,651.468628 
	C720.778076,645.372803 713.948425,642.530518 707.551575,645.262146 
	C704.621643,646.513306 703.076294,645.860168 701.125122,643.883972 
	C693.754700,636.419128 686.272705,629.064392 678.332092,621.168823 
M586.201843,623.495056 
	C586.210083,627.158813 586.087341,630.828979 586.268555,634.484192 
	C586.411072,637.359558 585.860962,639.241577 582.962891,640.869446 
	C577.200256,644.106384 575.095215,650.351685 576.964783,656.305725 
	C578.752502,661.999084 584.021240,665.951294 589.628296,665.804810 
	C595.618469,665.648315 601.122437,661.509338 602.725281,655.955933 
	C604.397522,650.161926 601.993591,643.629211 596.278625,640.602539 
	C593.479980,639.120361 593.127136,637.400146 593.135864,634.734314 
	C593.206543,613.085754 593.174194,591.436768 593.173279,569.787964 
	C593.173218,568.043701 593.173279,566.299438 593.173279,564.511719 
	C590.590332,564.511719 588.819641,564.511719 586.644775,564.511719 
	C586.644775,569.532776 586.444214,574.327209 586.709045,579.095825 
	C586.916443,582.830139 586.061584,585.722717 583.236755,588.419800 
	C575.530273,595.777954 568.128479,603.454285 560.531921,610.929260 
	C557.926636,613.492798 555.007690,615.644104 555.686951,620.093628 
	C555.827942,621.017090 553.912109,622.492310 552.687622,623.344727 
	C547.811584,626.739197 544.895569,631.096680 545.697449,637.238953 
	C546.524292,643.572876 551.855835,648.467163 558.156799,648.936523 
	C564.314636,649.395264 570.132812,645.490173 572.009644,639.638672 
	C573.966431,633.537598 571.361023,627.115417 565.407104,623.363586 
	C561.057678,620.622803 560.932678,619.715820 564.632874,616.071228 
	C570.683105,610.112000 576.765564,604.185242 582.870789,598.282349 
	C583.726257,597.455261 584.787598,596.841064 586.203613,595.796387 
	C586.203613,605.193848 586.203613,613.845520 586.201843,623.495056 
z"/>
<path fill="#0EC6CF" opacity="1.000000" stroke="none" 
	d="
M661.218384,546.301025 
	C661.733521,545.999756 662.398376,546.100037 663.021667,545.981323 
	C664.951294,545.614075 666.865051,545.163635 668.784973,544.745483 
	C668.013184,543.086792 667.208069,541.442139 666.494934,539.758606 
	C666.333191,539.376953 666.490601,538.860046 666.750977,538.202515 
	C681.994446,552.676514 697.081421,567.260132 711.902893,582.108643 
	C714.878723,585.089966 717.808533,586.293457 721.943237,586.213623 
	C732.603760,586.007812 743.272644,586.284546 753.937073,586.206726 
	C756.535461,586.187744 758.018982,586.809265 759.361084,589.330261 
	C762.486267,595.200256 768.584106,597.510437 774.643738,595.765381 
	C780.303772,594.135315 784.185730,588.984375 784.151428,583.149597 
	C784.114441,576.874451 780.237549,571.660095 774.463501,570.119446 
	C768.514465,568.532166 762.768494,571.233398 759.094604,576.783081 
	C758.139587,578.225769 755.933472,579.642822 754.268860,579.682495 
	C743.609680,579.935669 732.939453,579.899292 722.277710,579.698242 
	C720.516968,579.665039 718.364380,578.784485 717.098511,577.563782 
	C707.143799,567.964294 697.223938,558.318298 687.639160,548.354004 
	C685.696838,546.334717 684.399170,542.956055 684.225830,540.117249 
	C683.761169,532.507996 684.067322,524.851746 684.067322,516.605164 
	C692.915955,516.605164 701.196655,516.488403 709.464478,516.760559 
	C710.441467,516.792725 711.646179,518.823303 712.239563,520.153198 
	C716.233398,529.104431 719.405457,538.499573 724.163391,547.013428 
	C730.288879,557.974426 739.372009,565.539978 753.076111,562.877563 
	C758.167297,561.888428 763.001709,559.214600 767.740356,556.877319 
	C772.355103,554.601135 776.539185,551.434326 781.192383,549.257080 
	C791.064636,544.637695 800.528625,549.961060 800.549988,560.841125 
	C800.577637,574.945129 799.322266,589.051636 798.594360,603.655457 
	C793.000427,603.655457 788.377808,603.667297 783.755249,603.653198 
	C771.090271,603.614563 758.421997,603.389221 745.762085,603.621277 
	C741.691406,603.695923 738.654663,602.761963 736.473267,599.311401 
	C734.328735,595.919006 731.328369,594.190857 727.252502,594.972595 
	C713.918335,597.529907 704.602051,591.994202 695.975708,581.933167 
	C685.266052,569.442383 672.963562,558.317322 661.218384,546.301025 
z"/>
<path fill="#E5F6F7" opacity="1.000000" stroke="none" 
	d="
M591.425537,364.984772 
	C591.907715,372.286163 591.835632,379.602112 592.176575,386.898773 
	C592.249084,388.450287 593.467041,390.448914 594.772644,391.355530 
	C600.401062,395.263885 602.904175,401.126190 601.110229,407.267029 
	C599.321594,413.389343 593.933777,417.367828 587.751892,417.131165 
	C581.964722,416.909546 576.512939,412.445679 575.119812,406.788086 
	C573.570435,400.495819 576.349609,394.710510 582.100891,391.081543 
	C583.523315,390.183990 584.851562,387.985809 584.935791,386.320343 
	C585.279724,379.520966 585.124512,372.696320 585.248962,365.417877 
	C587.236023,364.967316 589.127319,364.979889 591.425537,364.984772 
M594.154236,399.685974 
	C591.629456,396.264038 588.039490,394.857758 584.817017,397.578796 
	C582.897278,399.199768 581.622803,402.907013 581.892944,405.484070 
	C582.282043,409.195343 585.708984,410.624939 589.405273,410.226105 
	C593.697510,409.762970 595.557922,406.079651 594.154236,399.685974 
z"/>
<path fill="#14C6D0" opacity="1.000000" stroke="none" 
	d="
M614.808594,573.619019 
	C617.332153,568.534790 620.538452,566.834167 624.228333,568.572998 
	C627.775085,570.244324 629.558044,573.168213 628.457214,577.063965 
	C627.351807,580.975830 624.310974,582.725159 620.408997,581.925964 
	C616.327393,581.089966 614.229248,578.341675 614.808594,573.619019 
z"/>
<path fill="#14C3CD" opacity="1.000000" stroke="none" 
	d="
M640.550110,376.356049 
	C644.154419,379.248566 645.513245,382.896362 642.657532,386.054199 
	C640.934082,387.960052 637.154358,389.231720 634.586548,388.850250 
	C631.079224,388.329041 629.315735,385.074646 629.911255,381.211273 
	C630.621460,376.603882 634.873535,374.537109 640.550110,376.356049 
z"/>
<path fill="#16CAD4" opacity="1.000000" stroke="none" 
	d="
M660.703491,654.113831 
	C666.203979,656.676514 668.010864,659.942932 666.269836,663.713013 
	C664.568481,667.397400 661.538574,668.807434 657.720337,667.815674 
	C654.277161,666.921265 652.491028,664.303284 652.722473,660.761475 
	C653.022644,656.168457 655.850830,654.105286 660.703491,654.113831 
z"/>
<path fill="#0FCAD4" opacity="1.000000" stroke="none" 
	d="
M490.242859,523.061890 
	C486.454498,520.355896 485.349182,517.096741 487.619324,513.359192 
	C489.579742,510.131561 492.717499,509.006348 496.248383,510.598541 
	C499.865601,512.229614 501.515198,515.159058 500.253326,519.147705 
	C498.976746,523.182861 495.655426,524.513062 490.242859,523.061890 
z"/>
<path fill="#14C6D0" opacity="1.000000" stroke="none" 
	d="
M771.780029,589.956787 
	C766.892273,589.845642 763.660889,587.525574 764.213318,583.104431 
	C764.524353,580.615356 767.085632,577.488953 769.443420,576.393433 
	C772.819641,574.824707 775.793396,577.131287 777.332947,580.488708 
	C779.108765,584.361328 777.176331,587.753723 771.780029,589.956787 
z"/>
<path fill="#14C6D0" opacity="1.000000" stroke="none" 
	d="
M778.465942,635.411621 
	C772.190063,638.639526 766.520874,632.069397 768.511292,628.207458 
	C769.703552,625.894226 772.339722,623.281860 774.662903,622.911560 
	C776.669312,622.591614 779.945679,624.730042 781.238464,626.710205 
	C783.265137,629.814697 782.022034,633.066345 778.465942,635.411621 
z"/>
<path fill="#0EC6CF" opacity="1.000000" stroke="none" 
	d="
M597.972290,466.259827 
	C599.817017,470.015259 599.641113,473.532715 596.341614,475.366486 
	C594.269409,476.518188 590.816895,476.726593 588.636963,475.807953 
	C584.696350,474.147278 583.946472,469.436035 586.324097,466.110443 
	C589.180359,462.115387 593.378296,462.043915 597.972290,466.259827 
z"/>
<path fill="#16CAD4" opacity="1.000000" stroke="none" 
	d="
M765.210693,437.037415 
	C770.646179,435.408264 773.926086,436.642761 775.297241,440.692108 
	C776.663452,444.726898 774.867126,447.502838 771.310547,449.219879 
	C767.952881,450.840851 764.908264,449.807526 763.000610,446.882812 
	C760.677673,443.321289 761.465942,439.912903 765.210693,437.037415 
z"/>
<path fill="#19C7D2" opacity="1.000000" stroke="none" 
	d="
M779.181091,385.794952 
	C783.493469,391.445923 782.155334,397.255127 776.414062,397.786224 
	C774.070251,398.003052 770.522461,396.630829 769.347534,394.806244 
	C768.200256,393.024506 768.536072,389.244659 769.726929,387.233948 
	C771.739807,383.835175 775.324158,383.444550 779.181091,385.794952 
z"/>
<path fill="#E5F6F7" opacity="1.000000" stroke="none" 
	d="
M524.697632,367.997864 
	C525.201965,374.703308 525.275574,381.425934 525.248169,388.558655 
	C523.893494,389.234283 522.639832,389.499786 521.643616,389.710785 
	C520.627197,388.248077 519.803162,387.062103 518.627258,385.781250 
	C518.212463,382.708527 518.149475,379.730652 518.575378,376.368286 
	C519.507568,375.677551 519.950806,375.371277 520.394043,375.065033 
	C519.692139,374.702972 518.990173,374.340881 518.288208,373.978790 
	C518.220215,372.599701 518.152161,371.220612 518.179565,369.563782 
	C520.272217,368.862366 522.269531,368.438690 524.697632,367.997864 
z"/>
<path fill="#E5F6F7" opacity="1.000000" stroke="none" 
	d="
M631.641541,353.412842 
	C629.924500,353.688263 627.914124,353.759644 625.483765,353.727142 
	C627.158569,353.485107 629.253357,353.346954 631.641541,353.412842 
z"/>
<path fill="#E5F6F7" opacity="1.000000" stroke="none" 
	d="
M633.083130,369.812805 
	C632.986450,369.591553 633.183228,369.263000 633.613647,368.762817 
	C633.690308,368.962585 633.533447,369.334045 633.083130,369.812805 
z"/>
<path fill="#E5F6F7" opacity="1.000000" stroke="none" 
	d="
M560.871704,353.447083 
	C560.964966,353.562469 560.499756,353.718109 560.267212,353.640259 
	C560.220642,353.265350 560.468628,353.188416 560.871704,353.447083 
z"/>
<path fill="#E5F6F7" opacity="1.000000" stroke="none" 
	d="
M553.871216,353.445740 
	C553.964417,353.560974 553.499573,353.716522 553.267212,353.638916 
	C553.220642,353.264771 553.468384,353.187836 553.871216,353.445740 
z"/>
<path fill="#FEFEFE" opacity="1.000000" stroke="none" 
	d="
M518.215698,374.316833 
	C518.990173,374.340881 519.692139,374.702972 520.394043,375.065033 
	C519.950806,375.371277 519.507568,375.677551 518.676331,376.003052 
	C518.239990,375.566498 518.191589,375.110657 518.215698,374.316833 
z"/>
<path fill="#F2FBFB" opacity="1.000000" stroke="none" 
	d="
M652.417786,452.416901 
	C650.069885,454.806244 648.236572,457.324341 645.825623,459.022400 
	C636.752686,465.412720 633.666138,473.924103 635.050903,484.799774 
	C635.799072,490.675964 635.184082,496.725769 635.184082,503.187927 
	C612.612427,503.187927 590.394531,503.187927 567.779175,503.187927 
	C567.779175,501.378326 567.779175,499.488983 567.779175,496.929932 
	C587.773926,496.929932 607.804382,496.929932 628.378235,496.929932 
	C628.378235,488.005554 628.115906,479.705750 628.530396,471.439880 
	C628.663147,468.792511 629.949158,465.607971 631.791260,463.734955 
	C647.209534,448.057831 662.825317,432.572906 678.530029,417.181519 
	C681.128967,414.634399 682.653015,412.088196 682.007324,408.460022 
	C680.585388,400.469910 683.346252,394.299774 689.880676,389.551758 
	C692.012207,388.002991 693.668213,385.812775 695.615112,383.994446 
	C699.637512,380.237701 702.741638,376.691193 702.087952,370.112335 
	C701.371338,362.899506 709.590454,357.031403 716.837097,358.145142 
	C724.579407,359.335052 729.712158,367.031494 727.976807,374.848724 
	C726.444763,381.750061 718.414307,386.880310 711.786438,384.199585 
	C707.248108,382.364014 704.751221,383.681549 702.109802,386.844635 
	C700.939697,388.245728 699.680664,389.642853 698.225708,390.723724 
	C690.685730,396.325226 687.135620,403.440399 688.603271,413.042786 
	C688.884460,414.882507 687.407043,417.524628 685.943665,419.012390 
	C674.963989,430.175262 663.784302,441.141418 652.417786,452.416901 
M721.174622,368.493561 
	C718.734802,364.700165 715.402161,363.477478 711.424683,365.738953 
	C708.090759,367.634521 707.178223,370.787140 708.670715,374.327423 
	C710.189941,377.931366 713.229797,379.243622 716.815796,378.151337 
	C721.134644,376.835815 722.750183,373.664490 721.174622,368.493561 
z"/>
<path fill="#F0F9F9" opacity="1.000000" stroke="none" 
	d="
M678.582275,621.418701 
	C686.272705,629.064392 693.754700,636.419128 701.125122,643.883972 
	C703.076294,645.860168 704.621643,646.513306 707.551575,645.262146 
	C713.948425,642.530518 720.778076,645.372803 724.139648,651.468628 
	C727.242737,657.095703 725.811035,664.157104 720.773010,668.072876 
	C715.154785,672.439575 707.630920,672.020203 702.556519,667.120667 
	C699.251099,663.929138 698.195251,659.891785 699.116089,655.674500 
	C699.809204,652.500000 698.589966,650.696594 696.596863,648.729614 
	C683.677429,635.979797 670.728699,623.257080 658.015259,610.304016 
	C656.262878,608.518555 655.073242,605.577026 654.818970,603.050354 
	C654.287659,597.770142 654.211365,592.384766 654.593811,587.089233 
	C654.949585,582.163513 653.369629,578.680115 649.711060,575.390503 
	C643.154297,569.495239 636.897461,563.247253 630.781555,556.890442 
	C628.360413,554.373962 625.872253,553.517944 622.463318,553.555969 
	C608.143188,553.715637 593.820129,553.613647 579.498169,553.607544 
	C578.197510,553.606995 576.896912,553.607483 575.247192,553.607483 
	C575.247192,551.291565 575.247192,549.391113 575.247192,547.187500 
	C576.116760,547.079834 577.062378,546.861023 578.008057,546.860779 
	C594.161987,546.856506 610.316956,546.800171 626.468750,546.994080 
	C628.540222,547.018982 631.118896,547.825012 632.573059,549.205933 
	C641.385376,557.574280 650.034058,566.122864 658.491638,574.849548 
	C659.996094,576.401855 661.001648,579.038757 661.109497,581.230408 
	C661.428101,587.708313 661.010193,594.220581 661.261902,600.704651 
	C661.336487,602.626404 662.217529,604.924072 663.514771,606.318420 
	C668.274963,611.434998 673.365784,616.244019 678.582275,621.418701 
M717.262146,662.612122 
	C720.002747,658.097534 719.745850,654.391479 716.312988,652.179565 
	C713.181763,650.161804 709.998657,650.175598 707.297424,653.015076 
	C704.792358,655.648254 704.517822,658.721619 706.716248,661.586792 
	C709.435730,665.130981 712.861206,665.851624 717.262146,662.612122 
z"/>
<path fill="#F2FAFA" opacity="1.000000" stroke="none" 
	d="
M586.202759,622.996094 
	C586.203613,613.845520 586.203613,605.193848 586.203613,595.796387 
	C584.787598,596.841064 583.726257,597.455261 582.870789,598.282349 
	C576.765564,604.185242 570.683105,610.112000 564.632874,616.071228 
	C560.932678,619.715820 561.057678,620.622803 565.407104,623.363586 
	C571.361023,627.115417 573.966431,633.537598 572.009644,639.638672 
	C570.132812,645.490173 564.314636,649.395264 558.156799,648.936523 
	C551.855835,648.467163 546.524292,643.572876 545.697449,637.238953 
	C544.895569,631.096680 547.811584,626.739197 552.687622,623.344727 
	C553.912109,622.492310 555.827942,621.017090 555.686951,620.093628 
	C555.007690,615.644104 557.926636,613.492798 560.531921,610.929260 
	C568.128479,603.454285 575.530273,595.777954 583.236755,588.419800 
	C586.061584,585.722717 586.916443,582.830139 586.709045,579.095825 
	C586.444214,574.327209 586.644775,569.532776 586.644775,564.511719 
	C588.819641,564.511719 590.590332,564.511719 593.173279,564.511719 
	C593.173279,566.299438 593.173218,568.043701 593.173279,569.787964 
	C593.174194,591.436768 593.206543,613.085754 593.135864,634.734314 
	C593.127136,637.400146 593.479980,639.120361 596.278625,640.602539 
	C601.993591,643.629211 604.397522,650.161926 602.725281,655.955933 
	C601.122437,661.509338 595.618469,665.648315 589.628296,665.804810 
	C584.021240,665.951294 578.752502,661.999084 576.964783,656.305725 
	C575.095215,650.351685 577.200256,644.106384 582.962891,640.869446 
	C585.860962,639.241577 586.411072,637.359558 586.268555,634.484192 
	C586.087341,630.828979 586.210083,627.158813 586.202759,622.996094 
M565.959290,634.721924 
	C565.129944,630.309875 562.450867,627.902222 558.002136,628.530457 
	C554.095581,629.082031 551.876160,631.805969 552.127136,635.845642 
	C552.363831,639.655273 554.777344,641.940735 558.497986,642.205139 
	C563.055786,642.528992 565.525208,640.023987 565.959290,634.721924 
M591.853943,645.455444 
	C586.260498,645.103394 582.915100,647.592285 582.882507,652.129944 
	C582.853394,656.187988 586.394348,659.874756 590.285095,658.854919 
	C592.613770,658.244568 595.280396,656.069885 596.280823,653.900085 
	C597.865234,650.463501 595.897583,647.531189 591.853943,645.455444 
z"/>
<path fill="#14C6D0" opacity="1.000000" stroke="none" 
	d="
M594.362122,400.022705 
	C595.557922,406.079651 593.697510,409.762970 589.405273,410.226105 
	C585.708984,410.624939 582.282043,409.195343 581.892944,405.484070 
	C581.622803,402.907013 582.897278,399.199768 584.817017,397.578796 
	C588.039490,394.857758 591.629456,396.264038 594.362122,400.022705 
z"/>
<path fill="#14C6D0" opacity="1.000000" stroke="none" 
	d="
M721.336060,368.851410 
	C722.750183,373.664490 721.134644,376.835815 716.815796,378.151337 
	C713.229797,379.243622 710.189941,377.931366 708.670715,374.327423 
	C707.178223,370.787140 708.090759,367.634521 711.424683,365.738953 
	C715.402161,363.477478 718.734802,364.700165 721.336060,368.851410 
z"/>
<path fill="#16CAD4" opacity="1.000000" stroke="none" 
	d="
M716.973816,662.872070 
	C712.861206,665.851624 709.435730,665.130981 706.716248,661.586792 
	C704.517822,658.721619 704.792358,655.648254 707.297424,653.015076 
	C709.998657,650.175598 713.181763,650.161804 716.312988,652.179565 
	C719.745850,654.391479 720.002747,658.097534 716.973816,662.872070 
z"/>
<path fill="#14C6D0" opacity="1.000000" stroke="none" 
	d="
M565.969727,635.116272 
	C565.525208,640.023987 563.055786,642.528992 558.497986,642.205139 
	C554.777344,641.940735 552.363831,639.655273 552.127136,635.845642 
	C551.876160,631.805969 554.095581,629.082031 558.002136,628.530457 
	C562.450867,627.902222 565.129944,630.309875 565.969727,635.116272 
z"/>
<path fill="#14C6D0" opacity="1.000000" stroke="none" 
	d="
M592.201111,645.609009 
	C595.897583,647.531189 597.865234,650.463501 596.280823,653.900085 
	C595.280396,656.069885 592.613770,658.244568 590.285095,658.854919 
	C586.394348,659.874756 582.853394,656.187988 582.882507,652.129944 
	C582.915100,647.592285 586.260498,645.103394 592.201111,645.609009 
z"/>
</svg>