<svg version="1.1" id="Layer_1" xmlns="http://www.w3.org/2000/svg" xmlns:xlink="http://www.w3.org/1999/xlink" x="0px" y="0px"
	 width="100%" viewBox="0 0 1024 1024" enable-background="new 0 0 1024 1024" xml:space="preserve">
<path fill="#000000" opacity="1.000000" stroke="none" 
	d="
M412.000000,528.765503 
	C530.297791,528.762512 648.095642,528.759155 765.893433,528.758850 
	C781.491577,528.758850 790.933716,537.609497 791.520752,553.136719 
	C792.030273,566.613892 792.290894,580.103333 791.496765,593.586182 
	C790.624817,608.388794 781.172913,617.265625 766.106140,617.268738 
	C691.795227,617.284119 617.484253,617.267151 543.173340,617.266357 
	C448.701813,617.265381 354.230316,617.272034 259.758789,617.266785 
	C247.658142,617.266113 239.643600,612.130493 235.780930,602.072388 
	C234.738937,599.359131 234.575958,596.576904 234.580505,593.727722 
	C234.602036,580.231873 234.576660,566.735962 234.585266,553.240112 
	C234.594574,538.654297 244.331131,528.826782 259.047333,528.809998 
	C309.864838,528.752197 360.682434,528.774353 412.000000,528.765503 
M687.500000,606.692322 
	C713.323364,606.685730 739.146851,606.724609 764.970032,606.650696 
	C775.604919,606.620239 780.773010,601.506531 780.817993,591.216919 
	C780.868958,579.554688 780.858826,567.892151 780.857239,556.229736 
	C780.855591,543.969482 776.279480,539.338318 763.970093,539.394714 
	C720.324341,539.594604 676.678650,539.173462 633.031494,539.804626 
	C604.391418,540.218811 575.740601,539.902283 547.094604,539.888550 
	C509.617828,539.870605 472.141022,539.803162 434.664246,539.803589 
	C394.350922,539.804077 354.037567,539.910828 313.724335,539.865417 
	C295.902405,539.845337 278.080994,539.484924 260.258911,539.434509 
	C250.862030,539.407959 245.351227,544.957031 245.296906,554.321655 
	C245.221512,567.316406 245.245407,580.312378 245.327011,593.307190 
	C245.365311,599.406189 248.703720,603.811584 254.259048,605.785950 
	C257.343231,606.881958 260.501617,606.671021 263.653290,606.671326 
	C404.602203,606.685364 545.551086,606.687866 687.500000,606.692322 
z"/>
<path fill="#000000" opacity="1.000000" stroke="none" 
	d="
M474.927490,297.023865 
	C440.125458,305.969238 411.086639,323.476013 388.009399,350.634888 
	C386.392975,352.537231 384.764587,354.459381 382.928955,356.139832 
	C377.373413,361.225616 369.643463,361.320007 364.306732,356.502228 
	C358.880951,351.604126 358.284393,344.179993 363.235840,338.080170 
	C394.213257,299.918182 433.709869,275.465759 482.364136,268.120300 
	C546.329773,258.463257 601.762085,277.375397 648.441101,322.062134 
	C654.538025,327.898804 654.466248,327.945709 661.019775,322.676208 
	C663.484009,320.694794 665.851501,318.514954 668.558777,316.930939 
	C673.635681,313.960449 679.067200,316.857666 679.316956,322.661194 
	C680.083496,340.470551 680.047363,358.293549 679.760071,376.112885 
	C679.679871,381.082703 675.903687,384.220856 670.957703,383.067017 
	C653.782837,379.060486 636.630005,374.940521 619.561035,370.508331 
	C612.836426,368.762146 611.685242,363.269714 616.882263,358.588531 
	C621.929321,354.042480 627.367432,349.930603 632.629150,345.631866 
	C605.719971,312.540436 543.090576,280.420502 474.927490,297.023865 
z"/>
<path fill="#000000" opacity="1.000000" stroke="none" 
	d="
M554.395142,728.331970 
	C588.960876,718.929077 617.162842,700.333496 640.038330,673.463196 
	C645.609802,666.918701 650.758606,664.973450 657.023254,667.249390 
	C666.118408,670.553650 668.511841,680.825928 661.982666,688.881531 
	C646.719543,707.713196 628.575134,723.190979 607.600708,735.341919 
	C538.702820,775.255676 448.983276,766.731079 388.742218,714.596558 
	C383.696259,710.229675 378.771301,705.740356 374.339081,700.763550 
	C372.213562,698.376892 370.454742,698.111267 368.112946,700.318970 
	C365.570862,702.715454 362.873474,704.949219 360.212006,707.216614 
	C357.376312,709.632507 354.474457,712.053040 350.373260,710.290039 
	C346.207184,708.499084 346.064178,704.686096 346.100250,700.977844 
	C346.179535,692.818604 346.479034,684.661499 346.559357,676.502258 
	C346.643036,668.007263 346.513123,659.510071 346.593323,651.015015 
	C346.651611,644.838928 349.461884,642.424866 355.527069,643.753357 
	C372.259521,647.418213 388.968719,651.197510 405.636475,655.145325 
	C412.047424,656.663696 413.612274,662.801819 408.780304,667.319519 
	C405.017639,670.837463 400.953064,674.067993 396.796448,677.118042 
	C393.264404,679.709900 393.019440,681.699402 396.286804,684.940491 
	C412.964264,701.484009 432.075348,714.235962 454.020996,722.630432 
	C486.716919,735.137085 520.060974,737.120972 554.395142,728.331970 
z"/>
<path fill="#000000" opacity="1.000000" stroke="none" 
	d="
M434.851837,464.353943 
	C435.069336,461.497009 433.460236,459.974670 432.091797,458.292114 
	C421.472992,445.235229 422.046478,427.650818 433.698761,415.608398 
	C436.186005,413.037903 436.913055,410.818085 435.986389,407.235382 
	C432.342712,393.148315 439.894592,378.603790 453.499329,373.053925 
	C456.080475,372.000977 457.989807,370.725861 459.341827,368.109711 
	C469.749786,347.970306 495.371918,344.566986 510.853333,361.164581 
	C511.413574,361.765259 511.973389,362.366272 512.917236,363.378998 
	C518.187500,357.490875 524.229675,353.089600 531.987671,351.317352 
	C546.082031,348.097626 560.352112,354.864655 566.373657,368.030701 
	C567.489929,370.471436 569.031677,371.961609 571.528931,373.011444 
	C587.009033,379.519104 593.392273,392.129395 589.473511,408.429901 
	C588.850342,411.021881 589.414246,412.657501 591.298401,414.546814 
	C604.037842,427.320984 604.899475,444.884460 593.494080,458.650726 
	C591.888367,460.588806 591.235962,462.473877 591.203369,464.952606 
	C591.028137,478.279510 584.007996,487.034302 570.919983,490.383392 
	C568.882751,490.904755 567.293274,491.750061 566.122925,493.592468 
	C554.629761,511.685944 528.544983,511.051971 515.880066,496.846802 
	C515.122864,495.997498 514.218262,495.279572 513.511902,494.621368 
	C511.711029,494.671234 510.921265,495.861115 510.058044,496.815918 
	C495.261719,513.182739 468.708588,509.212952 459.818237,493.583008 
	C458.722504,491.656616 456.916656,491.003265 454.957123,490.428375 
	C441.454376,486.466858 435.689117,479.085327 434.851837,464.353943 
M586.000122,425.600647 
	C584.486572,424.068268 583.134155,422.321655 581.431519,421.040588 
	C574.022766,415.466187 568.886719,416.084259 562.894836,422.969910 
	C556.616333,430.184937 548.808167,433.973450 539.095093,433.297577 
	C535.555725,433.051300 532.792847,431.631714 532.836487,427.650543 
	C532.878540,423.810425 535.439453,422.133301 539.033325,421.822296 
	C540.027893,421.736237 541.035156,421.788818 542.027893,421.690094 
	C550.628479,420.835022 556.947876,414.909760 557.580017,406.778107 
	C557.825134,403.625427 557.928406,400.599091 561.614258,399.662262 
	C565.153687,398.762634 567.179443,400.737854 568.682251,403.733124 
	C570.238037,406.834198 573.397766,406.526367 576.133362,406.559235 
	C578.815552,406.591522 579.011047,404.059082 579.406555,402.209229 
	C580.771179,395.826843 576.112488,387.631470 569.343811,384.199982 
	C562.655945,380.809540 554.860596,382.107941 550.050720,387.250153 
	C547.848206,389.604828 547.101746,391.699554 549.279358,394.633636 
	C550.619019,396.438690 551.384827,398.802673 551.929810,401.032593 
	C552.706360,404.210205 551.255249,406.746002 548.271545,407.834229 
	C545.268433,408.929474 542.678650,407.818512 541.118713,404.922089 
	C540.253601,403.315674 539.739197,401.509064 538.793518,399.959442 
	C535.894165,395.208466 530.087891,393.417847 524.352112,394.754272 
	C518.337891,396.155548 518.407349,400.440704 518.509644,405.152893 
	C518.748108,416.139954 518.868103,427.130432 518.931885,438.120178 
	C519.003418,450.445831 518.637207,462.783020 519.053589,475.095184 
	C519.510986,488.619232 529.174133,496.859802 542.472900,495.797638 
	C553.540222,494.913696 559.984558,486.333466 557.639343,475.498230 
	C556.902100,472.091736 557.771057,469.357544 561.074280,468.153046 
	C564.425537,466.931152 566.748657,468.694122 568.438354,471.640289 
	C569.650452,473.753754 569.157227,476.625305 571.375000,478.304474 
	C573.704224,477.746765 575.315369,476.300018 576.597290,474.531342 
	C578.812500,471.474945 580.616211,468.471130 575.314697,466.432922 
	C573.336975,465.672546 572.321167,463.895355 572.436279,461.614044 
	C572.573608,458.892975 574.242859,457.644440 576.538635,456.549500 
	C589.968506,450.144592 593.492554,439.168976 586.000122,425.600647 
M437.234070,444.094543 
	C439.082825,450.119141 443.115479,453.999146 448.989960,456.075012 
	C451.381958,456.920258 453.015076,458.455475 453.186798,461.105377 
	C453.375641,464.019379 451.676788,465.703278 449.209564,466.823914 
	C448.343201,467.217438 447.161804,467.145874 446.733185,468.717499 
	C447.617706,473.281891 450.040161,476.796021 455.192657,478.592010 
	C455.794586,476.927887 456.293976,475.718109 456.672302,474.471558 
	C458.190216,469.469788 461.099731,466.987885 464.583679,468.124512 
	C469.218384,469.636627 469.023071,473.327087 468.237183,477.155975 
	C466.865234,483.839905 469.490692,488.941406 474.818970,492.680023 
	C480.927094,496.965820 487.664001,497.103821 494.301453,494.241730 
	C501.357483,491.199127 506.431763,485.733276 506.560760,477.954926 
	C506.988770,452.147766 506.775085,426.330170 506.859955,400.516785 
	C506.868286,397.986115 505.759308,396.548492 503.510162,395.572449 
	C498.338531,393.328125 492.437775,394.180145 488.598145,397.866852 
	C486.858429,399.537292 486.056274,401.707153 485.173126,403.880981 
	C483.898163,407.019165 481.590302,408.801056 478.093781,407.735413 
	C474.445496,406.623596 473.237640,403.836365 474.093475,400.273102 
	C474.554901,398.352142 475.154633,396.317383 476.258759,394.727631 
	C478.769867,391.112122 477.453674,388.603516 474.554474,386.156494 
	C469.388123,381.795898 462.604797,381.094879 456.349060,384.394592 
	C449.926453,387.782349 445.638794,395.227509 446.668854,401.644897 
	C446.984070,403.608917 446.808746,406.458038 449.873871,406.506165 
	C452.812683,406.552277 455.991455,406.659912 457.424286,403.065491 
	C458.500519,400.365570 460.293457,398.416260 463.490875,399.091797 
	C466.404022,399.707306 467.885193,401.699036 468.318878,404.710815 
	C470.111176,417.157349 474.169220,420.923706 486.722656,421.814270 
	C490.344910,422.071228 493.043243,423.483551 493.123199,427.345306 
	C493.208832,431.481171 490.433838,433.159668 486.591125,433.252869 
	C476.429138,433.499420 467.769043,430.142761 462.092865,421.490540 
	C459.054504,416.859253 455.521149,416.545532 451.000916,417.998047 
	C440.336365,421.424957 434.488312,432.015564 437.234070,444.094543 
M475.347656,365.711304 
	C473.653107,367.239960 471.595337,368.488312 471.099609,371.293488 
	C473.849304,372.730194 477.118591,373.639252 479.262482,375.712219 
	C485.110443,381.366577 491.111664,385.748810 499.813446,382.912476 
	C499.955750,382.866150 500.140045,382.946777 500.304413,382.970215 
	C506.842102,383.901581 508.078979,382.304016 506.176910,375.796295 
	C502.276428,362.451202 486.326294,357.823303 475.347656,365.711304 
M541.586731,379.088409 
	C544.705627,376.272034 548.331909,374.293945 552.196533,372.729279 
	C554.623230,371.746796 555.160278,370.455200 553.427124,368.226196 
	C548.693359,362.138367 538.264038,360.053894 530.176086,363.704742 
	C522.393860,367.217590 517.979065,375.493927 519.707947,383.699036 
	C523.745239,383.606293 527.873352,381.712433 531.859375,383.013153 
	C536.096680,384.395813 538.869934,383.077179 541.586731,379.088409 
z"/>
<path fill="#000000" opacity="1.000000" stroke="none" 
	d="
M485.999939,599.330444 
	C411.851746,599.334778 338.203613,599.343933 264.555450,599.339050 
	C254.354614,599.338379 252.677887,597.638550 252.671021,587.476990 
	C252.664246,577.479492 252.656494,567.481995 252.678085,557.484558 
	C252.696838,548.799866 254.827408,546.704163 263.674713,546.703308 
	C375.313324,546.692261 486.951965,546.686035 598.590576,546.684692 
	C652.910278,546.684021 707.229919,546.691711 761.549622,546.706848 
	C771.847412,546.709717 773.398743,548.282166 773.392822,558.552002 
	C773.387024,568.716064 773.376282,578.880066 773.359619,589.044128 
	C773.346252,597.182983 771.261475,599.277100 762.930908,599.287964 
	C736.104309,599.322815 709.277771,599.324036 682.451172,599.326172 
	C617.134094,599.331299 551.817017,599.329651 485.999939,599.330444 
z"/>
<path fill="#000000" opacity="1.000000" stroke="none" 
	d="
M555.683533,462.453888 
	C552.033752,469.100342 546.748230,473.128693 539.816833,474.915344 
	C536.119446,475.868378 532.466309,475.500397 531.311890,471.205963 
	C530.190857,467.035828 532.798706,464.747467 536.640686,463.664001 
	C541.440308,462.310455 544.812744,459.417938 546.381897,454.548340 
	C545.378357,452.287567 542.944275,452.052277 541.259705,450.813446 
	C538.300049,448.636780 537.157959,445.882721 539.043152,442.611511 
	C540.977173,439.255646 543.990417,439.094604 547.241150,440.731476 
	C548.722229,441.477295 550.131470,442.406860 551.674377,442.981598 
	C557.331116,445.088806 562.910034,442.662506 565.952820,436.608063 
	C567.707642,433.116394 570.176392,431.248413 573.918030,432.923767 
	C577.677612,434.607178 577.862671,437.838470 576.532043,441.381683 
	C574.348755,447.195831 570.306946,451.514923 564.529297,453.204437 
	C559.563904,454.656433 556.928955,457.377197 555.683533,462.453888 
z"/>
<path fill="#000000" opacity="1.000000" stroke="none" 
	d="
M489.825378,464.101318 
	C493.912445,465.338348 496.019135,467.689667 494.883667,471.659851 
	C493.687408,475.842804 490.221680,476.099762 486.757843,475.228699 
	C478.308289,473.103760 472.028442,468.186005 469.096313,459.830444 
	C467.978607,456.645447 466.305237,454.926758 463.097656,453.965729 
	C456.288483,451.925659 451.566254,447.489746 449.364990,440.602112 
	C448.230347,437.051788 449.183899,434.177246 452.744812,432.879425 
	C455.970795,431.703705 458.443604,432.835571 460.082458,436.133606 
	C463.908508,443.832947 469.741882,445.630829 477.282684,441.688171 
	C478.314209,441.148834 479.295074,440.448456 480.388031,440.103699 
	C483.000641,439.279602 485.408112,439.732697 487.060425,442.068298 
	C488.707367,444.396332 488.393768,446.776794 486.708405,449.004456 
	C486.408539,449.400879 485.961090,449.695984 485.704681,450.113373 
	C484.213562,452.540314 478.950928,452.025360 480.021393,455.957275 
	C481.215607,460.343628 484.903961,462.956635 489.825378,464.101318 
z"/>
</svg>