<svg version="1.1" id="Layer_1" xmlns="http://www.w3.org/2000/svg" xmlns:xlink="http://www.w3.org/1999/xlink" x="0px" y="0px"
	 width="100%" viewBox="0 0 1024 1024" enable-background="new 0 0 1024 1024" xml:space="preserve">
<path fill="#FEFEFE" opacity="1.000000" stroke="none" 
	d="
M503.000000,1025.000000 
	C335.333344,1025.000000 168.166672,1025.000000 1.000000,1025.000000 
	C1.000000,683.666687 1.000000,342.333344 1.000000,1.000000 
	C342.333344,1.000000 683.666687,1.000000 1025.000000,1.000000 
	C1025.000000,342.333344 1025.000000,683.666687 1025.000000,1025.000000 
	C851.166687,1025.000000 677.333313,1025.000000 503.000000,1025.000000 
M179.611465,676.193420 
	C180.500061,675.770630 181.466339,675.460510 182.265976,674.908752 
	C206.936966,657.885742 231.505447,640.712646 256.266907,623.822449 
	C306.829620,589.332703 359.809265,558.945862 414.442352,531.421448 
	C416.662689,530.302795 419.954224,530.138123 422.396240,530.807495 
	C460.268677,541.188477 498.121094,551.647766 535.885498,562.414001 
	C545.918701,565.274353 555.428223,565.099792 564.299194,559.693115 
	C585.607239,546.706238 607.573608,534.581177 627.757202,520.007263 
	C697.093689,469.941437 751.969543,406.652924 794.990662,332.916809 
	C798.796326,326.394073 802.491028,319.806641 806.511536,312.769165 
	C820.252441,327.858215 833.561646,342.473267 847.792175,358.100037 
	C846.388184,302.700378 845.027344,249.006516 843.638123,194.191010 
	C797.529114,221.106018 752.289917,247.513245 705.980286,274.545380 
	C726.229004,279.228302 744.992432,283.567688 764.094299,287.985382 
	C763.110596,290.014984 762.497009,291.555511 761.660767,292.963867 
	C753.502502,306.704742 745.795349,320.743683 737.041260,334.095581 
	C688.267151,408.487030 626.134644,468.895386 548.448853,512.794678 
	C546.338745,513.987061 543.038513,514.287598 540.673035,513.632629 
	C502.821808,503.151794 465.011505,492.521118 427.244354,481.740753 
	C418.110962,479.133667 409.544586,479.372192 401.306519,484.428864 
	C398.898621,485.906921 396.286407,487.048065 393.837921,488.464661 
	C342.824890,517.979126 296.534454,553.746094 253.756012,594.181824 
	C226.836563,619.627136 201.817856,646.796326 178.753754,676.173157 
	C178.805756,676.086914 178.857758,676.000732 179.611465,676.193420 
M796.591370,810.429443 
	C796.625854,686.766357 796.513428,563.102905 796.854370,439.440674 
	C796.905151,421.026428 790.901245,418.302124 775.549805,419.193878 
	C773.832153,419.293671 771.676941,420.319946 770.593201,421.633301 
	C744.251221,453.556732 715.654541,483.353394 685.888306,512.067383 
	C684.665894,513.246582 683.820740,515.447083 683.819824,517.172241 
	C683.769043,616.835876 683.822754,716.499573 683.878784,816.163269 
	C683.884338,826.065491 688.744690,830.984253 698.534302,830.987732 
	C726.366821,830.997681 754.199341,830.992554 782.031860,830.950745 
	C791.302979,830.936829 796.287720,826.056824 796.544312,816.901001 
	C796.595642,815.068848 796.573730,813.234680 796.591370,810.429443 
M558.985962,752.500000 
	C558.979736,703.859192 558.992004,655.218445 558.950745,606.577637 
	C558.942932,597.376648 553.841003,592.255310 544.776794,592.253357 
	C516.458679,592.247131 488.140472,592.266907 459.822449,592.339417 
	C450.750946,592.362610 445.967712,597.240784 445.969513,606.260193 
	C445.983429,676.056030 446.005493,745.851868 446.028442,815.647705 
	C446.031982,826.408752 450.678894,831.005981 461.634277,831.008850 
	C489.119507,831.016052 516.604736,830.997437 544.089966,830.981262 
	C554.202881,830.975281 559.037292,826.139587 559.037842,815.966431 
	C559.038940,795.144287 559.005432,774.322144 558.985962,752.500000 
M210.881683,710.490295 
	C209.896698,713.248047 208.068451,716.001831 208.055283,718.764221 
	C207.898224,751.738098 207.974823,784.713501 208.079559,817.688171 
	C208.104340,825.493408 213.493927,830.962036 221.258560,830.983826 
	C250.236313,831.065186 279.214600,831.069824 308.192291,830.980713 
	C316.259888,830.955872 321.139801,825.858154 321.146973,817.732544 
	C321.175690,785.257263 321.168579,752.781860 321.114929,720.306641 
	C321.100006,711.277344 315.841919,706.077454 306.791016,706.071350 
	C278.479218,706.052246 250.165939,705.958679 221.857513,706.275513 
	C218.358246,706.314636 214.884781,708.658020 210.881683,710.490295 
z"/>
<path fill="#214C72" opacity="1.000000" stroke="none" 
	d="
M796.588501,810.915405 
	C796.573730,813.234680 796.595642,815.068848 796.544312,816.901001 
	C796.287720,826.056824 791.302979,830.936829 782.031860,830.950745 
	C754.199341,830.992554 726.366821,830.997681 698.534302,830.987732 
	C688.744690,830.984253 683.884338,826.065491 683.878784,816.163269 
	C683.822754,716.499573 683.769043,616.835876 683.819824,517.172241 
	C683.820740,515.447083 684.665894,513.246582 685.888306,512.067383 
	C715.654541,483.353394 744.251221,453.556732 770.593201,421.633301 
	C771.676941,420.319946 773.832153,419.293671 775.549805,419.193878 
	C790.901245,418.302124 796.905151,421.026428 796.854370,439.440674 
	C796.513428,563.102905 796.625854,686.766357 796.588501,810.915405 
z"/>
<path fill="#1CC2BF" opacity="1.000000" stroke="none" 
	d="
M178.988083,675.973328 
	C201.817856,646.796326 226.836563,619.627136 253.756012,594.181824 
	C296.534454,553.746094 342.824890,517.979126 393.837921,488.464661 
	C396.286407,487.048065 398.898621,485.906921 401.306519,484.428864 
	C409.544586,479.372192 418.110962,479.133667 427.244354,481.740753 
	C465.011505,492.521118 502.821808,503.151794 540.673035,513.632629 
	C543.038513,514.287598 546.338745,513.987061 548.448853,512.794678 
	C626.134644,468.895386 688.267151,408.487030 737.041260,334.095581 
	C745.795349,320.743683 753.502502,306.704742 761.660767,292.963867 
	C762.497009,291.555511 763.110596,290.014984 764.094299,287.985382 
	C744.992432,283.567688 726.229004,279.228302 705.980286,274.545380 
	C752.289917,247.513245 797.529114,221.106018 843.638123,194.191010 
	C845.027344,249.006516 846.388184,302.700378 847.792175,358.100037 
	C833.561646,342.473267 820.252441,327.858215 806.511536,312.769165 
	C802.491028,319.806641 798.796326,326.394073 794.990662,332.916809 
	C751.969543,406.652924 697.093689,469.941437 627.757202,520.007263 
	C607.573608,534.581177 585.607239,546.706238 564.299194,559.693115 
	C555.428223,565.099792 545.918701,565.274353 535.885498,562.414001 
	C498.121094,551.647766 460.268677,541.188477 422.396240,530.807495 
	C419.954224,530.138123 416.662689,530.302795 414.442352,531.421448 
	C359.809265,558.945862 306.829620,589.332703 256.266907,623.822449 
	C231.505447,640.712646 206.936966,657.885742 182.265976,674.908752 
	C181.466339,675.460510 180.500061,675.770630 179.278839,676.070618 
	C178.946228,675.947815 178.988083,675.973328 178.988083,675.973328 
z"/>
<path fill="#214D73" opacity="1.000000" stroke="none" 
	d="
M558.986084,753.000000 
	C559.005432,774.322144 559.038940,795.144287 559.037842,815.966431 
	C559.037292,826.139587 554.202881,830.975281 544.089966,830.981262 
	C516.604736,830.997437 489.119507,831.016052 461.634277,831.008850 
	C450.678894,831.005981 446.031982,826.408752 446.028442,815.647705 
	C446.005493,745.851868 445.983429,676.056030 445.969513,606.260193 
	C445.967712,597.240784 450.750946,592.362610 459.822449,592.339417 
	C488.140472,592.266907 516.458679,592.247131 544.776794,592.253357 
	C553.841003,592.255310 558.942932,597.376648 558.950745,606.577637 
	C558.992004,655.218445 558.979736,703.859192 558.986084,753.000000 
z"/>
<path fill="#214C73" opacity="1.000000" stroke="none" 
	d="
M211.140533,710.211975 
	C214.884781,708.658020 218.358246,706.314636 221.857513,706.275513 
	C250.165939,705.958679 278.479218,706.052246 306.791016,706.071350 
	C315.841919,706.077454 321.100006,711.277344 321.114929,720.306641 
	C321.168579,752.781860 321.175690,785.257263 321.146973,817.732544 
	C321.139801,825.858154 316.259888,830.955872 308.192291,830.980713 
	C279.214600,831.069824 250.236313,831.065186 221.258560,830.983826 
	C213.493927,830.962036 208.104340,825.493408 208.079559,817.688171 
	C207.974823,784.713501 207.898224,751.738098 208.055283,718.764221 
	C208.068451,716.001831 209.896698,713.248047 211.140533,710.211975 
z"/>
<path fill="#1CC2BF" opacity="1.000000" stroke="none" 
	d="
M178.927994,675.931152 
	C178.857758,676.000732 178.805756,676.086914 178.870911,676.073242 
	C178.988083,675.973328 178.946228,675.947815 178.927994,675.931152 
z"/>
</svg>