<svg version="1.1" id="Layer_1" xmlns="http://www.w3.org/2000/svg" xmlns:xlink="http://www.w3.org/1999/xlink" x="0px" y="0px"
	 width="100%" viewBox="0 0 1024 1024" enable-background="new 0 0 1024 1024" xml:space="preserve">
<path fill="#000000" opacity="1.000000" stroke="none" 
	d="
M215.604706,561.979370 
	C215.438019,501.332977 215.147766,441.182678 215.219315,381.032776 
	C215.232712,369.770203 214.913498,358.414856 217.681061,347.254669 
	C226.598572,311.294739 259.033630,285.697021 296.094513,285.693848 
	C409.740051,285.684082 523.385559,285.659760 637.031128,285.725708 
	C673.922180,285.747101 706.923523,312.555389 714.809326,348.634918 
	C716.307068,355.487518 716.933533,362.461090 716.938171,369.452545 
	C716.980225,432.940552 717.075073,496.428925 716.897217,559.916504 
	C716.800842,594.317261 701.844299,620.069763 670.744202,635.581116 
	C660.225098,640.827515 648.872864,643.373352 636.968628,643.364746 
	C551.151306,643.302673 465.333862,643.360962 379.516724,643.220520 
	C374.627441,643.212524 371.185822,644.724548 367.642334,648.018921 
	C349.226379,665.140564 330.570862,682.004822 311.971497,698.928711 
	C305.988617,704.372742 299.224884,705.768616 291.658020,702.552490 
	C284.287018,699.419495 282.095337,693.119812 281.979767,685.928406 
	C281.784332,673.767578 281.683838,661.591309 282.102936,649.440918 
	C282.285797,644.139709 280.544373,641.909302 275.437317,640.445679 
	C244.598770,631.607483 225.404083,611.291321 217.446609,580.296021 
	C215.949844,574.465942 215.411804,568.499329 215.604706,561.979370 
M301.299957,660.499939 
	C301.299957,667.549927 301.299957,674.599976 301.299957,682.601990 
	C303.057983,681.192688 303.856750,680.623962 304.574402,679.966675 
	C323.124573,662.975159 341.721436,646.033875 360.156006,628.917786 
	C363.271667,626.024963 366.319794,624.555298 370.714844,624.561523 
	C456.859253,624.683716 543.003845,624.648376 629.148438,624.646423 
	C633.975220,624.646301 638.765015,624.446350 643.589050,623.893921 
	C673.682129,620.448547 697.654907,593.898621 697.676086,563.571045 
	C697.721558,498.254456 697.731689,432.937805 697.691833,367.621216 
	C697.669983,331.934570 670.032410,304.377991 634.219849,304.369171 
	C522.248535,304.341583 410.277252,304.348755 298.305969,304.399353 
	C262.028992,304.415741 234.393372,332.075073 234.361435,368.406006 
	C234.305054,432.556122 234.313400,496.706390 234.385895,560.856506 
	C234.426102,596.432495 260.734863,623.463928 296.402863,624.598511 
	C300.048615,624.714417 301.422363,625.815002 301.360931,629.508606 
	C301.194672,639.503296 301.302490,649.502563 301.299957,660.499939 
z"/>
<path fill="#000000" opacity="1.000000" stroke="none" 
	d="
M775.400757,663.374756 
	C765.680176,673.688538 754.408936,680.825745 740.985352,684.291870 
	C737.441162,685.206970 736.218262,687.021362 736.300232,690.645447 
	C736.541443,701.306824 736.350952,711.977478 736.551575,722.640381 
	C736.690613,730.031921 734.036865,735.809998 727.198303,738.857361 
	C720.416687,741.879150 713.765564,740.999512 708.005920,736.151978 
	C700.995483,730.251526 694.098022,724.212891 687.258789,718.114014 
	C676.812195,708.798523 666.376831,699.467102 656.116455,689.948608 
	C653.324768,687.358826 650.263123,687.246216 646.894226,687.247986 
	C574.895935,687.285034 502.897583,687.357971 430.899445,687.268982 
	C411.004791,687.244385 393.869843,679.986694 379.562164,666.165466 
	C378.220764,664.869629 375.937897,663.715637 376.946564,661.273621 
	C377.932587,658.886353 380.055359,657.940063 382.609009,657.932312 
	C391.188690,657.906250 399.597656,657.242554 407.420654,662.807312 
	C414.173553,667.610962 422.620941,668.601807 430.870056,668.609924 
	C480.702148,668.658875 530.540405,669.054382 580.363892,668.387390 
	C605.688293,668.048401 631.008423,669.719666 656.316711,668.153931 
	C659.563110,667.953064 661.937805,669.372498 664.287109,671.523804 
	C680.508362,686.377686 696.829346,701.122742 713.131042,715.888611 
	C714.308777,716.955322 715.588135,717.909729 717.673157,719.613281 
	C717.673157,711.443420 717.673706,704.339661 717.673035,697.235840 
	C717.672363,689.569397 717.842651,681.897400 717.598206,674.238708 
	C717.472351,670.297302 718.599121,668.830139 722.804138,668.474915 
	C746.304382,666.489380 763.066589,654.797180 772.167114,632.823669 
	C774.662231,626.799133 775.735352,620.417786 775.728394,613.807068 
	C775.667847,556.308533 775.718994,498.809906 775.702393,441.311279 
	C775.694946,415.340393 761.522583,395.125580 737.072083,386.439209 
	C733.878357,385.304565 732.393677,383.813324 732.655334,380.384613 
	C732.883057,377.402130 732.835815,374.380981 732.669495,371.390289 
	C732.433777,367.151031 734.226624,366.123596 738.137695,367.234406 
	C767.722412,375.636932 786.041199,394.819611 793.256836,424.657196 
	C794.079895,428.060608 794.333740,431.540466 794.370483,435.059875 
	C794.659302,462.719421 794.544373,490.382385 794.691284,518.041443 
	C794.805481,539.523865 794.599365,561.028137 794.444275,582.521973 
	C794.371033,592.676758 794.234253,602.838928 794.518433,612.986816 
	C795.059998,632.322083 788.305847,648.804138 775.400757,663.374756 
z"/>
<path fill="#000000" opacity="1.000000" stroke="none" 
	d="
M358.000000,383.859131 
	C380.992554,383.857025 403.485504,383.920563 425.977356,383.792023 
	C430.262970,383.767548 432.646088,384.424896 431.513245,389.603943 
	C430.631256,393.636078 430.518097,397.856323 430.291779,402.005432 
	C430.120911,405.137939 428.758850,406.426056 425.598053,406.347076 
	C419.936768,406.205627 414.263794,406.457611 408.606720,406.248535 
	C405.197693,406.122528 403.730194,407.631317 403.388428,410.789764 
	C400.850464,434.245087 396.658325,457.506989 395.121124,481.076233 
	C394.894836,484.545990 394.963745,488.100372 395.459259,491.534332 
	C396.008240,495.339111 397.983032,498.544983 402.028778,499.531219 
	C406.323639,500.578125 409.909546,499.169250 412.527374,495.527130 
	C414.598480,492.645721 415.976501,489.428925 416.748871,485.997345 
	C417.475433,482.769196 419.767181,483.222107 421.801666,483.879120 
	C424.037872,484.601318 428.105774,483.997498 427.173828,488.109985 
	C424.476807,500.011475 420.449280,511.445984 409.008850,517.851379 
	C390.438293,528.248962 371.772186,516.432373 370.785553,493.947754 
	C370.256439,481.888977 372.536652,470.081848 374.083344,458.220428 
	C376.124268,442.569183 378.415009,426.950348 380.632843,411.322479 
	C381.130493,407.815918 380.155731,406.090454 376.171417,406.197418 
	C367.680176,406.425385 359.174652,406.431244 350.683289,406.209564 
	C346.616699,406.103363 345.609711,408.097443 345.287781,411.607056 
	C342.719391,439.608521 338.442383,467.353424 332.329041,494.801697 
	C330.918518,501.134827 329.217957,507.416595 325.416534,512.881104 
	C322.743927,516.722961 319.309052,519.331543 314.694672,520.479919 
	C310.032959,521.640015 305.560516,521.553650 302.210419,517.816956 
	C298.474915,513.650391 297.674927,508.561096 299.770905,503.341888 
	C300.877930,500.585236 302.470856,497.989716 304.085266,495.476196 
	C317.398956,474.748169 324.046112,451.711273 327.727539,427.633850 
	C328.581757,422.047089 329.312164,416.436340 330.362976,410.886505 
	C330.985870,407.596527 330.092926,406.257599 326.639893,406.318573 
	C311.391022,406.587738 298.920502,412.432129 296.158691,428.449127 
	C295.676147,431.247803 294.399109,432.526794 291.316589,431.559967 
	C289.129089,430.873810 286.693787,431.027527 284.647552,429.833282 
	C283.071350,404.152832 301.065094,384.338135 326.511536,383.854248 
	C336.837250,383.657898 347.170288,383.845276 358.000000,383.859131 
z"/>
<path fill="#000000" opacity="1.000000" stroke="none" 
	d="
M648.454834,524.626465 
	C648.449463,528.897034 648.421631,532.728210 648.484253,536.557861 
	C648.519226,538.697144 647.891418,540.198181 645.459534,540.161987 
	C625.170410,539.860107 604.784485,541.960083 584.614807,539.089905 
	C569.795837,536.981079 561.887817,526.597595 563.851990,513.554016 
	C565.477234,502.760406 572.047791,495.226868 580.853271,489.389526 
	C583.053101,487.931213 585.352051,486.622437 588.069580,484.961121 
	C582.505371,481.932709 577.545837,478.742767 573.240234,474.583313 
	C564.690552,466.323883 561.854309,455.584808 565.803833,445.503387 
	C569.294128,436.594299 578.852966,430.776642 590.372681,430.667175 
	C608.189209,430.497803 626.006653,430.419250 643.822937,430.231018 
	C646.717468,430.200439 648.199829,431.247101 648.162781,434.269104 
	C648.113831,438.265656 648.012146,442.273987 648.251038,446.258209 
	C648.493408,450.301422 646.661011,451.360718 642.897583,451.324799 
	C627.408691,451.176971 611.917664,451.271057 596.427429,451.246033 
	C593.043823,451.240570 589.361267,450.987427 587.764099,454.687378 
	C586.219421,458.265808 588.542114,461.264923 590.809448,463.629852 
	C597.101562,470.192627 604.536316,474.648438 614.014832,474.653748 
	C620.677246,474.657501 627.342163,474.789215 634.001099,474.643677 
	C637.259033,474.572479 638.470154,475.851196 638.349426,479.046204 
	C638.198608,483.037262 638.194275,487.047089 638.401184,491.034546 
	C638.589478,494.661102 636.918640,495.580078 633.591187,495.473907 
	C627.268005,495.272156 620.933350,495.323578 614.605286,495.404694 
	C605.491089,495.521545 597.856018,499.219635 591.413330,505.479919 
	C590.125549,506.731232 589.070679,508.316742 588.231506,509.917542 
	C585.709961,514.728088 587.535339,518.193848 592.943970,518.592590 
	C597.088074,518.898132 601.267090,518.767090 605.430542,518.768677 
	C618.089233,518.773438 630.750000,518.876221 643.405334,518.663208 
	C647.623474,518.592224 649.311646,520.019897 648.454834,524.626465 
z"/>
<path fill="#000000" opacity="1.000000" stroke="none" 
	d="
M468.021851,363.943970 
	C461.045227,357.914062 459.772186,350.431091 460.610626,342.071808 
	C460.909821,339.089264 461.993744,337.923309 464.863251,337.926117 
	C486.348633,337.947083 507.834015,337.937805 529.319397,337.910919 
	C532.011108,337.907562 533.338074,339.095581 533.250305,341.828552 
	C533.207642,343.159302 533.263245,344.493042 533.263855,345.825409 
	C533.270142,358.850128 533.269592,358.862640 520.474731,358.924103 
	C513.646179,358.956879 506.817352,358.938141 499.988678,358.941833 
	C497.540375,358.943146 495.092072,358.942017 491.214966,358.942017 
	C497.804108,366.872009 503.272217,373.917816 509.275787,380.473358 
	C512.092651,383.549225 511.801086,385.482086 509.296387,388.369263 
	C503.000488,395.626556 496.968384,403.112732 490.852051,410.481110 
	C492.372101,412.262115 493.979095,411.650360 495.372833,411.657471 
	C506.365173,411.713409 517.361572,411.852234 528.348572,411.604065 
	C532.395752,411.512573 533.765686,412.950043 533.390015,416.796143 
	C533.180603,418.941132 533.359558,421.122986 533.344666,423.288147 
	C533.280945,432.551056 535.586792,432.184875 524.247437,432.188171 
	C504.927063,432.193787 485.605927,432.097534 466.286926,432.259003 
	C462.142975,432.293610 460.776611,431.326233 460.456879,426.761444 
	C459.808624,417.505676 462.082703,410.049377 468.998352,403.570648 
	C474.071350,398.818115 478.107605,392.973328 482.775269,387.767120 
	C484.847321,385.455994 484.888306,383.685547 482.811951,381.339447 
	C477.847626,375.730072 473.092194,369.935760 468.021851,363.943970 
z"/>
<path fill="#000000" opacity="1.000000" stroke="none" 
	d="
M482.541656,563.012939 
	C481.103729,567.167419 484.374512,565.472046 485.505035,565.486633 
	C497.992920,565.647644 510.487091,565.801697 522.970886,565.541443 
	C527.220032,565.452759 528.341431,566.830811 528.342102,570.911438 
	C528.344788,586.333191 528.469727,586.335083 512.915894,586.330261 
	C494.264313,586.324463 475.611023,586.174683 456.962311,586.402893 
	C452.107666,586.462280 451.024536,584.783936 450.678101,580.111694 
	C450.017548,571.203613 452.320312,564.104858 458.899170,557.822327 
	C464.287781,552.676453 468.522949,546.344116 473.608307,540.851501 
	C476.810455,537.392883 477.125061,534.857727 473.709656,531.203918 
	C466.894348,523.912903 460.611938,516.126465 454.013092,508.629425 
	C449.012238,502.947906 451.388062,496.309692 451.531067,490.017303 
	C451.576599,488.012054 453.969299,488.053436 455.604462,488.049347 
	C470.591919,488.011932 485.580322,487.934143 500.566620,488.070099 
	C505.898285,488.118439 506.580841,489.202332 505.318604,494.400299 
	C504.457977,497.944275 505.309509,500.629822 508.584747,502.411530 
	C512.885437,504.751099 517.296753,506.587921 522.374695,505.660065 
	C523.784912,505.402344 525.352539,504.740204 526.510376,507.139496 
	C512.446350,509.994690 498.322266,508.822296 483.698395,509.306488 
	C486.350220,514.664490 490.206390,518.131470 493.207550,522.202759 
	C495.080811,524.744019 497.248993,527.068665 499.296539,529.480591 
	C505.358978,536.621887 505.332642,536.594971 499.009613,543.845947 
	C493.540344,550.117859 488.145844,556.455017 482.541656,563.012939 
z"/>
<path fill="#000000" opacity="1.000000" stroke="none" 
	d="
M618.086121,405.107513 
	C618.073059,408.749908 618.020020,411.909485 618.067505,415.067505 
	C618.111572,417.997314 616.772827,419.285461 613.822754,419.210327 
	C609.335999,419.096008 604.844055,419.081696 600.356262,419.149872 
	C597.588501,419.191925 596.503662,418.068054 596.634766,415.249420 
	C596.843079,410.770844 596.816162,406.278198 596.777771,401.792450 
	C596.754822,399.103882 597.895935,397.785889 600.626831,397.804199 
	C604.118042,397.827576 607.609741,397.757812 611.101257,397.748932 
	C617.963379,397.731506 617.963379,397.737427 618.086121,405.107513 
M604.844421,411.816040 
	C607.500488,411.938660 609.579590,411.086304 609.632935,408.104095 
	C609.676331,405.672852 607.772583,404.760986 605.682312,404.389404 
	C603.759827,404.047699 601.903809,404.283813 601.126892,406.393707 
	C600.083618,409.226807 601.670410,410.744537 604.844421,411.816040 
z"/>
</svg>