<svg version="1.1" id="Layer_1" xmlns="http://www.w3.org/2000/svg" xmlns:xlink="http://www.w3.org/1999/xlink" x="0px" y="0px"
	 width="100%" viewBox="0 0 1024 1024" enable-background="new 0 0 1024 1024" xml:space="preserve">
<path fill="#FEFEFE" opacity="1.000000" stroke="none" 
	d="
M707.000000,1025.000000 
	C471.333344,1025.000000 236.166672,1025.000000 1.000000,1025.000000 
	C1.000000,683.666687 1.000000,342.333344 1.000000,1.000000 
	C342.333344,1.000000 683.666687,1.000000 1025.000000,1.000000 
	C1025.000000,342.333344 1025.000000,683.666687 1025.000000,1025.000000 
	C919.166687,1025.000000 813.333313,1025.000000 707.000000,1025.000000 
M712.131104,227.141861 
	C702.561462,227.141861 692.991821,227.141861 683.660706,227.141861 
	C681.766113,215.198807 676.217590,210.421585 665.507568,210.413879 
	C652.176575,210.404297 638.845642,210.448837 625.514648,210.461029 
	C612.269897,210.473160 608.450500,213.430740 605.312073,226.445435 
	C603.602539,226.445435 601.796570,226.445541 599.990662,226.445419 
	C507.840149,226.439667 415.689209,226.585815 323.539429,226.318695 
	C301.197479,226.253937 285.322327,243.073746 285.372437,264.606964 
	C285.782593,440.908417 285.660522,617.211121 285.698456,793.513428 
	C285.703552,817.174011 299.986938,831.442139 323.657440,831.414368 
	C351.819122,831.381226 379.980804,831.313843 408.142487,831.315308 
	C506.458618,831.320312 604.774780,831.346924 703.090881,831.369263 
	C725.147949,831.374268 740.172607,816.771118 740.178162,795.077332 
	C740.223816,617.774963 740.245178,440.472565 740.238464,263.170197 
	C740.237793,244.713226 730.792969,232.450989 712.131104,227.141861 
z"/>
<path fill="#1F4160" opacity="1.000000" stroke="none" 
	d="
M712.541138,227.228851 
	C730.792969,232.450989 740.237793,244.713226 740.238464,263.170197 
	C740.245178,440.472565 740.223816,617.774963 740.178162,795.077332 
	C740.172607,816.771118 725.147949,831.374268 703.090881,831.369263 
	C604.774780,831.346924 506.458618,831.320312 408.142487,831.315308 
	C379.980804,831.313843 351.819122,831.381226 323.657440,831.414368 
	C299.986938,831.442139 285.703552,817.174011 285.698456,793.513428 
	C285.660522,617.211121 285.782593,440.908417 285.372437,264.606964 
	C285.322327,243.073746 301.197479,226.253937 323.539429,226.318695 
	C415.689209,226.585815 507.840149,226.439667 599.990662,226.445419 
	C601.796570,226.445541 603.602539,226.445435 605.312073,226.445435 
	C608.450500,213.430740 612.269897,210.473160 625.514648,210.461029 
	C638.845642,210.448837 652.176575,210.404297 665.507568,210.413879 
	C676.217590,210.421585 681.766113,215.198807 683.660706,227.141861 
	C692.991821,227.141861 702.561462,227.141861 712.541138,227.228851 
M689.500183,281.480713 
	C563.060364,281.480713 436.620575,281.480713 310.117218,281.480713 
	C310.117218,437.136139 310.117218,592.204041 310.117218,747.346313 
	C445.517181,747.346313 580.592041,747.346313 715.738403,747.346313 
	C715.738403,591.972412 715.738403,436.926270 715.738403,281.479645 
	C707.123230,281.479645 698.811707,281.479645 689.500183,281.480713 
M561.138184,247.111115 
	C528.829712,247.109558 496.521210,247.096268 464.212738,247.117508 
	C458.549652,247.121246 455.147675,249.836517 455.143250,254.166641 
	C455.138763,258.547394 458.404388,261.142059 464.200439,261.147125 
	C496.675446,261.175415 529.150452,261.178436 561.625427,261.155640 
	C567.118469,261.151794 570.192749,258.685730 570.340332,254.397095 
	C570.484924,250.192856 567.754700,247.796112 561.138184,247.111115 
M527.185669,805.742920 
	C535.012085,797.828125 536.572205,787.698425 531.304199,779.001526 
	C526.163513,770.514832 516.026550,766.499634 506.712646,769.521179 
	C498.009216,772.344788 492.851837,778.409363 491.579926,787.506897 
	C490.455444,795.549988 494.740234,804.140198 501.949005,808.112549 
	C510.513489,812.832092 518.811829,812.229431 527.185669,805.742920 
z"/>
<path fill="#F8FAFA" opacity="1.000000" stroke="none" 
	d="
M690.000244,281.480164 
	C698.811707,281.479645 707.123230,281.479645 715.738403,281.479645 
	C715.738403,436.926270 715.738403,591.972412 715.738403,747.346313 
	C580.592041,747.346313 445.517181,747.346313 310.117218,747.346313 
	C310.117218,592.204041 310.117218,437.136139 310.117218,281.480713 
	C436.620575,281.480713 563.060364,281.480713 690.000244,281.480164 
M695.072632,291.168152 
	C572.958557,291.176147 450.844452,291.177704 328.730347,291.204987 
	C319.613617,291.207031 319.274872,291.661377 319.537140,301.897308 
	C319.538635,314.887207 319.557281,327.877136 319.538818,340.867004 
	C319.439697,410.515228 319.296051,480.163391 319.236908,549.811646 
	C319.186371,609.298340 319.219696,668.785156 319.240662,728.271912 
	C319.243988,737.774048 319.318237,737.834167 328.597321,737.835266 
	C451.903137,737.850281 575.208923,737.853821 698.514771,737.850708 
	C705.835327,737.850525 706.135864,737.586060 706.136536,730.243835 
	C706.149109,586.942505 706.148376,443.641235 706.128784,300.339935 
	C706.127625,291.805267 704.980957,290.863953 695.072632,291.168152 
z"/>
<path fill="#FAFBFB" opacity="1.000000" stroke="none" 
	d="
M561.590820,247.112488 
	C567.754700,247.796112 570.484924,250.192856 570.340332,254.397095 
	C570.192749,258.685730 567.118469,261.151794 561.625427,261.155640 
	C529.150452,261.178436 496.675446,261.175415 464.200439,261.147125 
	C458.404388,261.142059 455.138763,258.547394 455.143250,254.166641 
	C455.147675,249.836517 458.549652,247.121246 464.212738,247.117508 
	C496.521210,247.096268 528.829712,247.109558 561.590820,247.112488 
z"/>
<path fill="#FCFCFC" opacity="1.000000" stroke="none" 
	d="
M526.900879,805.971375 
	C518.811829,812.229431 510.513489,812.832092 501.949005,808.112549 
	C494.740234,804.140198 490.455444,795.549988 491.579926,787.506897 
	C492.851837,778.409363 498.009216,772.344788 506.712646,769.521179 
	C516.026550,766.499634 526.163513,770.514832 531.304199,779.001526 
	C536.572205,787.698425 535.012085,797.828125 526.900879,805.971375 
z"/>
<path fill="#31CDCE" opacity="1.000000" stroke="none" 
	d="
M695.993835,291.347961 
	C704.980957,290.863953 706.127625,291.805267 706.128784,300.339935 
	C706.148376,443.641235 706.149109,586.942505 706.136536,730.243835 
	C706.135864,737.586060 705.835327,737.850525 698.514771,737.850708 
	C575.208923,737.853821 451.903137,737.850281 328.597321,737.835266 
	C319.318237,737.834167 319.243988,737.774048 319.240662,728.271912 
	C319.219696,668.785156 319.186371,609.298340 319.236908,549.811646 
	C319.296051,480.163391 319.439697,410.515228 319.538818,340.867004 
	C319.557281,327.877136 319.538635,314.887207 320.018829,301.455872 
	C322.927643,303.852234 325.153381,306.900299 327.836578,309.470764 
	C330.721191,312.234161 331.276459,318.844147 337.929688,316.456055 
	C338.037323,318.752014 338.084045,320.584930 338.084412,322.417816 
	C338.111786,452.245911 338.135468,582.073975 338.159393,711.902100 
	C338.159821,714.173401 338.159454,716.444641 338.159454,718.684937 
	C455.065338,718.684937 571.262756,718.684937 687.339478,718.684937 
	C687.339478,582.215576 687.339478,446.184723 687.339478,309.676483 
	C682.957764,309.676483 678.975281,309.676483 675.004272,309.307251 
	C676.260132,307.924164 677.377930,306.656036 678.779724,305.958618 
	C680.682495,305.011932 682.802551,304.501953 684.829407,303.804657 
	C684.822144,303.391754 684.814880,302.978851 684.807617,302.565948 
	C683.024231,301.763214 681.240845,300.960480 679.064636,299.980896 
	C683.928955,298.187592 688.385254,296.733673 692.657410,294.859955 
	C694.020752,294.261963 694.895508,292.550110 695.993835,291.347961 
z"/>
<path fill="#2ACFCD" opacity="1.000000" stroke="none" 
	d="
M695.533203,291.258057 
	C694.895508,292.550110 694.020752,294.261963 692.657410,294.859955 
	C688.385254,296.733673 683.928955,298.187592 679.064636,299.980896 
	C681.240845,300.960480 683.024231,301.763214 684.807617,302.565948 
	C684.814880,302.978851 684.822144,303.391754 684.829407,303.804657 
	C682.802551,304.501953 680.682495,305.011932 678.779724,305.958618 
	C677.377930,306.656036 676.260132,307.924164 674.542725,309.391541 
	C562.164246,309.845093 450.258759,309.845093 338.272797,309.845093 
	C338.097839,312.372162 337.972504,314.182587 337.847168,315.993011 
	C331.276459,318.844147 330.721191,312.234161 327.836578,309.470764 
	C325.153381,306.900299 322.927643,303.852234 320.106323,301.011597 
	C319.274872,291.661377 319.613617,291.207031 328.730347,291.204987 
	C450.844452,291.177704 572.958557,291.176147 695.533203,291.258057 
z"/>
<path fill="#FDFEFE" opacity="1.000000" stroke="none" 
	d="
M337.929688,316.456055 
	C337.972504,314.182587 338.097839,312.372162 338.272797,309.845093 
	C450.258759,309.845093 562.164246,309.845093 674.531250,309.760803 
	C678.975281,309.676483 682.957764,309.676483 687.339478,309.676483 
	C687.339478,446.184723 687.339478,582.215576 687.339478,718.684937 
	C571.262756,718.684937 455.065338,718.684937 338.159454,718.684937 
	C338.159454,716.444641 338.159821,714.173401 338.159393,711.902100 
	C338.135468,582.073975 338.111786,452.245911 338.084412,322.417816 
	C338.084045,320.584930 338.037323,318.752014 337.929688,316.456055 
M628.727844,528.205139 
	C630.736816,526.052063 632.745789,523.898987 634.674927,521.831482 
	C622.136475,509.588684 609.938965,497.678833 597.355469,485.392090 
	C559.173950,523.597656 520.575439,562.220520 480.965576,601.855347 
	C464.705627,584.877869 448.398773,567.851379 432.333008,551.076660 
	C419.130768,564.134644 406.859558,576.271729 394.422882,588.572449 
	C423.620728,617.400757 452.832275,646.242493 481.269562,674.319824 
	C530.031921,626.014465 579.136475,577.370056 628.727844,528.205139 
M605.500000,354.828979 
	C526.100037,354.828979 446.700073,354.828979 367.449127,354.828979 
	C367.449127,362.346680 367.449127,369.084290 367.449127,375.662567 
	C464.721954,375.662567 561.607178,375.662567 658.358521,375.662567 
	C658.358521,368.519165 658.358521,361.789337 658.358521,354.828766 
	C640.809143,354.828766 623.654602,354.828766 605.500000,354.828979 
M570.500000,416.063751 
	C502.774628,416.063751 435.049286,416.063751 367.463623,416.063751 
	C367.463623,423.620605 367.463623,430.362610 367.463623,437.117615 
	C464.588593,437.117615 561.352600,437.117615 658.342285,437.117615 
	C658.342285,429.991486 658.342285,423.114655 658.342285,416.063721 
	C629.131836,416.063721 600.315918,416.063721 570.500000,416.063751 
M447.500000,499.032196 
	C463.766144,499.032196 480.032288,499.032196 496.385498,499.032196 
	C496.385498,491.690430 496.385498,484.839508 496.385498,478.086182 
	C453.122192,478.086182 410.274536,478.086182 367.384094,478.086182 
	C367.384094,485.190430 367.384094,491.922729 367.384094,499.032990 
	C393.961945,499.032990 420.230988,499.032990 447.500000,499.032196 
z"/>
<path fill="#204161" opacity="1.000000" stroke="none" 
	d="
M628.484375,528.465393 
	C579.136475,577.370056 530.031921,626.014465 481.269562,674.319824 
	C452.832275,646.242493 423.620728,617.400757 394.422882,588.572449 
	C406.859558,576.271729 419.130768,564.134644 432.333008,551.076660 
	C448.398773,567.851379 464.705627,584.877869 480.965576,601.855347 
	C520.575439,562.220520 559.173950,523.597656 597.355469,485.392090 
	C609.938965,497.678833 622.136475,509.588684 634.674927,521.831482 
	C632.745789,523.898987 630.736816,526.052063 628.484375,528.465393 
z"/>
<path fill="#1E4060" opacity="1.000000" stroke="none" 
	d="
M606.000000,354.828857 
	C623.654602,354.828766 640.809143,354.828766 658.358521,354.828766 
	C658.358521,361.789337 658.358521,368.519165 658.358521,375.662567 
	C561.607178,375.662567 464.721954,375.662567 367.449127,375.662567 
	C367.449127,369.084290 367.449127,362.346680 367.449127,354.828979 
	C446.700073,354.828979 526.100037,354.828979 606.000000,354.828857 
z"/>
<path fill="#204261" opacity="1.000000" stroke="none" 
	d="
M571.000000,416.063721 
	C600.315918,416.063721 629.131836,416.063721 658.342285,416.063721 
	C658.342285,423.114655 658.342285,429.991486 658.342285,437.117615 
	C561.352600,437.117615 464.588593,437.117615 367.463623,437.117615 
	C367.463623,430.362610 367.463623,423.620605 367.463623,416.063751 
	C435.049286,416.063751 502.774628,416.063751 571.000000,416.063721 
z"/>
<path fill="#204161" opacity="1.000000" stroke="none" 
	d="
M447.000000,499.032593 
	C420.230988,499.032990 393.961945,499.032990 367.384094,499.032990 
	C367.384094,491.922729 367.384094,485.190430 367.384094,478.086182 
	C410.274536,478.086182 453.122192,478.086182 496.385498,478.086182 
	C496.385498,484.839508 496.385498,491.690430 496.385498,499.032196 
	C480.032288,499.032196 463.766144,499.032196 447.000000,499.032593 
z"/>
</svg>