<?xml version="1.0" standalone="no"?>
<!DOCTYPE svg PUBLIC "-//W3C//DTD SVG 20010904//EN"
 "http://www.w3.org/TR/2001/REC-SVG-20010904/DTD/svg10.dtd">
<svg version="1.0" xmlns="http://www.w3.org/2000/svg"
 width="1024.000000pt" height="1024.000000pt" viewBox="0 0 1024.000000 1024.000000"
 preserveAspectRatio="xMidYMid meet">

<g transform="translate(0.000000,1024.000000) scale(0.100000,-0.100000)"
fill="#000000" stroke="none">
<path d="M2880 6569 c-58 -4 -149 -13 -202 -19 l-98 -12 0 -1590 0 -1591 43 7
c241 35 314 40 632 40 248 0 369 -4 485 -17 473 -53 886 -166 1210 -332 57
-30 106 -52 108 -50 3 2 1 251 -3 553 l-7 550 -51 23 c-95 45 -203 173 -274
327 -42 91 -96 239 -113 310 -6 28 -15 52 -19 52 -3 0 -51 -11 -106 -25 -347
-88 -578 -70 -703 56 -39 39 -72 109 -72 155 0 14 -17 39 -45 65 -67 63 -81
130 -44 206 26 55 81 93 131 93 37 0 40 3 94 88 57 87 151 213 225 298 l39 45
-63 73 c-196 231 -337 499 -337 644 l0 49 -67 6 c-92 9 -632 6 -763 -4z"/>
<path d="M6585 6572 l-50 -7 -6 -65 c-4 -36 -16 -91 -28 -123 -20 -58 -20 -59
-1 -80 11 -11 23 -36 26 -54 22 -118 -54 -213 -169 -213 -37 0 -48 -5 -61 -25
-9 -13 -50 -65 -91 -114 l-76 -90 87 -103 c158 -189 246 -337 294 -496 29 -94
25 -225 -7 -287 -25 -46 -84 -106 -128 -128 -123 -62 -347 -63 -583 -2 -79 20
-146 35 -148 33 -2 -3 -15 -44 -29 -94 -32 -111 -88 -252 -128 -324 -76 -139
-184 -250 -274 -281 l-33 -11 0 -555 c0 -305 3 -553 8 -551 4 2 53 27 110 56
465 238 1129 368 1789 348 205 -6 465 -28 530 -45 17 -5 34 -6 37 -3 10 9 7
3170 -3 3176 -5 3 -65 13 -133 22 -131 16 -835 28 -933 16z"/>
<path d="M3815 6518 c28 -167 125 -350 289 -546 l78 -92 122 112 c66 62 138
127 159 145 36 31 37 35 47 130 6 54 13 110 16 125 5 25 2 28 -61 47 -94 29
-329 77 -470 95 -66 9 -135 19 -153 22 l-34 5 7 -43z"/>
<path d="M6280 6539 c-178 -22 -411 -70 -535 -109 l-30 -10 13 -128 14 -127
42 -35 c22 -19 94 -83 158 -143 l117 -108 57 68 c31 37 67 84 80 104 l24 36
-21 47 c-24 56 -20 107 15 158 28 42 91 78 138 78 35 0 37 2 52 48 20 63 29
129 19 134 -4 3 -69 -3 -143 -13z"/>
<path d="M4626 6358 c-3 -17 -6 -45 -6 -64 l0 -33 60 41 c33 23 59 43 57 44
-1 1 -25 11 -53 23 l-52 20 -6 -31z"/>
<path d="M5552 6368 c-30 -11 -50 -23 -45 -27 15 -13 113 -81 116 -81 4 0 -12
122 -16 126 -1 1 -26 -7 -55 -18z"/>
<path d="M4745 6219 c-156 -111 -141 -84 -150 -275 -4 -91 -4 -227 0 -303 l7
-138 82 -61 c88 -65 218 -150 309 -201 l57 -32 0 109 0 110 -62 23 c-86 31
-175 120 -208 204 -67 176 10 379 175 456 33 16 68 29 77 29 25 0 32 19 14 39
-13 15 -186 112 -197 111 -2 0 -49 -32 -104 -71z"/>
<path d="M5306 6249 c-131 -76 -148 -93 -98 -105 51 -13 137 -62 174 -101 89
-92 123 -255 79 -374 -42 -111 -112 -180 -223 -220 l-58 -22 0 -108 c0 -60 4
-109 8 -109 23 0 319 192 432 279 l25 20 0 297 0 297 -38 31 c-68 55 -212 156
-222 155 -5 0 -41 -18 -79 -40z"/>
<path d="M2175 6116 c-16 -8 -43 -28 -60 -45 l-30 -32 -3 -1538 -2 -1538 22
-34 c13 -19 43 -44 68 -56 l44 -23 1221 0 1220 0 24 -35 c13 -20 45 -51 71
-70 100 -73 209 -105 361 -106 182 0 320 46 418 143 28 27 51 54 51 59 0 5
494 9 1223 9 l1223 0 44 23 c25 12 55 37 67 56 l23 34 0 1527 0 1527 -22 33
c-46 67 -66 75 -204 78 l-124 4 0 -1481 c0 -815 -4 -1481 -8 -1481 -4 0 -49 9
-99 20 -224 49 -459 70 -772 70 -633 0 -1233 -125 -1649 -341 -155 -80 -170
-80 -341 6 -208 105 -422 178 -701 239 -336 74 -509 90 -945 90 -379 0 -498
-9 -715 -55 -52 -11 -107 -23 -122 -26 l-28 -6 0 1482 0 1481 -112 0 c-72 -1
-124 -6 -143 -14z"/>
<path d="M4371 5912 l-114 -107 108 -103 c60 -56 113 -102 117 -102 4 0 8 95
8 210 0 116 -1 210 -3 210 -1 0 -54 -48 -116 -108z"/>
<path d="M5750 5804 l0 -218 48 44 c26 25 77 74 114 110 l68 64 -38 39 c-20
21 -72 70 -114 109 l-78 70 0 -218z"/>
<path d="M4127 5661 c-96 -104 -255 -341 -229 -341 16 0 52 -82 52 -118 0 -65
-45 -132 -107 -158 -29 -12 -31 -16 -23 -42 20 -71 65 -114 142 -137 74 -22
244 -20 365 4 97 20 230 55 238 63 3 2 -4 56 -15 119 -11 63 -27 177 -36 254
-8 77 -19 143 -22 146 -4 4 -41 35 -82 70 -41 35 -107 94 -146 132 -39 37 -74
67 -77 67 -2 0 -30 -27 -60 -59z"/>
<path d="M5975 5653 c-38 -36 -107 -97 -151 -135 l-82 -68 -7 -68 c-3 -37 -18
-146 -32 -242 -14 -96 -26 -184 -26 -194 -2 -17 15 -24 123 -53 265 -70 455
-65 559 14 117 90 67 341 -120 593 -67 91 -177 220 -187 220 -4 -1 -38 -31
-77 -67z"/>
<path d="M5549 5308 c-41 -28 -128 -84 -193 -125 l-120 -73 90 -41 c117 -54
235 -101 241 -95 8 8 66 386 59 386 -2 0 -36 -23 -77 -52z"/>
<path d="M4624 5278 c7 -77 42 -298 49 -304 4 -4 157 58 261 106 l69 31 -105
64 c-58 34 -139 85 -179 112 -41 27 -80 53 -88 58 -12 7 -13 -4 -7 -67z"/>
<path d="M4885 4939 c-88 -38 -166 -69 -172 -69 -19 0 -16 -18 22 -147 40
-133 125 -313 182 -388 21 -27 58 -65 83 -83 l45 -35 3 202 c1 111 1 289 0
395 l-3 193 -160 -68z"/>
<path d="M5180 4615 c0 -217 4 -395 9 -395 4 0 31 18 59 41 102 81 199 262
267 499 25 89 26 95 9 107 -10 7 -22 13 -27 13 -6 0 -76 29 -158 65 -81 36
-150 65 -153 65 -3 0 -6 -178 -6 -395z"/>
</g>
</svg>
