<svg version="1.1" id="Layer_1" xmlns="http://www.w3.org/2000/svg" xmlns:xlink="http://www.w3.org/1999/xlink" x="0px" y="0px"
	 width="100%" viewBox="0 0 1024 1024" enable-background="new 0 0 1024 1024" xml:space="preserve">
<path fill="#FEFFFF" opacity="1.000000" stroke="none" 
	d="
M447.000000,1025.000000 
	C298.000000,1025.000000 149.500000,1025.000000 1.000000,1025.000000 
	C1.000000,683.666687 1.000000,342.333344 1.000000,1.000000 
	C342.333344,1.000000 683.666687,1.000000 1025.000000,1.000000 
	C1025.000000,342.333344 1025.000000,683.666687 1025.000000,1025.000000 
	C832.500000,1025.000000 640.000000,1025.000000 447.000000,1025.000000 
M667.446533,470.690247 
	C656.912231,479.330566 646.360168,487.949585 635.882385,496.657837 
	C635.165710,497.253448 634.477539,498.641296 634.668152,499.450653 
	C636.171570,505.834503 637.892090,512.167175 639.545776,518.515625 
	C640.065491,518.678955 640.585266,518.842224 641.104980,519.005554 
	C650.072876,503.009064 659.040710,487.012573 668.331482,470.783142 
	C668.344177,470.542419 668.356812,470.301666 668.369507,470.060974 
	C668.243347,470.125977 668.011414,470.188171 668.009644,470.256439 
	C668.002441,470.526306 668.067383,470.798035 667.446533,470.690247 
M419.360443,445.122009 
	C437.187744,460.148132 454.966522,475.232635 472.898499,490.132721 
	C475.374237,492.189789 475.693024,494.042969 474.932251,496.922577 
	C470.641174,513.165161 466.479889,529.442322 462.336975,545.723633 
	C458.973511,558.941772 455.725708,572.189331 452.366272,585.408508 
	C451.428284,589.099426 451.763672,592.466919 454.834656,594.948608 
	C458.050140,597.547058 461.592560,597.368896 465.095215,595.344788 
	C466.104095,594.761719 467.110962,594.173645 468.098877,593.556030 
	C492.938080,578.027527 517.808350,562.548035 542.568176,546.893860 
	C545.605225,544.973694 547.701416,544.648804 550.960571,546.711182 
	C576.130798,562.638672 601.469666,578.299377 626.732178,594.081238 
	C630.570374,596.479004 634.481323,598.483704 638.735840,595.421570 
	C642.855713,592.456116 642.066528,588.287964 640.998535,584.072876 
	C633.644104,555.045410 626.412415,525.986694 618.945984,496.988220 
	C618.135010,493.838348 618.382324,492.044678 621.026123,489.845886 
	C644.452393,470.362976 667.715637,450.684052 691.055603,431.097076 
	C694.302185,428.372528 696.810974,425.461487 695.256042,420.834015 
	C693.718323,416.257782 690.065308,415.265045 685.784851,415.065887 
	C655.176453,413.641388 624.572327,412.120483 593.960815,410.767303 
	C591.044189,410.638367 589.452148,409.781433 588.458069,406.961029 
	C586.136353,400.373596 583.525391,393.887726 581.009399,387.369263 
	C572.382385,365.018311 563.777405,342.658752 555.093811,320.329803 
	C552.489746,313.633575 545.842346,311.437378 541.343628,315.859802 
	C539.770935,317.405884 538.781921,319.710114 537.966064,321.836823 
	C527.181641,349.947021 516.437500,378.072876 505.802551,406.239899 
	C504.586212,409.461487 502.973328,410.857483 499.326721,410.893219 
	C490.341583,410.981293 481.360413,411.581085 472.380035,412.023376 
	C450.760071,413.088165 429.141693,414.185791 407.522095,415.257294 
	C403.423309,415.460449 399.915405,416.640778 398.456360,420.936493 
	C397.068146,425.023590 398.962555,428.008453 401.981842,430.537445 
	C407.598358,435.241882 413.208221,439.954163 419.360443,445.122009 
M650.723816,394.171722 
	C650.181702,395.639801 649.639587,397.107910 648.959229,398.950348 
	C666.235168,400.018250 682.930237,401.050262 700.328674,402.125732 
	C704.009521,392.633026 708.017090,382.297668 712.256226,371.365326 
	C713.436401,373.069824 714.299927,374.233185 715.076477,375.451935 
	C721.427795,385.419800 727.697632,395.440704 734.168640,405.330048 
	C735.221680,406.939270 737.143127,407.980286 738.663147,409.283936 
	C739.373596,407.410065 740.618530,405.562500 740.712402,403.658234 
	C741.720886,383.192810 742.455200,362.713928 743.447510,342.247620 
	C744.738098,315.626434 746.226318,289.014832 747.500916,262.392944 
	C747.578735,260.767517 746.960938,258.608093 745.848145,257.608490 
	C745.147339,256.979004 742.705322,257.671478 741.409241,258.410583 
	C701.207581,281.335876 661.045166,304.329987 620.917419,327.384460 
	C619.792969,328.030487 619.113464,329.450806 618.226440,330.510040 
	C619.451294,331.221649 620.618713,332.405060 621.911072,332.562347 
	C627.198730,333.205963 632.535156,333.437164 637.834045,334.003082 
	C648.526611,335.145050 659.206421,336.406311 671.262024,337.773804 
	C664.281677,356.935211 657.633423,375.184906 650.723816,394.171722 
M520.227051,603.713379 
	C452.101440,681.870483 370.371399,742.613892 279.652039,792.042542 
	C328.199432,776.628479 373.741699,754.593079 417.688660,729.207703 
	C482.835297,691.576538 541.400146,645.737061 591.430420,588.440735 
	C577.900757,580.196716 565.024536,572.350830 552.427002,564.674744 
	C541.619385,577.800964 531.164429,590.498901 520.227051,603.713379 
M435.330292,632.761414 
	C439.212891,640.722656 447.690430,642.325134 452.217590,635.953552 
	C454.779419,632.348022 454.825439,627.163696 452.057892,623.915344 
	C449.221283,620.585876 445.570618,619.440918 441.330475,620.873352 
	C436.856232,622.384888 434.944366,625.891296 435.330292,632.761414 
M425.854675,661.522888 
	C429.348602,659.071716 431.219482,655.532959 429.595795,651.659729 
	C428.519714,649.092834 425.963837,646.459106 423.420166,645.359558 
	C419.831848,643.808472 416.210480,645.271667 413.988220,648.816406 
	C411.845856,652.233704 411.836853,655.849487 414.191071,659.084229 
	C416.974670,662.908936 420.786285,663.827087 425.854675,661.522888 
M402.929840,682.391479 
	C406.734406,677.317810 406.111847,671.643799 401.373352,669.413513 
	C397.836456,667.748840 394.493011,668.265320 391.975952,671.389587 
	C389.502014,674.460327 389.396301,677.874084 391.802887,681.009583 
	C394.671722,684.747314 398.336182,685.159668 402.929840,682.391479 
M378.858185,702.657166 
	C379.605438,701.396240 380.747955,700.215698 381.023621,698.859009 
	C381.759674,695.236267 380.581177,692.299133 376.936798,690.814514 
	C373.456268,689.396790 370.718994,690.645752 368.863678,693.641724 
	C366.826477,696.931458 367.326965,700.497253 370.462463,702.379883 
	C372.469910,703.585205 375.600830,702.919250 378.858185,702.657166 
M347.678741,712.212646 
	C347.265350,714.769470 346.059662,717.565369 346.732208,719.794556 
	C347.143555,721.157776 350.449097,722.395020 352.438202,722.369995 
	C355.929138,722.326111 357.923523,718.568604 356.965271,714.991699 
	C355.945007,711.183411 353.185852,710.171936 347.678741,712.212646 
M331.956970,737.578186 
	C331.382629,735.373230 331.188049,732.936768 330.052277,731.074158 
	C329.579437,730.298706 326.875366,730.207092 325.579712,730.747925 
	C322.683838,731.956848 321.684418,734.681519 323.282745,737.317200 
	C325.407806,740.821533 328.457703,741.123901 331.956970,737.578186 
M307.396942,751.231934 
	C305.784729,750.518677 304.184784,749.364258 302.553986,749.318909 
	C301.939087,749.301697 300.670990,751.903870 300.788910,753.214050 
	C300.878052,754.204590 303.304016,755.994080 303.640594,755.779785 
	C305.167999,754.807251 306.323212,753.250122 307.396942,751.231934 
z"/>
<path fill="#0F4678" opacity="1.000000" stroke="none" 
	d="
M419.090637,444.892609 
	C413.208221,439.954163 407.598358,435.241882 401.981842,430.537445 
	C398.962555,428.008453 397.068146,425.023590 398.456360,420.936493 
	C399.915405,416.640778 403.423309,415.460449 407.522095,415.257294 
	C429.141693,414.185791 450.760071,413.088165 472.380035,412.023376 
	C481.360413,411.581085 490.341583,410.981293 499.326721,410.893219 
	C502.973328,410.857483 504.586212,409.461487 505.802551,406.239899 
	C516.437500,378.072876 527.181641,349.947021 537.966064,321.836823 
	C538.781921,319.710114 539.770935,317.405884 541.343628,315.859802 
	C545.842346,311.437378 552.489746,313.633575 555.093811,320.329803 
	C563.777405,342.658752 572.382385,365.018311 581.009399,387.369263 
	C583.525391,393.887726 586.136353,400.373596 588.458069,406.961029 
	C589.452148,409.781433 591.044189,410.638367 593.960815,410.767303 
	C624.572327,412.120483 655.176453,413.641388 685.784851,415.065887 
	C690.065308,415.265045 693.718323,416.257782 695.256042,420.834015 
	C696.810974,425.461487 694.302185,428.372528 691.055603,431.097076 
	C667.715637,450.684052 644.452393,470.362976 621.026123,489.845886 
	C618.382324,492.044678 618.135010,493.838348 618.945984,496.988220 
	C626.412415,525.986694 633.644104,555.045410 640.998535,584.072876 
	C642.066528,588.287964 642.855713,592.456116 638.735840,595.421570 
	C634.481323,598.483704 630.570374,596.479004 626.732178,594.081238 
	C601.469666,578.299377 576.130798,562.638672 550.960571,546.711182 
	C547.701416,544.648804 545.605225,544.973694 542.568176,546.893860 
	C517.808350,562.548035 492.938080,578.027527 468.098877,593.556030 
	C467.110962,594.173645 466.104095,594.761719 465.095215,595.344788 
	C461.592560,597.368896 458.050140,597.547058 454.834656,594.948608 
	C451.763672,592.466919 451.428284,589.099426 452.366272,585.408508 
	C455.725708,572.189331 458.973511,558.941772 462.336975,545.723633 
	C466.479889,529.442322 470.641174,513.165161 474.932251,496.922577 
	C475.693024,494.042969 475.374237,492.189789 472.898499,490.132721 
	C454.966522,475.232635 437.187744,460.148132 419.090637,444.892609 
z"/>
<path fill="#05C1C8" opacity="1.000000" stroke="none" 
	d="
M650.854492,393.803162 
	C657.633423,375.184906 664.281677,356.935211 671.262024,337.773804 
	C659.206421,336.406311 648.526611,335.145050 637.834045,334.003082 
	C632.535156,333.437164 627.198730,333.205963 621.911072,332.562347 
	C620.618713,332.405060 619.451294,331.221649 618.226440,330.510040 
	C619.113464,329.450806 619.792969,328.030487 620.917419,327.384460 
	C661.045166,304.329987 701.207581,281.335876 741.409241,258.410583 
	C742.705322,257.671478 745.147339,256.979004 745.848145,257.608490 
	C746.960938,258.608093 747.578735,260.767517 747.500916,262.392944 
	C746.226318,289.014832 744.738098,315.626434 743.447510,342.247620 
	C742.455200,362.713928 741.720886,383.192810 740.712402,403.658234 
	C740.618530,405.562500 739.373596,407.410065 738.663147,409.283936 
	C737.143127,407.980286 735.221680,406.939270 734.168640,405.330048 
	C727.697632,395.440704 721.427795,385.419800 715.076477,375.451935 
	C714.299927,374.233185 713.436401,373.069824 712.256226,371.365326 
	C708.017090,382.297668 704.009521,392.633026 700.328674,402.125732 
	C682.930237,401.050262 666.235168,400.018250 648.959229,398.950348 
	C649.639587,397.107910 650.181702,395.639801 650.854492,393.803162 
z"/>
<path fill="#05C1C8" opacity="1.000000" stroke="none" 
	d="
M520.468262,603.455078 
	C531.164429,590.498901 541.619385,577.800964 552.427002,564.674744 
	C565.024536,572.350830 577.900757,580.196716 591.430420,588.440735 
	C541.400146,645.737061 482.835297,691.576538 417.688660,729.207703 
	C373.741699,754.593079 328.199432,776.628479 279.652039,792.042542 
	C370.371399,742.613892 452.101440,681.870483 520.468262,603.455078 
z"/>
<path fill="#05C1C8" opacity="1.000000" stroke="none" 
	d="
M668.008606,471.016083 
	C659.040710,487.012573 650.072876,503.009064 641.104980,519.005554 
	C640.585266,518.842224 640.065491,518.678955 639.545776,518.515625 
	C637.892090,512.167175 636.171570,505.834503 634.668152,499.450653 
	C634.477539,498.641296 635.165710,497.253448 635.882385,496.657837 
	C646.360168,487.949585 656.912231,479.330566 667.751709,470.866577 
	C668.056946,471.042938 668.008606,471.016083 668.008606,471.016083 
z"/>
<path fill="#05C1C8" opacity="1.000000" stroke="none" 
	d="
M435.237061,632.374390 
	C434.944366,625.891296 436.856232,622.384888 441.330475,620.873352 
	C445.570618,619.440918 449.221283,620.585876 452.057892,623.915344 
	C454.825439,627.163696 454.779419,632.348022 452.217590,635.953552 
	C447.690430,642.325134 439.212891,640.722656 435.237061,632.374390 
z"/>
<path fill="#05C1C8" opacity="1.000000" stroke="none" 
	d="
M425.521057,661.717529 
	C420.786285,663.827087 416.974670,662.908936 414.191071,659.084229 
	C411.836853,655.849487 411.845856,652.233704 413.988220,648.816406 
	C416.210480,645.271667 419.831848,643.808472 423.420166,645.359558 
	C425.963837,646.459106 428.519714,649.092834 429.595795,651.659729 
	C431.219482,655.532959 429.348602,659.071716 425.521057,661.717529 
z"/>
<path fill="#05C1C8" opacity="1.000000" stroke="none" 
	d="
M402.648834,682.619934 
	C398.336182,685.159668 394.671722,684.747314 391.802887,681.009583 
	C389.396301,677.874084 389.502014,674.460327 391.975952,671.389587 
	C394.493011,668.265320 397.836456,667.748840 401.373352,669.413513 
	C406.111847,671.643799 406.734406,677.317810 402.648834,682.619934 
z"/>
<path fill="#05C1C8" opacity="1.000000" stroke="none" 
	d="
M378.543152,702.874634 
	C375.600830,702.919250 372.469910,703.585205 370.462463,702.379883 
	C367.326965,700.497253 366.826477,696.931458 368.863678,693.641724 
	C370.718994,690.645752 373.456268,689.396790 376.936798,690.814514 
	C380.581177,692.299133 381.759674,695.236267 381.023621,698.859009 
	C380.747955,700.215698 379.605438,701.396240 378.543152,702.874634 
z"/>
<path fill="#05C1C8" opacity="1.000000" stroke="none" 
	d="
M347.971008,712.007141 
	C353.185852,710.171936 355.945007,711.183411 356.965271,714.991699 
	C357.923523,718.568604 355.929138,722.326111 352.438202,722.369995 
	C350.449097,722.395020 347.143555,721.157776 346.732208,719.794556 
	C346.059662,717.565369 347.265350,714.769470 347.971008,712.007141 
z"/>
<path fill="#05C1C8" opacity="1.000000" stroke="none" 
	d="
M331.764343,737.896606 
	C328.457703,741.123901 325.407806,740.821533 323.282745,737.317200 
	C321.684418,734.681519 322.683838,731.956848 325.579712,730.747925 
	C326.875366,730.207092 329.579437,730.298706 330.052277,731.074158 
	C331.188049,732.936768 331.382629,735.373230 331.764343,737.896606 
z"/>
<path fill="#05C1C8" opacity="1.000000" stroke="none" 
	d="
M307.504639,751.567688 
	C306.323212,753.250122 305.167999,754.807251 303.640594,755.779785 
	C303.304016,755.994080 300.878052,754.204590 300.788910,753.214050 
	C300.670990,751.903870 301.939087,749.301697 302.553986,749.318909 
	C304.184784,749.364258 305.784729,750.518677 307.504639,751.567688 
z"/>
<path fill="#05C1C8" opacity="1.000000" stroke="none" 
	d="
M668.081299,471.056030 
	C668.067383,470.798035 668.002441,470.526306 668.009644,470.256439 
	C668.011414,470.188171 668.243347,470.125977 668.369507,470.060974 
	C668.356812,470.301666 668.344177,470.542419 668.170044,470.899597 
	C668.008606,471.016083 668.056946,471.042938 668.081299,471.056030 
z"/>
</svg>