<?xml version="1.0" standalone="no"?>
<!DOCTYPE svg PUBLIC "-//W3C//DTD SVG 20010904//EN"
 "http://www.w3.org/TR/2001/REC-SVG-20010904/DTD/svg10.dtd">
<svg version="1.0" xmlns="http://www.w3.org/2000/svg"
 width="1024.000000pt" height="1024.000000pt" viewBox="0 0 1024.000000 1024.000000"
 preserveAspectRatio="xMidYMid meet">

<g transform="translate(0.000000,1024.000000) scale(0.100000,-0.100000)"
fill="#000000" stroke="none">
<path d="M4785 8519 c-925 -146 -1643 -884 -1749 -1800 -48 -405 17 -784 193
-1144 84 -171 159 -284 287 -435 267 -316 399 -559 479 -880 36 -144 46 -227
54 -440 9 -237 19 -266 117 -360 l63 -61 808 1 c444 0 850 3 901 7 l93 6 54
54 c89 89 97 115 106 337 21 536 156 882 514 1311 147 176 219 284 305 457
351 708 256 1568 -243 2188 -337 418 -814 689 -1349 765 -151 21 -479 18 -633
-6z m305 -204 c34 -18 60 -62 60 -102 0 -36 -33 -89 -59 -98 -21 -6 -21 -11
-21 -358 l0 -352 130 -130 130 -130 0 -325 0 -325 -200 -200 -200 -200 0 -167
0 -168 -30 0 -30 0 0 178 0 177 200 200 200 200 0 305 0 305 -130 130 -130
130 0 358 0 358 -35 33 c-30 29 -35 40 -35 78 0 90 76 141 150 103z m803 -126
c39 -30 54 -87 33 -127 -9 -18 -28 -39 -41 -48 l-25 -16 0 -501 0 -502 95 95
95 95 0 316 0 316 -25 13 c-13 7 -32 29 -41 48 -14 29 -14 41 -5 74 13 42 58
78 99 78 56 0 112 -56 112 -112 0 -31 -37 -89 -61 -95 -18 -5 -19 -17 -19
-334 l0 -329 -125 -121 -125 -122 0 -150 0 -150 214 209 214 209 1 149 1 149
-37 32 c-34 29 -38 38 -38 80 0 40 5 51 33 76 45 40 99 40 144 0 28 -25 33
-36 33 -76 0 -42 -4 -51 -37 -80 l-38 -32 0 -157 0 -158 -560 -561 -560 -562
0 -1152 0 -1153 -30 0 -30 0 0 1165 0 1166 315 317 315 317 0 718 0 718 -40
38 c-42 39 -49 66 -31 114 25 66 110 90 164 46z m-1570 -89 c31 -24 50 -78 41
-114 -3 -14 -21 -39 -40 -56 l-34 -29 0 -488 0 -488 40 -17 c80 -33 90 -144
17 -188 -38 -24 -68 -25 -107 -5 -64 33 -80 109 -35 163 l25 30 0 498 0 499
-29 20 c-52 34 -65 93 -34 145 9 16 26 33 37 39 35 17 91 13 119 -9z m1004
-180 c45 -27 62 -84 39 -132 -9 -19 -28 -41 -41 -48 -25 -13 -25 -14 -25 -166
l0 -153 120 -113 120 -113 0 -229 0 -229 25 -23 c51 -47 23 -111 -53 -121 -34
-5 -42 -2 -60 22 -29 36 -28 61 3 89 l25 23 0 219 0 219 -120 120 -120 120 0
161 0 161 -26 13 c-29 16 -54 58 -54 92 0 13 9 38 20 56 33 53 91 66 147 32z
m-585 -44 c28 -17 51 -74 44 -109 -7 -34 -42 -77 -63 -77 -10 0 -13 -41 -13
-203 l0 -202 130 -123 130 -123 0 -163 c0 -162 0 -163 25 -176 34 -18 58 -74
51 -115 -13 -70 -107 -109 -164 -69 -25 17 -52 64 -52 89 0 30 30 82 55 95 25
13 25 15 25 159 l0 146 -130 130 -130 130 0 205 0 205 -35 28 c-108 86 10 247
127 173z m846 -26 c50 -47 23 -140 -40 -140 -39 0 -48 -28 -48 -147 l0 -96
100 -102 100 -101 0 -344 0 -344 -310 -311 -310 -311 0 -167 0 -167 -30 0 -30
0 0 176 0 176 310 316 310 315 0 315 0 315 -100 107 -100 108 0 129 c0 116 2
132 20 148 15 13 17 22 10 36 -15 28 -12 54 11 83 26 33 75 35 107 6z m-1778
-75 c41 -21 60 -53 60 -101 0 -40 -27 -85 -58 -95 -8 -3 -12 -78 -12 -268 l-1
-264 82 -83 c45 -46 86 -81 91 -78 4 3 8 100 8 215 l0 209 -26 12 c-59 27 -72
117 -25 170 25 28 36 33 76 33 40 0 51 -5 76 -33 23 -25 29 -42 29 -76 0 -46
-29 -96 -55 -96 -12 0 -15 -45 -17 -252 l-3 -253 323 -322 322 -321 0 -258 0
-258 140 -134 140 -134 0 -580 0 -580 -40 -40 -40 -40 0 -279 0 -279 -30 0
c-22 0 -30 5 -30 18 0 9 0 141 0 292 l1 275 39 40 40 41 0 550 0 549 -444 444
c-364 364 -448 442 -463 436 -62 -27 -112 -14 -143 38 -24 38 -25 76 -6 103
14 18 10 24 -57 92 l-71 72 -120 0 -119 0 -32 -37 c-29 -33 -38 -38 -78 -38
-132 0 -150 187 -21 211 40 7 93 -19 109 -54 9 -21 15 -22 145 -22 l135 0 85
-85 c66 -67 91 -85 113 -85 62 0 107 -46 107 -109 0 -24 45 -73 288 -312 l287
-282 3 209 2 208 -441 442 -441 441 1 267 2 266 -41 38 c-34 33 -40 45 -40 79
0 84 78 135 150 98z m700 -175 c33 -24 54 -77 44 -114 -3 -14 -21 -39 -40 -56
-33 -28 -34 -32 -34 -102 l0 -73 92 -92 92 -92 -3 -92 -2 -91 40 -37 c36 -33
41 -44 41 -80 0 -59 -50 -111 -105 -111 -55 0 -105 52 -105 110 0 35 6 48 35
77 34 34 35 36 35 118 l0 83 -90 90 -90 90 0 89 c0 87 -1 89 -29 106 -60 36
-66 124 -10 171 38 32 90 34 129 6z m2179 -321 c25 -25 31 -39 31 -73 0 -47
-26 -90 -60 -101 -18 -6 -20 -15 -20 -85 0 -74 -2 -81 -25 -96 -14 -9 -25 -20
-25 -25 0 -5 49 -9 108 -9 l108 0 23 31 c57 76 164 67 191 -17 25 -74 -25
-144 -102 -144 -35 0 -47 6 -79 40 l-38 40 -164 0 -165 0 -35 -43 c-27 -33
-35 -52 -34 -80 1 -47 -36 -88 -83 -92 -28 -2 -82 -52 -395 -365 -359 -358
-363 -364 -348 -387 34 -52 -12 -133 -77 -133 -27 0 -47 -9 -78 -36 l-42 -36
0 -81 0 -82 463 463 462 462 123 0 123 0 38 40 c28 30 46 40 69 40 69 0 112
-44 112 -115 0 -52 -46 -95 -102 -95 -32 0 -47 7 -76 36 l-35 35 -116 0 -115
1 -201 -204 -200 -203 150 -3 150 -3 78 86 79 85 207 0 208 0 11 26 c18 38 76
59 124 44 42 -12 78 -57 78 -98 0 -55 -56 -112 -110 -112 -30 0 -76 29 -91 57
-12 23 -14 23 -204 23 l-193 0 -83 -86 -84 -85 -193 2 -192 3 -240 -241 -240
-241 0 -276 0 -276 33 -13 c68 -29 90 -81 52 -125 l-25 -30 0 -556 0 -556 -30
0 -30 0 0 553 0 552 -30 17 -30 17 0 481 0 482 47 42 c44 40 47 45 47 95 1 45
5 56 30 77 16 14 35 22 45 19 13 -4 115 93 382 362 l365 368 -4 47 c-3 41 -1
50 23 73 19 17 39 25 64 25 31 0 45 8 86 50 37 37 57 50 78 50 22 0 39 11 68
43 35 38 38 47 39 99 0 48 -3 58 -20 63 -31 10 -60 54 -60 92 0 101 110 151
179 82z m-1856 -839 c56 -44 52 -137 -7 -175 l-26 -17 0 -238 0 -237 140 -137
140 -137 0 -954 0 -955 -30 0 -30 0 0 943 0 942 -140 140 -140 140 0 243 0
243 -40 38 c-54 51 -56 97 -6 147 41 41 97 47 139 14z m-1237 -586 l31 -34
289 0 290 0 312 -312 312 -313 0 -372 0 -371 -55 -53 -55 -52 0 -379 0 -378
-30 0 -30 0 0 388 0 388 55 54 55 54 0 351 0 350 -292 292 -293 293 -280 0
-281 0 -17 -29 c-49 -83 -178 -55 -193 41 -12 71 52 135 121 122 17 -3 44 -21
61 -40z m3258 26 c30 -11 66 -65 66 -98 0 -13 -8 -37 -17 -52 -41 -70 -143
-72 -185 -3 l-15 26 -324 4 -324 5 -228 -231 -227 -230 0 -855 0 -856 -30 0
-30 0 0 868 0 867 241 243 241 242 334 0 335 0 38 40 c40 42 73 50 125 30z
m-381 -311 c38 -19 57 -51 57 -97 0 -84 -85 -129 -160 -85 -16 9 -33 27 -39
40 l-11 24 -148 -3 -147 -3 -127 -129 -128 -129 0 -798 0 -799 -30 0 -30 0 0
812 0 813 142 142 143 143 162 0 c158 0 163 1 174 23 27 52 90 72 142 46z
m-2382 -39 l38 -40 101 0 100 0 0 -99 0 -98 180 -174 180 -174 0 -89 0 -89
-65 -62 -65 -63 0 -526 0 -526 -30 0 -30 0 0 538 0 538 65 64 65 64 0 61 0 60
-180 180 -180 180 0 77 0 78 -74 0 c-71 0 -75 -1 -109 -35 -47 -47 -101 -49
-149 -6 -28 25 -33 36 -33 76 0 40 5 51 33 76 25 22 42 29 74 29 35 0 47 -6
79 -40z m123 -541 c32 -15 58 -68 50 -105 -4 -25 3 -37 60 -94 l66 -64 0 -568
0 -568 -30 0 -30 0 0 557 0 557 -52 53 c-47 48 -57 53 -96 53 -93 0 -139 107
-71 164 33 28 64 32 103 15z m1955 -3 c57 -30 68 -107 22 -158 -26 -30 -35
-33 -85 -33 -54 0 -57 -1 -116 -60 l-60 -59 0 -543 0 -543 -30 0 -30 0 0 557
0 558 72 72 c68 69 72 75 69 113 -2 35 2 45 32 75 39 39 78 45 126 21z"/>
<path d="M5006 8254 c-40 -40 7 -109 59 -86 32 15 41 47 21 77 -19 29 -57 33
-80 9z"/>
<path d="M5790 8140 c-11 -11 -20 -27 -20 -35 0 -21 36 -55 59 -55 46 0 67 62
33 93 -25 22 -48 21 -72 -3z"/>
<path d="M6041 7956 c-35 -42 20 -111 63 -82 35 23 41 42 23 70 -20 29 -66 36
-86 12z"/>
<path d="M6286 7484 c-21 -21 -20 -57 2 -77 36 -32 85 -10 85 38 0 48 -55 72
-87 39z"/>
<path d="M4220 8050 c-24 -24 -25 -38 -4 -68 17 -24 62 -30 82 -10 17 17 15
64 -4 82 -21 22 -50 20 -74 -4z"/>
<path d="M4250 6850 c-34 -34 -20 -75 31 -93 49 -17 81 67 37 97 -30 21 -44
20 -68 -4z"/>
<path d="M5248 7879 c-52 -30 -37 -99 22 -99 60 0 74 71 20 100 -22 12 -21 12
-42 -1z"/>
<path d="M4642 7828 c-21 -21 -14 -66 12 -83 28 -19 58 -9 76 26 25 45 -51 94
-88 57z"/>
<path d="M4902 6648 c-18 -18 -14 -63 8 -83 45 -41 110 18 76 70 -18 27 -63
34 -84 13z"/>
<path d="M3725 7710 c-41 -45 18 -110 70 -76 27 18 34 63 13 84 -18 18 -63 14
-83 -8z"/>
<path d="M3965 7450 c-41 -46 29 -116 75 -75 22 20 27 64 8 83 -19 19 -63 14
-83 -8z"/>
<path d="M3322 6608 c-25 -25 -6 -84 28 -88 35 -5 51 2 62 25 18 40 -3 75 -45
75 -18 0 -38 -5 -45 -12z"/>
<path d="M3900 6360 c-11 -11 -20 -27 -20 -35 0 -18 35 -55 53 -55 22 0 57 31
57 51 0 23 -34 59 -55 59 -8 0 -24 -9 -35 -20z"/>
<path d="M4410 7550 c-11 -11 -20 -28 -20 -38 0 -41 69 -69 98 -40 20 20 14
65 -10 82 -30 21 -44 20 -68 -4z"/>
<path d="M4596 6804 c-22 -21 -20 -50 4 -74 24 -24 38 -25 68 -4 41 29 19 94
-33 94 -13 0 -31 -7 -39 -16z"/>
<path d="M6580 7240 c-25 -25 -26 -52 -2 -73 35 -32 92 -11 92 34 0 23 -34 59
-55 59 -8 0 -24 -9 -35 -20z"/>
<path d="M6882 6908 c-20 -20 -15 -76 9 -88 52 -29 107 26 75 75 -18 27 -63
34 -84 13z"/>
<path d="M6630 6440 c-24 -24 -25 -38 -4 -68 18 -27 55 -29 77 -4 23 26 21 58
-5 76 -30 21 -44 20 -68 -4z"/>
<path d="M6855 6126 c-13 -19 -14 -29 -5 -45 23 -44 77 -45 100 -1 17 31 -11
70 -50 70 -20 0 -35 -8 -45 -24z"/>
<path d="M4738 6398 c-28 -22 -31 -55 -9 -77 26 -26 53 -27 74 -3 45 49 -13
120 -65 80z"/>
<path d="M3475 5820 c-41 -45 18 -110 70 -76 27 18 34 63 13 84 -18 18 -63 14
-83 -8z"/>
<path d="M6788 5829 c-52 -30 -37 -99 21 -99 51 0 72 50 36 86 -27 27 -32 28
-57 13z"/>
<path d="M6392 5514 c-40 -28 -16 -94 35 -94 46 0 69 62 35 93 -23 21 -41 21
-70 1z"/>
<path d="M3976 5507 c-11 -8 -18 -26 -18 -42 0 -52 67 -75 96 -33 21 30 20 44
-4 68 -23 23 -49 26 -74 7z"/>
<path d="M6074 4925 c-21 -32 -15 -56 17 -74 24 -13 29 -13 53 2 31 21 34 56
8 80 -27 24 -59 21 -78 -8z"/>
<path d="M4278 3283 l-48 -4 0 -54 c0 -47 -3 -57 -26 -71 -56 -37 -74 -146
-32 -199 37 -47 71 -55 188 -45 58 5 429 34 825 65 816 62 812 62 843 81 72
46 82 156 21 213 l-23 21 -850 -2 c-468 -1 -872 -3 -898 -5z"/>
<path d="M5935 2913 c-223 -16 -805 -59 -1110 -83 -209 -16 -420 -32 -470 -36
-114 -7 -148 -18 -180 -55 -34 -41 -36 -132 -4 -173 36 -46 75 -59 148 -52 36
3 390 30 786 61 876 67 897 69 928 90 30 19 57 72 57 112 0 26 -34 113 -43
113 -3 0 -20 6 -38 13 -19 7 -52 11 -74 10z"/>
<path d="M5255 2470 c-324 -26 -687 -56 -805 -65 -118 -10 -223 -21 -232 -26
-10 -5 -22 -19 -29 -30 -9 -18 2 -33 102 -135 l113 -114 716 0 716 0 69 71
c39 39 87 82 108 95 70 46 94 115 63 187 -22 53 -53 67 -148 66 -46 -1 -348
-23 -673 -49z"/>
<path d="M4562 1979 c7 -16 216 -238 244 -257 29 -21 39 -22 315 -22 253 0
287 2 310 18 31 21 249 255 243 261 -7 8 -1114 7 -1112 0z"/>
</g>
</svg>
