<svg version="1.1" id="Layer_1" xmlns="http://www.w3.org/2000/svg" xmlns:xlink="http://www.w3.org/1999/xlink" x="0px" y="0px"
	 width="100%" viewBox="0 0 1024 1024" enable-background="new 0 0 1024 1024" xml:space="preserve">
<path fill="#FEFFFF" opacity="1.000000" stroke="none" 
	d="
M680.000000,1025.000000 
	C453.333344,1025.000000 227.166672,1025.000000 1.000000,1025.000000 
	C1.000000,683.666687 1.000000,342.333344 1.000000,1.000000 
	C342.333344,1.000000 683.666687,1.000000 1025.000000,1.000000 
	C1025.000000,342.333344 1025.000000,683.666687 1025.000000,1025.000000 
	C910.166687,1025.000000 795.333313,1025.000000 680.000000,1025.000000 
M239.096176,464.371582 
	C239.920761,468.280396 240.666397,472.207794 241.582367,476.095062 
	C249.255798,508.660583 263.529510,538.392883 279.826843,567.414673 
	C294.241211,593.083313 307.975555,619.160278 321.194794,645.466675 
	C336.547119,676.018066 338.842407,708.159363 328.598267,740.667969 
	C322.257874,760.788513 314.255737,780.390137 306.847168,800.167664 
	C301.486755,814.477478 307.638031,823.632080 322.758698,823.619019 
	C411.575897,823.542358 500.393066,823.483276 589.210266,823.431580 
	C598.988525,823.425903 604.360229,818.423889 604.888855,808.575134 
	C605.326294,800.424988 605.331665,792.239014 606.090698,784.121460 
	C607.581299,768.179565 614.893494,757.566223 631.963257,756.650818 
	C648.594238,755.758911 665.254761,755.247620 681.852417,753.937439 
	C712.679077,751.503845 734.860535,731.693909 738.409302,702.853577 
	C739.513123,693.883240 738.186157,684.588440 737.687622,675.457703 
	C737.466431,671.406799 738.017273,667.866760 740.991882,664.920044 
	C749.774231,656.220093 753.913391,646.391541 747.988525,634.574097 
	C756.877991,626.396729 758.204712,620.891785 754.206299,609.723328 
	C752.525146,605.027466 750.398621,600.452087 749.161316,595.645142 
	C747.200317,588.026672 748.712402,586.455444 756.435669,584.928467 
	C763.583557,583.515381 771.006226,582.397278 777.604858,579.530823 
	C790.905273,573.752930 795.669983,561.583191 789.449585,548.591614 
	C777.642822,523.932434 764.396606,499.957367 747.129639,478.664734 
	C738.384094,467.880310 734.546936,456.447968 736.684814,443.059601 
	C739.977783,422.437256 738.210815,402.197388 732.747681,382.215332 
	C729.862183,371.660950 726.445312,361.251862 723.189636,350.517639 
	C730.474060,347.581116 737.014648,343.263763 740.817261,335.680328 
	C747.106079,323.138702 744.089783,311.351013 737.756287,299.973541 
	C730.987549,287.814026 721.319885,278.194489 710.106506,270.148529 
	C686.864563,253.471695 660.584534,243.772232 633.047485,237.049973 
	C621.757507,234.293915 609.724609,233.211166 599.297180,228.538635 
	C562.430542,212.018677 524.265625,202.949020 483.766632,202.463196 
	C435.553406,201.884857 389.690521,210.937576 346.955261,233.521072 
	C299.681000,258.503204 264.869965,295.068054 246.323349,345.820129 
	C232.282440,384.242462 231.411392,423.662964 239.096176,464.371582 
z"/>
<path fill="#25486B" opacity="1.000000" stroke="none" 
	d="
M239.030304,463.947876 
	C231.411392,423.662964 232.282440,384.242462 246.323349,345.820129 
	C264.869965,295.068054 299.681000,258.503204 346.955261,233.521072 
	C389.690521,210.937576 435.553406,201.884857 483.766632,202.463196 
	C524.265625,202.949020 562.430542,212.018677 599.297180,228.538635 
	C609.724609,233.211166 621.757507,234.293915 633.047485,237.049973 
	C660.584534,243.772232 686.864563,253.471695 710.106506,270.148529 
	C721.319885,278.194489 730.987549,287.814026 737.756287,299.973541 
	C744.089783,311.351013 747.106079,323.138702 740.817261,335.680328 
	C737.014648,343.263763 730.474060,347.581116 723.189636,350.517639 
	C726.445312,361.251862 729.862183,371.660950 732.747681,382.215332 
	C738.210815,402.197388 739.977783,422.437256 736.684814,443.059601 
	C734.546936,456.447968 738.384094,467.880310 747.129639,478.664734 
	C764.396606,499.957367 777.642822,523.932434 789.449585,548.591614 
	C795.669983,561.583191 790.905273,573.752930 777.604858,579.530823 
	C771.006226,582.397278 763.583557,583.515381 756.435669,584.928467 
	C748.712402,586.455444 747.200317,588.026672 749.161316,595.645142 
	C750.398621,600.452087 752.525146,605.027466 754.206299,609.723328 
	C758.204712,620.891785 756.877991,626.396729 747.988525,634.574097 
	C753.913391,646.391541 749.774231,656.220093 740.991882,664.920044 
	C738.017273,667.866760 737.466431,671.406799 737.687622,675.457703 
	C738.186157,684.588440 739.513123,693.883240 738.409302,702.853577 
	C734.860535,731.693909 712.679077,751.503845 681.852417,753.937439 
	C665.254761,755.247620 648.594238,755.758911 631.963257,756.650818 
	C614.893494,757.566223 607.581299,768.179565 606.090698,784.121460 
	C605.331665,792.239014 605.326294,800.424988 604.888855,808.575134 
	C604.360229,818.423889 598.988525,823.425903 589.210266,823.431580 
	C500.393066,823.483276 411.575897,823.542358 322.758698,823.619019 
	C307.638031,823.632080 301.486755,814.477478 306.847168,800.167664 
	C314.255737,780.390137 322.257874,760.788513 328.598267,740.667969 
	C338.842407,708.159363 336.547119,676.018066 321.194794,645.466675 
	C307.975555,619.160278 294.241211,593.083313 279.826843,567.414673 
	C263.529510,538.392883 249.255798,508.660583 241.582367,476.095062 
	C240.666397,472.207794 239.920761,468.280396 239.030304,463.947876 
M611.985352,275.503204 
	C609.221497,273.646698 606.491394,271.737610 603.688782,269.941711 
	C570.664307,248.779572 534.198425,238.411362 495.365692,235.648895 
	C449.936279,232.417130 406.272583,239.301773 365.415497,260.018829 
	C316.427856,284.858551 282.637726,322.569672 271.666687,377.462982 
	C261.100128,430.332428 273.362793,477.418976 312.429993,515.852844 
	C347.366425,550.222900 399.901642,560.160156 443.312958,540.639526 
	C481.308289,523.554321 505.879730,494.135101 518.707153,454.747314 
	C519.821594,451.325256 521.056213,450.253082 524.845520,450.304474 
	C538.161865,450.485199 551.508118,450.457336 564.803101,449.753632 
	C585.024719,448.683350 604.841064,445.208923 623.472656,436.813507 
	C645.016541,427.105835 661.431274,412.393188 666.593262,388.395081 
	C670.813110,368.776794 667.826111,349.614105 659.516968,331.364014 
	C649.096924,308.477692 632.514648,290.764862 611.985352,275.503204 
z"/>
<path fill="#FAFDFC" opacity="1.000000" stroke="none" 
	d="
M612.274780,275.715027 
	C632.514648,290.764862 649.096924,308.477692 659.516968,331.364014 
	C667.826111,349.614105 670.813110,368.776794 666.593262,388.395081 
	C661.431274,412.393188 645.016541,427.105835 623.472656,436.813507 
	C604.841064,445.208923 585.024719,448.683350 564.803101,449.753632 
	C551.508118,450.457336 538.161865,450.485199 524.845520,450.304474 
	C521.056213,450.253082 519.821594,451.325256 518.707153,454.747314 
	C505.879730,494.135101 481.308289,523.554321 443.312958,540.639526 
	C399.901642,560.160156 347.366425,550.222900 312.429993,515.852844 
	C273.362793,477.418976 261.100128,430.332428 271.666687,377.462982 
	C282.637726,322.569672 316.427856,284.858551 365.415497,260.018829 
	C406.272583,239.301773 449.936279,232.417130 495.365692,235.648895 
	C534.198425,238.411362 570.664307,248.779572 603.688782,269.941711 
	C606.491394,271.737610 609.221497,273.646698 612.274780,275.715027 
M448.323700,310.021423 
	C447.794891,310.851318 447.266083,311.681213 446.495850,312.889954 
	C443.755829,308.050537 439.667908,306.258423 434.468628,306.258148 
	C432.365784,306.258026 430.120300,305.647797 428.185852,304.771729 
	C421.251282,301.631348 414.702332,297.333710 407.499329,295.150269 
	C387.464935,289.077271 368.041809,292.525391 349.122131,300.556244 
	C347.370087,301.299957 344.709229,301.183594 342.955353,300.392029 
	C338.439850,298.354065 334.229095,298.312866 330.158691,301.031067 
	C326.215363,303.664459 324.873596,307.539185 324.950836,312.245117 
	C324.979858,314.013977 324.191711,316.417725 322.906708,317.493103 
	C304.672180,332.752716 292.791534,351.931091 286.941559,374.905823 
	C286.229614,377.701813 285.435852,379.729797 282.006989,380.696869 
	C276.956177,382.121399 274.336151,387.496277 274.887939,393.098297 
	C275.362183,397.913025 279.309265,402.204468 284.042847,403.051819 
	C289.350525,404.001953 294.828735,401.459991 297.191711,396.950500 
	C299.499512,392.546326 298.720978,386.649933 294.594116,383.317078 
	C291.953796,381.184814 292.040314,379.308075 292.729279,376.451447 
	C297.903137,354.999207 309.202942,337.380493 325.649231,322.866852 
	C327.691711,321.064392 329.154114,320.298126 332.097534,321.765320 
	C340.091492,325.750031 349.093781,320.040619 348.901154,311.156799 
	C348.832733,308.001801 349.951263,306.710999 352.488983,305.618011 
	C365.694916,299.930328 379.385712,296.751221 393.811401,298.145142 
	C405.728821,299.296692 416.706024,303.125061 426.178802,310.600128 
	C422.097015,319.359283 423.540741,325.459656 430.087280,328.492828 
	C438.600372,332.437164 447.505859,326.641144 447.457367,317.250061 
	C447.452911,316.383759 445.617645,313.761230 449.284912,315.634674 
	C450.539581,316.750244 451.794250,317.865814 453.358154,319.592194 
	C456.641998,322.646210 458.638062,319.429749 461.806152,317.899170 
	C465.283112,319.469604 471.311554,320.507355 471.770905,322.707794 
	C473.307831,330.069641 478.039459,329.429230 482.924652,328.796539 
	C484.465454,328.596985 486.535095,326.758331 487.032654,325.235352 
	C488.989105,319.246735 495.748413,315.962372 500.739532,319.558105 
	C504.552673,322.305267 506.540894,320.207764 508.648010,317.831329 
	C510.865417,315.330536 514.709839,313.427551 511.057465,308.848907 
	C507.798615,304.763580 511.046570,297.059418 516.102478,296.178009 
	C519.603882,295.567535 521.736816,294.273773 521.117920,290.361633 
	C520.536804,286.688385 522.971130,281.770142 516.240601,280.857330 
	C510.827728,280.123260 507.454163,271.736755 510.647034,267.342072 
	C512.934814,264.193207 512.445312,261.827148 509.746765,259.627258 
	C507.045288,257.425018 505.326752,253.023544 500.286560,256.215118 
	C494.960510,259.587738 488.782990,256.794861 487.093750,250.653900 
	C486.385651,248.079636 485.263062,246.500366 482.280212,246.882523 
	C480.639801,247.092682 478.935944,247.111282 477.292542,246.928940 
	C474.183411,246.583969 472.790436,247.999115 472.131226,250.927444 
	C470.873535,256.514099 463.977234,259.826202 459.327545,256.788544 
	C453.454132,252.951370 452.029327,258.911499 448.902710,261.032440 
	C445.843445,263.107727 447.101288,265.363159 448.777985,267.805725 
	C451.840637,272.267303 448.945343,279.864044 443.680298,281.053345 
	C440.484253,281.775238 438.462891,282.922607 438.935425,286.625183 
	C439.399872,290.264465 437.338470,294.708069 443.359283,296.104126 
	C449.268341,297.474274 451.745697,304.224884 448.323700,310.021423 
M443.465912,497.019592 
	C445.577942,498.352051 447.674713,499.709442 449.804840,501.012329 
	C456.235931,504.945709 458.093506,504.751221 463.255341,499.511475 
	C466.411774,496.307434 469.486450,493.022949 472.624481,489.800537 
	C479.871552,482.358643 480.079590,481.886780 474.054443,473.592773 
	C469.556030,467.400482 468.568176,462.104523 471.556763,454.092651 
	C475.577271,443.314392 481.440491,437.692261 492.654572,436.868835 
	C496.403320,436.593567 498.437317,434.141296 498.368835,430.027252 
	C498.280151,424.701477 498.637146,419.369965 498.647766,414.040588 
	C498.665497,405.127655 497.987885,403.658203 489.367157,402.219208 
	C480.554016,400.748169 476.417664,396.211090 472.684387,387.961823 
	C468.190338,378.031586 469.112793,370.767609 475.967072,363.228699 
	C479.385223,359.469147 478.827118,355.605347 475.491089,352.108765 
	C470.662567,347.047882 465.732147,342.083374 460.803192,337.119446 
	C458.057495,334.354309 454.978210,334.202057 451.738953,336.245972 
	C448.641876,338.200226 445.437836,340.013092 442.501648,342.186432 
	C439.268616,344.579468 436.343842,344.461334 432.811951,342.678284 
	C428.675629,340.590149 424.289703,338.863586 419.840240,337.572021 
	C416.445923,336.586731 414.953522,334.670563 414.282074,331.413147 
	C413.477203,327.508698 412.290497,323.684326 411.328491,319.810547 
	C410.432709,316.203339 408.191986,314.536072 404.471069,314.630096 
	C400.308228,314.735260 396.138733,314.602875 391.977386,314.736450 
	C377.068817,315.214935 378.102631,311.931885 374.182739,328.965607 
	C373.016083,334.035339 371.004578,337.145203 365.634460,338.393982 
	C361.317566,339.397919 357.371674,341.911438 353.098846,343.228668 
	C351.125549,343.837006 348.462708,343.833130 346.642426,342.978302 
	C342.749115,341.150024 339.372925,338.190002 335.441559,336.485474 
	C333.345734,335.576813 329.549835,335.257294 328.215179,336.496399 
	C322.135468,342.140869 316.533630,348.323669 311.022491,354.545502 
	C308.785492,357.070984 309.210205,360.109375 311.269623,362.817657 
	C312.578888,364.539429 313.780212,366.350800 315.177551,367.996674 
	C319.239960,372.781586 319.027832,377.202393 316.961243,383.396545 
	C313.125214,394.894012 307.387726,402.478088 294.563019,403.304291 
	C291.217957,403.519775 289.570068,406.170593 289.619904,409.731506 
	C289.696838,415.222748 289.549225,420.716736 289.559845,426.209412 
	C289.577576,435.388672 289.820435,436.408142 298.756348,437.869873 
	C307.377686,439.280151 311.331726,443.545013 315.032898,451.614441 
	C319.580597,461.529480 318.627350,468.720551 311.887634,476.287903 
	C308.457977,480.138672 309.330475,483.856750 312.787354,487.295471 
	C316.683868,491.171509 320.506775,495.121521 324.398315,499.002655 
	C330.946594,505.533417 331.415649,505.570831 339.128967,500.588348 
	C339.688416,500.226990 340.281281,499.899780 340.782074,499.467957 
	C346.406433,494.618011 351.725250,495.064087 358.889954,497.522797 
	C369.328186,501.104828 375.654816,506.346252 376.544312,517.595215 
	C376.885895,521.915039 379.819244,523.848267 384.151550,523.798584 
	C390.981415,523.720276 397.812714,523.719421 404.643097,523.751831 
	C408.820953,523.771667 411.105865,521.739746 411.854858,517.675781 
	C412.488037,514.240295 413.356934,510.848724 414.018768,507.417877 
	C414.608337,504.361847 416.149109,502.572998 419.302490,501.585785 
	C424.049957,500.099579 428.764343,498.302887 433.182556,496.034058 
	C436.772278,494.190735 439.759338,494.272614 443.465912,497.019592 
M524.955933,396.648254 
	C527.910217,400.705750 531.264160,401.090515 535.037781,397.759338 
	C538.693237,394.532593 542.500183,393.874420 546.803223,396.687897 
	C548.439392,397.757721 550.650391,397.948578 552.286316,399.018646 
	C553.781006,399.996277 555.699768,401.465637 555.976929,402.983856 
	C558.171631,415.006500 559.725952,412.540527 568.895813,412.595703 
	C570.727112,412.606720 572.560486,412.475403 574.390320,412.518555 
	C577.788086,412.598663 579.887146,411.046021 580.003174,407.626221 
	C580.207520,401.605469 583.150940,398.206787 589.039001,397.067780 
	C590.634827,396.759064 592.056335,395.498718 593.649414,395.241119 
	C595.272400,394.978729 597.277039,394.902496 598.651367,395.625366 
	C608.134827,400.613464 608.097778,400.689331 615.677307,392.986908 
	C616.728516,391.918732 617.669739,390.727417 618.802917,389.757996 
	C621.166687,387.735870 621.393555,385.585297 619.309143,383.318573 
	C614.819458,378.436218 613.996521,373.309753 617.919128,367.667664 
	C618.562378,366.742340 618.533997,365.332855 619.212952,364.453613 
	C620.231750,363.134247 621.405151,361.503204 622.853394,361.015106 
	C633.780396,357.332245 633.806335,357.409454 633.825806,345.574097 
	C633.827148,344.741272 633.771179,343.903503 633.841431,343.076477 
	C634.130859,339.672058 632.591003,337.384552 629.250671,337.144592 
	C622.209839,336.638855 618.704712,332.608643 617.181335,326.168274 
	C616.917969,325.054840 615.913391,324.048096 615.868713,322.966522 
	C615.787476,320.998260 615.529724,318.619629 616.462341,317.095490 
	C622.220947,307.683807 622.324829,307.746826 614.497925,300.093140 
	C613.902466,299.510895 613.211731,299.004272 612.710815,298.350952 
	C609.394470,294.026123 605.708313,293.775360 601.704102,297.332306 
	C598.144165,300.494568 594.438171,300.787994 590.314148,298.385986 
	C588.760254,297.480896 586.698547,297.406250 585.220886,296.423126 
	C583.714844,295.421112 581.853760,293.942688 581.504883,292.371582 
	C578.766846,280.040955 578.328552,282.418335 567.290955,282.225311 
	C566.458252,282.210754 565.611633,282.309692 564.794739,282.193115 
	C559.779419,281.477539 557.482544,283.764587 556.785583,288.663422 
	C556.431641,291.151367 555.624878,294.935638 553.966309,295.637573 
	C547.391296,298.420288 540.582031,303.135498 533.346924,296.264954 
	C532.149109,295.127502 528.228882,295.128510 526.871826,296.222443 
	C523.289734,299.110046 520.321045,302.799133 517.309692,306.340576 
	C515.230408,308.785919 514.973206,311.582520 517.515625,313.926208 
	C521.946350,318.010651 522.708252,322.366852 519.254089,327.472778 
	C518.349060,328.810577 518.338135,330.763306 517.407104,332.070923 
	C516.346802,333.560242 514.897766,335.399597 513.304321,335.782440 
	C501.564941,338.602783 503.373840,339.181458 503.195282,349.764252 
	C503.181244,350.596924 503.206451,351.434082 503.128632,352.261200 
	C502.731934,356.478333 504.686005,359.280304 508.779053,359.593872 
	C515.270447,360.091217 518.417847,363.654938 519.688416,369.609222 
	C519.926392,370.724457 520.879089,371.723816 520.978088,372.823761 
	C521.141174,374.637238 521.479797,376.813141 520.695312,378.272247 
	C515.614441,387.722412 515.521545,387.672241 523.365417,395.090515 
	C523.728516,395.433838 524.085388,395.783630 524.955933,396.648254 
M522.131287,411.387299 
	C528.154297,415.237946 534.266235,418.959900 540.142395,423.022827 
	C541.763977,424.144043 543.397034,426.125427 543.802185,427.979309 
	C545.678040,436.562500 556.169495,441.681030 562.189880,435.591797 
	C566.826843,430.901764 571.295898,431.478546 576.404602,431.309875 
	C579.729309,431.200104 583.092773,431.108154 586.358154,430.542633 
	C609.699463,426.500275 626.858032,413.742554 638.658752,393.365906 
	C639.654785,391.645996 641.626770,389.775787 643.449524,389.381500 
	C649.422180,388.089569 653.209778,384.883667 653.878174,379.549316 
	C654.547424,374.208771 651.698914,369.008240 646.931824,366.867310 
	C642.130310,364.710938 636.768066,366.004089 633.426086,370.124329 
	C629.952759,374.406494 630.062439,379.993744 633.238892,384.957031 
	C634.081909,386.274261 634.474976,388.710052 633.831848,390.024078 
	C623.183960,411.780701 596.483093,427.126984 572.299866,425.761383 
	C569.149231,425.583466 567.493530,424.664734 566.234619,421.444183 
	C563.450867,414.322510 554.381897,411.795593 548.873657,416.681915 
	C546.053894,419.183380 544.151123,418.556519 541.509155,417.174377 
	C520.592224,406.231384 506.306427,389.652344 498.782715,367.249756 
	C497.296051,362.823090 495.248749,358.445038 500.209656,354.740814 
	C500.782623,354.313049 500.973175,353.293549 501.210968,352.509003 
	C503.126068,346.190918 499.880066,339.505829 493.925323,337.445251 
	C488.137787,335.442596 481.536621,338.618561 479.215790,344.522461 
	C476.824554,350.605438 479.683929,356.936127 486.115326,359.540436 
	C488.478943,360.497559 490.753021,360.628265 491.703461,364.109375 
	C496.792511,382.748474 506.685181,398.477020 522.131287,411.387299 
M466.248169,510.757782 
	C479.964050,499.333160 490.053833,485.305359 496.856812,468.797638 
	C497.637451,466.903412 499.860321,465.094299 501.838226,464.296967 
	C508.109924,461.768738 511.316772,455.784027 509.268524,449.425995 
	C507.178253,442.937622 500.919678,439.431396 494.782928,441.310822 
	C488.640991,443.191772 484.595642,450.362793 486.784607,456.421295 
	C487.798248,459.226990 490.028931,461.592987 491.866486,464.400635 
	C484.026855,487.150085 468.632812,504.017090 448.036804,516.525879 
	C446.196716,517.643433 444.832764,518.377808 442.412506,516.450867 
	C434.653198,510.273193 424.520416,514.708252 422.830658,524.466248 
	C422.601044,525.792114 421.070251,527.611938 419.816895,527.932617 
	C403.116486,532.205200 386.541382,531.546936 370.108795,526.296387 
	C367.691437,525.523987 366.806763,524.480652 366.610596,521.811462 
	C366.173828,515.867920 362.828918,512.092224 357.894745,510.960327 
	C352.417175,509.703766 346.853546,512.130798 344.263214,516.906921 
	C341.795746,521.456482 342.646423,527.606689 346.251251,531.279846 
	C350.092651,535.193970 355.701508,535.708801 360.978180,533.026978 
	C362.815002,532.093445 365.377808,531.080994 367.095062,531.651489 
	C385.150543,537.650024 403.342987,537.965515 421.806946,533.967224 
	C423.510376,533.598450 425.894562,534.220459 427.353424,535.247559 
	C433.687836,539.707458 444.024445,537.625061 445.663757,530.314941 
	C447.032928,524.209534 450.710327,521.674866 455.228973,518.882446 
	C458.898193,516.614929 462.215546,513.778015 466.248169,510.757782 
M540.481567,274.232697 
	C541.848206,275.463928 543.336731,276.585785 544.558289,277.947205 
	C548.048340,281.836884 553.393250,283.028625 558.193970,280.840698 
	C562.631348,278.818390 565.348145,274.270081 564.920776,269.578857 
	C564.440491,264.307587 560.663208,259.897583 555.819397,258.953094 
	C550.483704,257.912689 545.290833,259.988312 543.197327,264.707794 
	C541.942688,267.536163 540.134094,268.421936 537.376221,269.213593 
	C531.960144,270.768280 526.729980,272.970581 520.661133,275.182526 
	C522.603394,277.674316 523.577576,278.924164 524.289612,279.837677 
	C529.749573,277.934082 534.751038,276.190308 540.481567,274.232697 
z"/>
<path fill="#04C1C6" opacity="1.000000" stroke="none" 
	d="
M443.158020,496.827820 
	C439.759338,494.272614 436.772278,494.190735 433.182556,496.034058 
	C428.764343,498.302887 424.049957,500.099579 419.302490,501.585785 
	C416.149109,502.572998 414.608337,504.361847 414.018768,507.417877 
	C413.356934,510.848724 412.488037,514.240295 411.854858,517.675781 
	C411.105865,521.739746 408.820953,523.771667 404.643097,523.751831 
	C397.812714,523.719421 390.981415,523.720276 384.151550,523.798584 
	C379.819244,523.848267 376.885895,521.915039 376.544312,517.595215 
	C375.654816,506.346252 369.328186,501.104828 358.889954,497.522797 
	C351.725250,495.064087 346.406433,494.618011 340.782074,499.467957 
	C340.281281,499.899780 339.688416,500.226990 339.128967,500.588348 
	C331.415649,505.570831 330.946594,505.533417 324.398315,499.002655 
	C320.506775,495.121521 316.683868,491.171509 312.787354,487.295471 
	C309.330475,483.856750 308.457977,480.138672 311.887634,476.287903 
	C318.627350,468.720551 319.580597,461.529480 315.032898,451.614441 
	C311.331726,443.545013 307.377686,439.280151 298.756348,437.869873 
	C289.820435,436.408142 289.577576,435.388672 289.559845,426.209412 
	C289.549225,420.716736 289.696838,415.222748 289.619904,409.731506 
	C289.570068,406.170593 291.217957,403.519775 294.563019,403.304291 
	C307.387726,402.478088 313.125214,394.894012 316.961243,383.396545 
	C319.027832,377.202393 319.239960,372.781586 315.177551,367.996674 
	C313.780212,366.350800 312.578888,364.539429 311.269623,362.817657 
	C309.210205,360.109375 308.785492,357.070984 311.022491,354.545502 
	C316.533630,348.323669 322.135468,342.140869 328.215179,336.496399 
	C329.549835,335.257294 333.345734,335.576813 335.441559,336.485474 
	C339.372925,338.190002 342.749115,341.150024 346.642426,342.978302 
	C348.462708,343.833130 351.125549,343.837006 353.098846,343.228668 
	C357.371674,341.911438 361.317566,339.397919 365.634460,338.393982 
	C371.004578,337.145203 373.016083,334.035339 374.182739,328.965607 
	C378.102631,311.931885 377.068817,315.214935 391.977386,314.736450 
	C396.138733,314.602875 400.308228,314.735260 404.471069,314.630096 
	C408.191986,314.536072 410.432709,316.203339 411.328491,319.810547 
	C412.290497,323.684326 413.477203,327.508698 414.282074,331.413147 
	C414.953522,334.670563 416.445923,336.586731 419.840240,337.572021 
	C424.289703,338.863586 428.675629,340.590149 432.811951,342.678284 
	C436.343842,344.461334 439.268616,344.579468 442.501648,342.186432 
	C445.437836,340.013092 448.641876,338.200226 451.738953,336.245972 
	C454.978210,334.202057 458.057495,334.354309 460.803192,337.119446 
	C465.732147,342.083374 470.662567,347.047882 475.491089,352.108765 
	C478.827118,355.605347 479.385223,359.469147 475.967072,363.228699 
	C469.112793,370.767609 468.190338,378.031586 472.684387,387.961823 
	C476.417664,396.211090 480.554016,400.748169 489.367157,402.219208 
	C497.987885,403.658203 498.665497,405.127655 498.647766,414.040588 
	C498.637146,419.369965 498.280151,424.701477 498.368835,430.027252 
	C498.437317,434.141296 496.403320,436.593567 492.654572,436.868835 
	C481.440491,437.692261 475.577271,443.314392 471.556763,454.092651 
	C468.568176,462.104523 469.556030,467.400482 474.054443,473.592773 
	C480.079590,481.886780 479.871552,482.358643 472.624481,489.800537 
	C469.486450,493.022949 466.411774,496.307434 463.255341,499.511475 
	C458.093506,504.751221 456.235931,504.945709 449.804840,501.012329 
	C447.674713,499.709442 445.577942,498.352051 443.158020,496.827820 
M396.411835,357.780914 
	C394.413025,357.801971 392.411346,357.761383 390.415802,357.853241 
	C357.868439,359.351227 332.062653,386.753052 332.069977,419.789001 
	C332.077026,451.792633 358.326721,479.295258 390.352814,480.853821 
	C425.378998,482.558411 453.970856,457.027496 455.438080,421.414337 
	C456.906036,385.784302 428.171814,359.015625 396.411835,357.780914 
z"/>
<path fill="#06BFC5" opacity="1.000000" stroke="none" 
	d="
M524.700562,396.389343 
	C524.085388,395.783630 523.728516,395.433838 523.365417,395.090515 
	C515.521545,387.672241 515.614441,387.722412 520.695312,378.272247 
	C521.479797,376.813141 521.141174,374.637238 520.978088,372.823761 
	C520.879089,371.723816 519.926392,370.724457 519.688416,369.609222 
	C518.417847,363.654938 515.270447,360.091217 508.779053,359.593872 
	C504.686005,359.280304 502.731934,356.478333 503.128632,352.261200 
	C503.206451,351.434082 503.181244,350.596924 503.195282,349.764252 
	C503.373840,339.181458 501.564941,338.602783 513.304321,335.782440 
	C514.897766,335.399597 516.346802,333.560242 517.407104,332.070923 
	C518.338135,330.763306 518.349060,328.810577 519.254089,327.472778 
	C522.708252,322.366852 521.946350,318.010651 517.515625,313.926208 
	C514.973206,311.582520 515.230408,308.785919 517.309692,306.340576 
	C520.321045,302.799133 523.289734,299.110046 526.871826,296.222443 
	C528.228882,295.128510 532.149109,295.127502 533.346924,296.264954 
	C540.582031,303.135498 547.391296,298.420288 553.966309,295.637573 
	C555.624878,294.935638 556.431641,291.151367 556.785583,288.663422 
	C557.482544,283.764587 559.779419,281.477539 564.794739,282.193115 
	C565.611633,282.309692 566.458252,282.210754 567.290955,282.225311 
	C578.328552,282.418335 578.766846,280.040955 581.504883,292.371582 
	C581.853760,293.942688 583.714844,295.421112 585.220886,296.423126 
	C586.698547,297.406250 588.760254,297.480896 590.314148,298.385986 
	C594.438171,300.787994 598.144165,300.494568 601.704102,297.332306 
	C605.708313,293.775360 609.394470,294.026123 612.710815,298.350952 
	C613.211731,299.004272 613.902466,299.510895 614.497925,300.093140 
	C622.324829,307.746826 622.220947,307.683807 616.462341,317.095490 
	C615.529724,318.619629 615.787476,320.998260 615.868713,322.966522 
	C615.913391,324.048096 616.917969,325.054840 617.181335,326.168274 
	C618.704712,332.608643 622.209839,336.638855 629.250671,337.144592 
	C632.591003,337.384552 634.130859,339.672058 633.841431,343.076477 
	C633.771179,343.903503 633.827148,344.741272 633.825806,345.574097 
	C633.806335,357.409454 633.780396,357.332245 622.853394,361.015106 
	C621.405151,361.503204 620.231750,363.134247 619.212952,364.453613 
	C618.533997,365.332855 618.562378,366.742340 617.919128,367.667664 
	C613.996521,373.309753 614.819458,378.436218 619.309143,383.318573 
	C621.393555,385.585297 621.166687,387.735870 618.802917,389.757996 
	C617.669739,390.727417 616.728516,391.918732 615.677307,392.986908 
	C608.097778,400.689331 608.134827,400.613464 598.651367,395.625366 
	C597.277039,394.902496 595.272400,394.978729 593.649414,395.241119 
	C592.056335,395.498718 590.634827,396.759064 589.039001,397.067780 
	C583.150940,398.206787 580.207520,401.605469 580.003174,407.626221 
	C579.887146,411.046021 577.788086,412.598663 574.390320,412.518555 
	C572.560486,412.475403 570.727112,412.606720 568.895813,412.595703 
	C559.725952,412.540527 558.171631,415.006500 555.976929,402.983856 
	C555.699768,401.465637 553.781006,399.996277 552.286316,399.018646 
	C550.650391,397.948578 548.439392,397.757721 546.803223,396.687897 
	C542.500183,393.874420 538.693237,394.532593 535.037781,397.759338 
	C531.264160,401.090515 527.910217,400.705750 524.700562,396.389343 
M592.552856,317.919128 
	C578.431824,307.248352 561.112854,306.543549 546.984314,316.064789 
	C533.681763,325.029419 527.369873,342.223663 531.664612,357.797394 
	C536.063782,373.749725 549.453308,384.302307 566.829285,385.511383 
	C582.122742,386.575623 597.706726,376.786621 603.777649,362.302582 
	C610.244446,346.874237 606.184265,330.156738 592.552856,317.919128 
z"/>
<path fill="#09BEC4" opacity="1.000000" stroke="none" 
	d="
M453.048889,318.981384 
	C451.794250,317.865814 450.539581,316.750244 449.139465,314.895447 
	C448.950165,312.652100 448.906311,311.147980 448.862457,309.643890 
	C451.745697,304.224884 449.268341,297.474274 443.359283,296.104126 
	C437.338470,294.708069 439.399872,290.264465 438.935425,286.625183 
	C438.462891,282.922607 440.484253,281.775238 443.680298,281.053345 
	C448.945343,279.864044 451.840637,272.267303 448.777985,267.805725 
	C447.101288,265.363159 445.843445,263.107727 448.902710,261.032440 
	C452.029327,258.911499 453.454132,252.951370 459.327545,256.788544 
	C463.977234,259.826202 470.873535,256.514099 472.131226,250.927444 
	C472.790436,247.999115 474.183411,246.583969 477.292542,246.928940 
	C478.935944,247.111282 480.639801,247.092682 482.280212,246.882523 
	C485.263062,246.500366 486.385651,248.079636 487.093750,250.653900 
	C488.782990,256.794861 494.960510,259.587738 500.286560,256.215118 
	C505.326752,253.023544 507.045288,257.425018 509.746765,259.627258 
	C512.445312,261.827148 512.934814,264.193207 510.647034,267.342072 
	C507.454163,271.736755 510.827728,280.123260 516.240601,280.857330 
	C522.971130,281.770142 520.536804,286.688385 521.117920,290.361633 
	C521.736816,294.273773 519.603882,295.567535 516.102478,296.178009 
	C511.046570,297.059418 507.798615,304.763580 511.057465,308.848907 
	C514.709839,313.427551 510.865417,315.330536 508.648010,317.831329 
	C506.540894,320.207764 504.552673,322.305267 500.739532,319.558105 
	C495.748413,315.962372 488.989105,319.246735 487.032654,325.235352 
	C486.535095,326.758331 484.465454,328.596985 482.924652,328.796539 
	C478.039459,329.429230 473.307831,330.069641 471.770905,322.707794 
	C471.311554,320.507355 465.283112,319.469604 461.330750,317.587769 
	C457.277649,313.377991 455.569611,318.040131 453.048889,318.981384 
M487.152863,265.048401 
	C486.342987,264.860291 485.540558,264.627167 484.722076,264.490845 
	C474.813843,262.840942 466.587250,265.867798 460.482971,273.818756 
	C454.411011,281.727661 454.038177,290.499146 458.424438,299.186432 
	C462.912842,308.076141 470.863403,311.886932 480.552887,311.852234 
	C492.079407,311.810944 501.120178,303.878296 503.575867,292.134857 
	C505.931580,280.869904 499.880493,270.469940 487.152863,265.048401 
z"/>
<path fill="#10C1C9" opacity="1.000000" stroke="none" 
	d="
M521.854980,411.162659 
	C506.685181,398.477020 496.792511,382.748474 491.703461,364.109375 
	C490.753021,360.628265 488.478943,360.497559 486.115326,359.540436 
	C479.683929,356.936127 476.824554,350.605438 479.215790,344.522461 
	C481.536621,338.618561 488.137787,335.442596 493.925323,337.445251 
	C499.880066,339.505829 503.126068,346.190918 501.210968,352.509003 
	C500.973175,353.293549 500.782623,354.313049 500.209656,354.740814 
	C495.248749,358.445038 497.296051,362.823090 498.782715,367.249756 
	C506.306427,389.652344 520.592224,406.231384 541.509155,417.174377 
	C544.151123,418.556519 546.053894,419.183380 548.873657,416.681915 
	C554.381897,411.795593 563.450867,414.322510 566.234619,421.444183 
	C567.493530,424.664734 569.149231,425.583466 572.299866,425.761383 
	C596.483093,427.126984 623.183960,411.780701 633.831848,390.024078 
	C634.474976,388.710052 634.081909,386.274261 633.238892,384.957031 
	C630.062439,379.993744 629.952759,374.406494 633.426086,370.124329 
	C636.768066,366.004089 642.130310,364.710938 646.931824,366.867310 
	C651.698914,369.008240 654.547424,374.208771 653.878174,379.549316 
	C653.209778,384.883667 649.422180,388.089569 643.449524,389.381500 
	C641.626770,389.775787 639.654785,391.645996 638.658752,393.365906 
	C626.858032,413.742554 609.699463,426.500275 586.358154,430.542633 
	C583.092773,431.108154 579.729309,431.200104 576.404602,431.309875 
	C571.295898,431.478546 566.826843,430.901764 562.189880,435.591797 
	C556.169495,441.681030 545.678040,436.562500 543.802185,427.979309 
	C543.397034,426.125427 541.763977,424.144043 540.142395,423.022827 
	C534.266235,418.959900 528.154297,415.237946 521.854980,411.162659 
M486.873474,353.779205 
	C491.839386,355.693207 496.219421,353.957367 496.108673,349.631958 
	C496.052094,347.422150 494.465332,344.191162 492.682648,343.385406 
	C490.916168,342.586975 487.404510,343.552734 485.782867,345.002563 
	C483.075409,347.423248 483.705170,350.660492 486.873474,353.779205 
M639.664307,382.952454 
	C644.961731,384.483124 649.604004,381.363007 648.229004,376.812286 
	C647.588196,374.691345 645.230286,372.153351 643.208130,371.674866 
	C641.520142,371.275452 638.590210,373.137543 637.274536,374.826904 
	C635.111877,377.603882 636.380432,380.440247 639.664307,382.952454 
M560.893433,429.299713 
	C562.878418,426.211823 562.175354,423.238953 559.395752,421.481812 
	C557.757324,420.446075 554.579895,420.031250 553.143860,420.959808 
	C551.447632,422.056610 549.959473,424.926971 550.010254,426.988281 
	C550.137451,432.152405 555.380371,433.487946 560.893433,429.299713 
z"/>
<path fill="#10C3C8" opacity="1.000000" stroke="none" 
	d="
M448.593079,309.832642 
	C448.906311,311.147980 448.950165,312.652100 448.986389,314.606049 
	C445.617645,313.761230 447.452911,316.383759 447.457367,317.250061 
	C447.505859,326.641144 438.600372,332.437164 430.087280,328.492828 
	C423.540741,325.459656 422.097015,319.359283 426.178802,310.600128 
	C416.706024,303.125061 405.728821,299.296692 393.811401,298.145142 
	C379.385712,296.751221 365.694916,299.930328 352.488983,305.618011 
	C349.951263,306.710999 348.832733,308.001801 348.901154,311.156799 
	C349.093781,320.040619 340.091492,325.750031 332.097534,321.765320 
	C329.154114,320.298126 327.691711,321.064392 325.649231,322.866852 
	C309.202942,337.380493 297.903137,354.999207 292.729279,376.451447 
	C292.040314,379.308075 291.953796,381.184814 294.594116,383.317078 
	C298.720978,386.649933 299.499512,392.546326 297.191711,396.950500 
	C294.828735,401.459991 289.350525,404.001953 284.042847,403.051819 
	C279.309265,402.204468 275.362183,397.913025 274.887939,393.098297 
	C274.336151,387.496277 276.956177,382.121399 282.006989,380.696869 
	C285.435852,379.729797 286.229614,377.701813 286.941559,374.905823 
	C292.791534,351.931091 304.672180,332.752716 322.906708,317.493103 
	C324.191711,316.417725 324.979858,314.013977 324.950836,312.245117 
	C324.873596,307.539185 326.215363,303.664459 330.158691,301.031067 
	C334.229095,298.312866 338.439850,298.354065 342.955353,300.392029 
	C344.709229,301.183594 347.370087,301.299957 349.122131,300.556244 
	C368.041809,292.525391 387.464935,289.077271 407.499329,295.150269 
	C414.702332,297.333710 421.251282,301.631348 428.185852,304.771729 
	C430.120300,305.647797 432.365784,306.258026 434.468628,306.258148 
	C439.667908,306.258423 443.755829,308.050537 446.495850,312.889954 
	C447.266083,311.681213 447.794891,310.851318 448.593079,309.832642 
M290.115112,386.316193 
	C287.670319,386.435760 284.891235,385.895416 282.897552,386.905457 
	C281.554413,387.585907 280.359985,390.751343 280.827972,392.273590 
	C281.445587,394.282532 283.599213,396.937469 285.380554,397.177551 
	C287.446136,397.455933 290.977478,395.946259 291.759674,394.242645 
	C292.637482,392.330719 291.152985,389.334198 290.115112,386.316193 
M331.150116,313.001801 
	C332.487488,316.172638 335.035889,318.028656 338.213867,316.923676 
	C340.191406,316.236115 342.291229,314.059753 343.030182,312.067230 
	C344.240112,308.804810 341.498779,305.355194 338.083649,304.806854 
	C334.033508,304.156525 331.424744,306.878265 331.150116,313.001801 
M429.649414,319.939301 
	C430.930817,323.203522 433.567169,324.911835 436.702393,323.824127 
	C438.694611,323.132965 441.146942,320.819183 441.417694,318.947357 
	C441.686310,317.090088 439.969940,314.202209 438.258118,312.954559 
	C434.528442,310.236206 430.430389,313.321442 429.649414,319.939301 
z"/>
<path fill="#10C3C9" opacity="1.000000" stroke="none" 
	d="
M465.968567,510.975708 
	C462.215546,513.778015 458.898193,516.614929 455.228973,518.882446 
	C450.710327,521.674866 447.032928,524.209534 445.663757,530.314941 
	C444.024445,537.625061 433.687836,539.707458 427.353424,535.247559 
	C425.894562,534.220459 423.510376,533.598450 421.806946,533.967224 
	C403.342987,537.965515 385.150543,537.650024 367.095062,531.651489 
	C365.377808,531.080994 362.815002,532.093445 360.978180,533.026978 
	C355.701508,535.708801 350.092651,535.193970 346.251251,531.279846 
	C342.646423,527.606689 341.795746,521.456482 344.263214,516.906921 
	C346.853546,512.130798 352.417175,509.703766 357.894745,510.960327 
	C362.828918,512.092224 366.173828,515.867920 366.610596,521.811462 
	C366.806763,524.480652 367.691437,525.523987 370.108795,526.296387 
	C386.541382,531.546936 403.116486,532.205200 419.816895,527.932617 
	C421.070251,527.611938 422.601044,525.792114 422.830658,524.466248 
	C424.520416,514.708252 434.653198,510.273193 442.412506,516.450867 
	C444.832764,518.377808 446.196716,517.643433 448.036804,516.525879 
	C468.632812,504.017090 484.026855,487.150085 491.866486,464.400635 
	C490.028931,461.592987 487.798248,459.226990 486.784607,456.421295 
	C484.595642,450.362793 488.640991,443.191772 494.782928,441.310822 
	C500.919678,439.431396 507.178253,442.937622 509.268524,449.425995 
	C511.316772,455.784027 508.109924,461.768738 501.838226,464.296967 
	C499.860321,465.094299 497.637451,466.903412 496.856812,468.797638 
	C490.053833,485.305359 479.964050,499.333160 465.968567,510.975708 
M355.306946,516.390259 
	C351.511444,516.604004 348.536713,518.435486 348.952179,522.319885 
	C349.193909,524.579834 351.283234,527.673279 353.270203,528.400818 
	C354.969543,529.023071 358.344269,527.384705 359.848694,525.723511 
	C362.643188,522.637817 360.930054,519.122192 355.306946,516.390259 
M492.003601,452.530548 
	C493.280487,457.897858 496.982727,460.624329 500.471893,458.212494 
	C502.283081,456.960571 503.932129,454.006805 503.832642,451.908142 
	C503.748413,450.131927 501.328827,447.557281 499.435455,446.969299 
	C495.734863,445.819977 493.146362,447.998779 492.003601,452.530548 
M436.060364,519.646240 
	C432.513031,519.075195 430.059296,520.883484 429.238525,523.959167 
	C428.771942,525.707642 429.365753,528.562073 430.603394,529.724609 
	C432.006104,531.042236 434.962585,531.918396 436.691376,531.339050 
	C438.462921,530.745300 440.839447,528.014160 440.665039,526.478027 
	C440.401489,524.157349 438.155426,522.061768 436.060364,519.646240 
z"/>
<path fill="#10C3C8" opacity="1.000000" stroke="none" 
	d="
M540.117004,274.339630 
	C534.751038,276.190308 529.749573,277.934082 524.289612,279.837677 
	C523.577576,278.924164 522.603394,277.674316 520.661133,275.182526 
	C526.729980,272.970581 531.960144,270.768280 537.376221,269.213593 
	C540.134094,268.421936 541.942688,267.536163 543.197327,264.707794 
	C545.290833,259.988312 550.483704,257.912689 555.819397,258.953094 
	C560.663208,259.897583 564.440491,264.307587 564.920776,269.578857 
	C565.348145,274.270081 562.631348,278.818390 558.193970,280.840698 
	C553.393250,283.028625 548.048340,281.836884 544.558289,277.947205 
	C543.336731,276.585785 541.848206,275.463928 540.117004,274.339630 
M556.505859,275.258087 
	C559.217834,273.167206 560.309021,270.285797 558.421631,267.492432 
	C557.319519,265.861328 554.536316,264.135284 552.870239,264.437958 
	C550.932129,264.790039 548.577087,267.005371 547.836121,268.956390 
	C546.090149,273.553589 550.039062,276.703491 556.505859,275.258087 
z"/>
<path fill="#10C3C8" opacity="1.000000" stroke="none" 
	d="
M453.203522,319.286804 
	C455.569611,318.040131 457.277649,313.377991 460.930420,317.648987 
	C458.638062,319.429749 456.641998,322.646210 453.203522,319.286804 
z"/>
<path fill="#F6FBFB" opacity="1.000000" stroke="none" 
	d="
M396.891174,357.801910 
	C428.171814,359.015625 456.906036,385.784302 455.438080,421.414337 
	C453.970856,457.027496 425.378998,482.558411 390.352814,480.853821 
	C358.326721,479.295258 332.077026,451.792633 332.069977,419.789001 
	C332.062653,386.753052 357.868439,359.351227 390.415802,357.853241 
	C392.411346,357.761383 394.413025,357.801971 396.891174,357.801910 
M355.985016,455.508301 
	C356.937103,456.440796 357.859375,457.406158 358.845673,458.300934 
	C375.205261,473.142609 399.996399,475.930237 419.305634,465.110107 
	C438.930115,454.113342 449.717041,431.494537 445.499634,410.184601 
	C440.937439,387.132538 423.988953,370.726501 401.165649,367.269531 
	C380.085693,364.076630 358.248505,375.122223 347.913055,394.205566 
	C337.184814,414.014160 340.138763,437.744354 355.985016,455.508301 
z"/>
<path fill="#EFF9F9" opacity="1.000000" stroke="none" 
	d="
M592.830261,318.144470 
	C606.184265,330.156738 610.244446,346.874237 603.777649,362.302582 
	C597.706726,376.786621 582.122742,386.575623 566.829285,385.511383 
	C549.453308,384.302307 536.063782,373.749725 531.664612,357.797394 
	C527.369873,342.223663 533.681763,325.029419 546.984314,316.064789 
	C561.112854,306.543549 578.431824,307.248352 592.830261,318.144470 
M591.698059,324.813293 
	C577.171326,311.209106 556.416504,311.894470 543.743164,326.396820 
	C531.899719,339.949524 533.935242,361.437469 548.134949,372.757843 
	C561.144958,383.129761 580.178040,381.965729 591.836182,370.085236 
	C603.977600,357.712280 604.122314,339.494629 591.698059,324.813293 
z"/>
<path fill="#E5F7F8" opacity="1.000000" stroke="none" 
	d="
M487.542542,265.148254 
	C499.880493,270.469940 505.931580,280.869904 503.575867,292.134857 
	C501.120178,303.878296 492.079407,311.810944 480.552887,311.852234 
	C470.863403,311.886932 462.912842,308.076141 458.424438,299.186432 
	C454.038177,290.499146 454.411011,281.727661 460.482971,273.818756 
	C466.587250,265.867798 474.813843,262.840942 484.722076,264.490845 
	C485.540558,264.627167 486.342987,264.860291 487.542542,265.148254 
M491.358185,270.950226 
	C482.001953,265.715485 471.560120,266.909454 464.864655,273.979645 
	C458.410614,280.794891 457.269684,291.164886 462.345978,298.779694 
	C467.358185,306.298370 474.572205,309.435486 483.408600,307.954407 
	C491.673767,306.569122 497.288086,301.425293 499.539917,293.463104 
	C502.042358,284.614990 499.253662,277.103912 491.358185,270.950226 
z"/>
<path fill="#EFF9F9" opacity="1.000000" stroke="none" 
	d="
M486.578217,353.539368 
	C483.705170,350.660492 483.075409,347.423248 485.782867,345.002563 
	C487.404510,343.552734 490.916168,342.586975 492.682648,343.385406 
	C494.465332,344.191162 496.052094,347.422150 496.108673,349.631958 
	C496.219421,353.957367 491.839386,355.693207 486.578217,353.539368 
z"/>
<path fill="#EFF9F9" opacity="1.000000" stroke="none" 
	d="
M639.336792,382.768250 
	C636.380432,380.440247 635.111877,377.603882 637.274536,374.826904 
	C638.590210,373.137543 641.520142,371.275452 643.208130,371.674866 
	C645.230286,372.153351 647.588196,374.691345 648.229004,376.812286 
	C649.604004,381.363007 644.961731,384.483124 639.336792,382.768250 
z"/>
<path fill="#EFF9F9" opacity="1.000000" stroke="none" 
	d="
M560.649353,429.605164 
	C555.380371,433.487946 550.137451,432.152405 550.010254,426.988281 
	C549.959473,424.926971 551.447632,422.056610 553.143860,420.959808 
	C554.579895,420.031250 557.757324,420.446075 559.395752,421.481812 
	C562.175354,423.238953 562.878418,426.211823 560.649353,429.605164 
z"/>
<path fill="#EFF9F9" opacity="1.000000" stroke="none" 
	d="
M290.405701,386.562866 
	C291.152985,389.334198 292.637482,392.330719 291.759674,394.242645 
	C290.977478,395.946259 287.446136,397.455933 285.380554,397.177551 
	C283.599213,396.937469 281.445587,394.282532 280.827972,392.273590 
	C280.359985,390.751343 281.554413,387.585907 282.897552,386.905457 
	C284.891235,385.895416 287.670319,386.435760 290.405701,386.562866 
z"/>
<path fill="#F6FBFB" opacity="1.000000" stroke="none" 
	d="
M331.069580,312.605225 
	C331.424744,306.878265 334.033508,304.156525 338.083649,304.806854 
	C341.498779,305.355194 344.240112,308.804810 343.030182,312.067230 
	C342.291229,314.059753 340.191406,316.236115 338.213867,316.923676 
	C335.035889,318.028656 332.487488,316.172638 331.069580,312.605225 
z"/>
<path fill="#EFF9F9" opacity="1.000000" stroke="none" 
	d="
M429.526062,319.588135 
	C430.430389,313.321442 434.528442,310.236206 438.258118,312.954559 
	C439.969940,314.202209 441.686310,317.090088 441.417694,318.947357 
	C441.146942,320.819183 438.694611,323.132965 436.702393,323.824127 
	C433.567169,324.911835 430.930817,323.203522 429.526062,319.588135 
z"/>
<path fill="#EFF9F9" opacity="1.000000" stroke="none" 
	d="
M355.664673,516.483643 
	C360.930054,519.122192 362.643188,522.637817 359.848694,525.723511 
	C358.344269,527.384705 354.969543,529.023071 353.270203,528.400818 
	C351.283234,527.673279 349.193909,524.579834 348.952179,522.319885 
	C348.536713,518.435486 351.511444,516.604004 355.664673,516.483643 
z"/>
<path fill="#F6FBFB" opacity="1.000000" stroke="none" 
	d="
M492.038574,452.139343 
	C493.146362,447.998779 495.734863,445.819977 499.435455,446.969299 
	C501.328827,447.557281 503.748413,450.131927 503.832642,451.908142 
	C503.932129,454.006805 502.283081,456.960571 500.471893,458.212494 
	C496.982727,460.624329 493.280487,457.897858 492.038574,452.139343 
z"/>
<path fill="#F6FBFB" opacity="1.000000" stroke="none" 
	d="
M436.406128,519.758362 
	C438.155426,522.061768 440.401489,524.157349 440.665039,526.478027 
	C440.839447,528.014160 438.462921,530.745300 436.691376,531.339050 
	C434.962585,531.918396 432.006104,531.042236 430.603394,529.724609 
	C429.365753,528.562073 428.771942,525.707642 429.238525,523.959167 
	C430.059296,520.883484 432.513031,519.075195 436.406128,519.758362 
z"/>
<path fill="#EFF9F9" opacity="1.000000" stroke="none" 
	d="
M556.162231,275.487488 
	C550.039062,276.703491 546.090149,273.553589 547.836121,268.956390 
	C548.577087,267.005371 550.932129,264.790039 552.870239,264.437958 
	C554.536316,264.135284 557.319519,265.861328 558.421631,267.492432 
	C560.309021,270.285797 559.217834,273.167206 556.162231,275.487488 
z"/>
<path fill="#08C0C7" opacity="1.000000" stroke="none" 
	d="
M355.733093,455.255707 
	C340.138763,437.744354 337.184814,414.014160 347.913055,394.205566 
	C358.248505,375.122223 380.085693,364.076630 401.165649,367.269531 
	C423.988953,370.726501 440.937439,387.132538 445.499634,410.184601 
	C449.717041,431.494537 438.930115,454.113342 419.305634,465.110107 
	C399.996399,475.930237 375.205261,473.142609 358.845673,458.300934 
	C357.859375,457.406158 356.937103,456.440796 355.733093,455.255707 
M426.636108,443.047455 
	C428.164459,440.288391 429.939606,437.635620 431.180511,434.752808 
	C438.521362,417.699188 432.581879,397.117462 417.326813,386.325134 
	C402.191223,375.617218 380.934082,376.685059 367.365295,388.834839 
	C349.640472,404.706024 349.079132,432.722473 366.164062,448.788208 
	C383.584839,465.169708 410.657288,462.834961 426.636108,443.047455 
z"/>
<path fill="#0DC0C6" opacity="1.000000" stroke="none" 
	d="
M591.944946,325.071472 
	C604.122314,339.494629 603.977600,357.712280 591.836182,370.085236 
	C580.178040,381.965729 561.144958,383.129761 548.134949,372.757843 
	C533.935242,361.437469 531.899719,339.949524 543.743164,326.396820 
	C556.416504,311.894470 577.171326,311.209106 591.944946,325.071472 
M545.453613,338.315948 
	C545.159119,339.268921 544.826355,340.211945 544.575928,341.176331 
	C541.925293,351.383942 546.216736,362.490936 555.018677,368.238373 
	C563.780151,373.959381 575.673767,373.322937 583.956787,366.689819 
	C592.261963,360.039001 595.604553,348.604004 591.707825,338.777618 
	C587.965271,329.340240 581.063782,323.610016 570.697754,322.812195 
	C558.996704,321.911652 551.017456,327.487396 545.453613,338.315948 
z"/>
<path fill="#0DC0C6" opacity="1.000000" stroke="none" 
	d="
M491.663544,271.159729 
	C499.253662,277.103912 502.042358,284.614990 499.539917,293.463104 
	C497.288086,301.425293 491.673767,306.569122 483.408600,307.954407 
	C474.572205,309.435486 467.358185,306.298370 462.345978,298.779694 
	C457.269684,291.164886 458.410614,280.794891 464.864655,273.979645 
	C471.560120,266.909454 482.001953,265.715485 491.663544,271.159729 
M480.411133,303.275085 
	C492.976501,301.814178 499.553772,289.082397 492.818451,279.257904 
	C488.637787,273.159729 480.878754,270.909393 473.823273,273.748718 
	C467.407867,276.330475 463.391510,283.087769 464.381226,289.634583 
	C465.633942,297.921387 470.697388,302.478088 480.411133,303.275085 
z"/>
<path fill="#FDFEFE" opacity="1.000000" stroke="none" 
	d="
M426.411255,443.329651 
	C410.657288,462.834961 383.584839,465.169708 366.164062,448.788208 
	C349.079132,432.722473 349.640472,404.706024 367.365295,388.834839 
	C380.934082,376.685059 402.191223,375.617218 417.326813,386.325134 
	C432.581879,397.117462 438.521362,417.699188 431.180511,434.752808 
	C429.939606,437.635620 428.164459,440.288391 426.411255,443.329651 
z"/>
<path fill="#FCFEFD" opacity="1.000000" stroke="none" 
	d="
M545.632385,337.966156 
	C551.017456,327.487396 558.996704,321.911652 570.697754,322.812195 
	C581.063782,323.610016 587.965271,329.340240 591.707825,338.777618 
	C595.604553,348.604004 592.261963,360.039001 583.956787,366.689819 
	C575.673767,373.322937 563.780151,373.959381 555.018677,368.238373 
	C546.216736,362.490936 541.925293,351.383942 544.575928,341.176331 
	C544.826355,340.211945 545.159119,339.268921 545.632385,337.966156 
z"/>
<path fill="#FAFDFC" opacity="1.000000" stroke="none" 
	d="
M479.976715,303.276672 
	C470.697388,302.478088 465.633942,297.921387 464.381226,289.634583 
	C463.391510,283.087769 467.407867,276.330475 473.823273,273.748718 
	C480.878754,270.909393 488.637787,273.159729 492.818451,279.257904 
	C499.553772,289.082397 492.976501,301.814178 479.976715,303.276672 
z"/>
</svg>