<svg version="1.1" id="Layer_1" xmlns="http://www.w3.org/2000/svg" xmlns:xlink="http://www.w3.org/1999/xlink" x="0px" y="0px"
	 width="100%" viewBox="0 0 1024 1024" enable-background="new 0 0 1024 1024" xml:space="preserve">
<path fill="#000000" opacity="1.000000" stroke="none" 
	d="
M234.874588,556.000000 
	C234.867828,504.500153 234.858810,453.500305 234.858322,402.500458 
	C234.858154,386.057037 244.834000,375.836212 261.193756,375.833862 
	C431.693268,375.809448 602.192810,375.817657 772.692322,375.851624 
	C787.797058,375.854614 798.092896,386.158966 798.101807,401.364594 
	C798.156372,494.697662 798.161255,588.030701 798.128052,681.363770 
	C798.122314,697.367798 788.128235,707.298035 772.233032,707.298340 
	C601.566833,707.301819 430.900665,707.294250 260.234467,707.272461 
	C244.670822,707.270508 234.908783,697.558044 234.892426,681.998352 
	C234.848495,640.165588 234.876312,598.332764 234.874588,556.000000 
M781.494812,686.468567 
	C782.335510,683.356506 782.020264,680.172241 782.021790,677.018799 
	C782.057251,602.715576 782.070068,528.412354 782.083252,454.109161 
	C782.086365,436.613739 782.115051,419.118134 782.052612,401.622925 
	C782.026123,394.195801 779.835205,392.004364 772.587830,391.909546 
	C767.756714,391.846375 762.923889,391.923309 758.091797,391.923401 
	C592.467529,391.926910 426.843231,391.928009 261.218933,391.933167 
	C253.442429,391.933411 251.093506,394.279175 251.093094,402.055878 
	C251.088226,494.698730 251.083801,587.341614 251.096542,679.984436 
	C251.097870,689.679626 253.190796,691.702454 262.831909,691.699036 
	C360.806793,691.664673 458.781647,691.629944 556.756531,691.605591 
	C628.238037,691.587830 699.719604,691.581543 771.201111,691.586609 
	C775.189636,691.586914 778.898560,691.103699 781.494812,686.468567 
z"/>
<path fill="#000000" opacity="1.000000" stroke="none" 
	d="
M560.060608,335.042938 
	C562.493530,332.713989 564.234680,330.504364 565.244507,327.475037 
	C566.726440,323.029877 570.159607,320.240204 575.019531,320.238342 
	C579.825562,320.236450 583.327515,322.790375 584.920959,327.309082 
	C586.658447,332.236359 591.019958,334.607880 594.465576,337.868958 
	C595.747131,339.081940 597.303101,338.672607 598.488098,337.448395 
	C602.604126,333.196259 607.795532,330.006744 610.048645,323.964813 
	C611.615295,319.763824 615.279907,317.453094 619.968140,317.815918 
	C624.495911,318.166321 627.810913,320.435272 629.230774,324.948059 
	C630.651306,329.463135 634.921387,331.260834 638.040283,334.119934 
	C639.331909,335.303955 640.920776,334.114807 642.051636,333.116760 
	C645.160889,330.372620 648.265015,327.729706 650.032898,323.697296 
	C652.171875,318.818359 656.427917,316.871429 660.968567,317.963989 
	C665.391785,319.028320 668.342041,322.875580 668.266357,327.480591 
	C668.191650,332.026001 664.977661,335.998840 660.300659,337.115814 
	C654.579895,338.482086 651.214600,342.419525 649.382507,347.602905 
	C647.694641,352.378143 644.805847,355.403046 639.711853,355.568207 
	C634.628479,355.733002 631.042908,353.081512 629.598694,348.245911 
	C628.401733,344.237793 625.304260,342.001190 622.523499,339.437592 
	C620.466187,337.540894 618.379883,338.530518 616.777222,340.178162 
	C612.776367,344.291077 607.803955,347.462097 605.878113,353.507721 
	C604.626648,357.436371 600.939575,359.295227 596.734863,359.236359 
	C592.294617,359.174286 589.246582,356.838348 587.432373,352.831268 
	C586.690552,351.192719 586.445740,349.421478 585.122131,347.938599 
	C576.527039,338.309326 567.606323,340.634094 562.532837,354.049377 
	C560.718384,358.847015 557.576538,361.468262 552.407227,361.253906 
	C547.660339,361.057007 544.740540,358.381409 543.378967,353.945312 
	C541.971863,349.360779 544.604736,343.115509 549.272217,342.262787 
	C554.082825,341.383942 556.774963,338.320618 560.060608,335.042938 
z"/>
<path fill="#000000" opacity="1.000000" stroke="none" 
	d="
M743.000000,344.045227 
	C758.665161,344.030060 773.830261,344.008850 788.995422,344.003113 
	C795.455078,344.000641 795.869873,344.417114 795.906067,350.692780 
	C795.960754,360.195709 795.960815,360.201355 786.391663,360.199982 
	C758.227661,360.195984 730.063660,360.197357 701.899658,360.172668 
	C695.114502,360.166718 694.879395,359.885986 694.916260,353.105377 
	C694.921692,352.105530 695.039917,351.091614 694.915955,350.108185 
	C694.324951,345.420990 696.610962,343.969238 701.004456,344.010803 
	C714.835205,344.141602 728.667969,344.050598 743.000000,344.045227 
z"/>
<path fill="#000000" opacity="1.000000" stroke="none" 
	d="
M740.000000,335.229614 
	C726.524475,335.220245 713.547241,335.087250 700.574402,335.270203 
	C696.291321,335.330597 694.657776,333.946411 694.765198,329.529846 
	C695.032349,318.542053 694.261963,319.765839 704.437744,319.736603 
	C733.216492,319.653931 761.995667,319.694305 790.773804,319.527771 
	C794.400513,319.506805 795.803894,320.626801 795.964966,324.284912 
	C796.449219,335.283020 796.555054,335.278473 785.415466,335.268250 
	C770.443665,335.254486 755.471802,335.242065 740.000000,335.229614 
z"/>
<path fill="#000000" opacity="1.000000" stroke="none" 
	d="
M641.944702,435.843262 
	C655.117371,428.850037 668.906494,426.582397 683.305908,426.769257 
	C687.779724,426.827362 689.396729,428.192169 689.334167,432.858124 
	C689.095093,450.687469 689.360046,468.523315 689.161133,486.353638 
	C689.111938,490.763031 690.585327,492.106384 694.925781,492.056763 
	C713.756165,491.841400 732.591431,492.039276 751.421509,491.809906 
	C756.427551,491.748962 758.551392,493.441315 758.970032,498.546509 
	C763.027649,548.033630 724.739746,586.105164 680.337952,586.296997 
	C641.407898,586.465149 610.050659,561.506226 601.242310,523.580505 
	C593.317871,489.460571 610.133545,452.982422 641.944702,435.843262 
M673.667419,466.500122 
	C673.667419,458.746063 673.667419,450.992004 673.667419,443.103149 
	C667.165100,442.899231 661.863647,444.303223 656.733154,446.231873 
	C626.228760,457.699036 608.758423,491.044830 617.046265,521.814148 
	C626.096863,555.415344 656.730957,575.474060 690.276855,569.764465 
	C717.350220,565.156494 738.979431,542.777161 742.593567,515.633179 
	C743.498169,508.839203 742.939636,508.181671 736.041687,508.161285 
	C717.378113,508.106079 698.712769,507.914825 680.052124,508.127411 
	C674.945129,508.185577 673.434875,506.490570 673.576904,501.491974 
	C673.898621,490.169647 673.670837,478.831696 673.667419,466.500122 
z"/>
<path fill="#000000" opacity="1.000000" stroke="none" 
	d="
M518.948608,547.000000 
	C518.963440,532.514343 519.065552,518.527893 518.937988,504.543488 
	C518.899780,500.351196 520.250305,498.550934 524.707336,498.662140 
	C534.524475,498.907043 544.354980,498.866455 554.174072,498.659180 
	C558.076782,498.576843 559.397583,499.903687 559.390259,503.836731 
	C559.294067,555.450867 559.293823,607.065247 559.394409,658.679382 
	C559.401672,662.392090 558.296631,663.598450 554.550903,663.510925 
	C544.577454,663.277893 534.586853,663.184937 524.620056,663.529602 
	C520.119812,663.685120 518.946899,662.204468 518.959412,657.887878 
	C519.066528,621.092285 518.977844,584.296021 518.948608,547.000000 
z"/>
<path fill="#000000" opacity="1.000000" stroke="none" 
	d="
M454.128387,498.126709 
	C471.858459,481.024292 489.334930,464.168396 507.906494,446.256287 
	C502.568878,446.256287 498.509979,446.322906 494.454132,446.239441 
	C489.359650,446.134613 485.821777,442.873932 485.869232,438.475403 
	C485.915802,434.159912 489.561371,430.801239 494.603363,430.759796 
	C504.597168,430.677643 514.593140,430.670380 524.586365,430.786713 
	C530.728882,430.858154 533.486023,433.299988 533.684082,439.566132 
	C534.010071,449.881866 534.053467,460.217590 533.817932,470.535828 
	C533.676636,476.724884 530.441589,480.108337 525.775452,480.047089 
	C521.256958,479.987793 518.349121,476.236053 517.993958,470.202606 
	C517.802490,466.949860 518.553101,463.616272 517.504517,460.406921 
	C515.275208,460.252869 514.280823,461.767456 513.143005,462.860840 
	C485.284637,489.632629 457.439545,516.418274 429.630463,543.241211 
	C424.186523,548.492188 421.707458,549.004517 415.128448,545.158875 
	C399.173737,535.832947 383.214264,526.511292 367.408295,516.937683 
	C363.607117,514.635254 360.981201,514.521606 357.307648,517.441284 
	C337.104309,533.498901 316.667877,549.263306 296.298767,565.112000 
	C291.452454,568.882812 287.325226,569.177551 284.225830,566.068420 
	C280.264069,562.094177 281.119965,556.456604 286.433868,552.360718 
	C297.646179,543.718262 308.907623,535.139587 320.143127,526.527222 
	C331.510590,517.813660 342.868835,509.088196 354.235352,500.373444 
	C360.562347,495.522461 361.804657,495.437775 368.513702,499.403870 
	C384.424072,508.809326 400.388031,518.126587 416.192688,527.706543 
	C419.513031,529.719055 421.654510,529.474304 424.369110,526.800354 
	C434.098236,517.216919 444.023621,507.832764 454.128387,498.126709 
z"/>
<path fill="#000000" opacity="1.000000" stroke="none" 
	d="
M460.584717,573.999878 
	C460.596344,564.003723 460.728699,554.505493 460.560638,545.012512 
	C460.493042,541.193359 461.741974,539.627930 465.716217,539.706421 
	C475.541779,539.900635 485.375366,539.884521 495.202087,539.727356 
	C499.107727,539.664856 500.398438,541.162781 500.389954,545.034668 
	C500.307709,582.685730 500.322357,620.337219 500.452118,657.988037 
	C500.466248,662.084412 499.119202,663.559875 494.985748,663.470215 
	C484.994568,663.253296 474.994232,663.314209 465.000183,663.450562 
	C461.660614,663.496033 460.423065,662.638977 460.448303,658.931213 
	C460.639771,630.788452 460.571869,602.643921 460.584717,573.999878 
z"/>
<path fill="#000000" opacity="1.000000" stroke="none" 
	d="
M382.360992,602.000122 
	C382.367584,620.822021 382.254059,639.145325 382.466248,657.464783 
	C382.518555,661.978333 381.193359,663.635498 376.538422,663.517029 
	C366.397156,663.258789 356.238434,663.329041 346.096649,663.613831 
	C341.593964,663.740295 341.867645,661.041260 341.866760,658.107483 
	C341.859100,632.789978 341.833954,607.472534 341.824005,582.155029 
	C341.820526,573.327271 341.959503,564.497498 341.804688,555.672668 
	C341.735474,551.728882 343.018738,549.826294 347.223602,549.880249 
	C357.381958,550.010681 367.544586,549.979248 377.703094,549.839050 
	C381.496887,549.786743 382.503845,551.493225 382.470032,555.029907 
	C382.321777,570.518860 382.378571,586.009888 382.360992,602.000122 
z"/>
<path fill="#000000" opacity="1.000000" stroke="none" 
	d="
M695.732300,450.000000 
	C695.733948,439.837830 695.837891,430.174133 695.688293,420.514343 
	C695.629456,416.711609 697.087646,415.548828 700.791138,415.964539 
	C733.795776,419.668793 761.833740,447.845276 765.704102,481.092834 
	C766.133911,484.785339 764.905640,485.955231 761.515137,485.961884 
	C741.191589,486.001831 720.867737,486.047729 700.544739,486.192505 
	C696.787415,486.219299 695.673462,484.500397 695.716248,480.985168 
	C695.839966,470.824890 695.743347,460.661926 695.732300,450.000000 
z"/>
<path fill="#000000" opacity="1.000000" stroke="none" 
	d="
M400.885498,640.000000 
	C400.922272,621.171997 401.086426,602.842773 400.912567,584.516785 
	C400.865204,579.525269 402.555206,577.713867 407.579254,577.862488 
	C417.067841,578.143188 426.571381,577.921326 436.068726,577.898438 
	C438.955597,577.891479 441.359924,578.203003 441.357208,582.094788 
	C441.339386,607.576050 441.344360,633.057922 441.534119,658.538086 
	C441.565094,662.700317 439.707458,663.566528 436.117432,663.538757 
	C425.957031,663.460022 415.794647,663.540283 405.634033,663.650330 
	C402.357819,663.685791 400.732452,662.536621 400.830231,658.993591 
	C401.000214,652.833191 400.882690,646.664978 400.885498,640.000000 
z"/>
<path fill="#000000" opacity="1.000000" stroke="none" 
	d="
M282.773621,605.026794 
	C282.945984,592.307434 281.124420,593.810120 293.744629,593.746826 
	C301.900940,593.705933 310.060242,593.861206 318.212921,593.684814 
	C321.925323,593.604553 323.226105,595.119934 323.214752,598.695190 
	C323.151337,618.669983 323.165070,638.645386 323.249634,658.620056 
	C323.263367,661.865234 322.261139,663.291565 318.749695,663.595032 
	C307.756256,664.544861 296.795197,662.995972 285.815033,663.522339 
	C282.189728,663.696167 282.797516,660.684082 282.793274,658.456482 
	C282.759705,640.811829 282.772919,623.167175 282.773621,605.026794 
z"/>
<path fill="#000000" opacity="1.000000" stroke="none" 
	d="
M637.196411,623.196777 
	C672.380371,590.312622 727.951416,606.318665 738.668030,652.100342 
	C738.705994,652.262451 738.761841,652.420471 738.797974,652.582947 
	C741.351807,664.058716 740.973450,664.285583 729.383911,664.227173 
	C724.432434,664.202332 724.324036,661.169189 723.740173,657.811401 
	C719.140503,631.361267 691.727051,614.701782 666.375488,623.313538 
	C649.734924,628.966248 639.451233,640.734741 636.322937,658.139038 
	C635.467529,662.897949 633.619629,664.936279 628.832275,664.259827 
	C627.361084,664.052002 625.835083,664.160095 624.338257,664.221619 
	C620.897217,664.363037 619.640991,663.006287 620.061096,659.390015 
	C621.676636,645.484253 627.234619,633.510315 637.196411,623.196777 
z"/>
<path fill="#000000" opacity="1.000000" stroke="none" 
	d="
M677.143311,636.338989 
	C678.037659,633.151367 677.980347,630.094543 680.067261,627.147522 
	C681.758667,629.052185 681.915955,631.137329 682.353149,633.138855 
	C684.154602,641.386475 685.906921,649.647217 687.888733,657.852051 
	C688.924316,662.139404 687.772278,664.058594 683.138672,663.994080 
	C668.873169,663.795288 671.428101,664.644836 673.655640,652.771301 
	C674.662292,647.405457 675.894653,642.081970 677.143311,636.338989 
z"/>
</svg>