<?xml version="1.0" standalone="no"?>
<!DOCTYPE svg PUBLIC "-//W3C//DTD SVG 20010904//EN"
 "http://www.w3.org/TR/2001/REC-SVG-20010904/DTD/svg10.dtd">
<svg version="1.0" xmlns="http://www.w3.org/2000/svg"
 width="1024.000000pt" height="1024.000000pt" viewBox="0 0 1024.000000 1024.000000"
 preserveAspectRatio="xMidYMid meet">

<g transform="translate(0.000000,1024.000000) scale(0.100000,-0.100000)"
fill="#000000" stroke="none">
<path d="M5041 5635 c2 -206 2 -375 -1 -375 -3 0 -30 28 -59 61 -50 56 -188
175 -218 186 -10 4 -99 -77 -91 -82 2 -1 41 -31 88 -67 101 -78 181 -160 238
-245 l42 -62 0 -394 0 -395 55 -7 c30 -3 58 -4 62 -2 5 3 7 137 6 299 -1 161
1 342 4 401 6 105 7 111 44 166 49 73 142 167 241 242 43 33 78 62 78 66 0 3
-13 20 -29 38 -16 18 -31 39 -33 46 -6 18 -134 -80 -223 -170 -38 -39 -73 -71
-77 -71 -5 0 -8 167 -8 370 l0 370 -61 0 -61 0 3 -375z"/>
<path d="M2920 5689 c-13 -6 -32 -17 -42 -26 -16 -15 -16 -18 3 -55 13 -25 47
-176 88 -384 l68 -344 54 -79 54 -79 3 405 c1 257 -2 419 -8 444 -27 98 -130
153 -220 118z"/>
<path d="M7195 5686 c-42 -18 -93 -79 -100 -118 -3 -18 -4 -215 -3 -438 l3
-405 48 68 c26 37 52 79 57 95 6 15 37 168 70 341 33 172 70 335 82 362 20 48
20 50 3 69 -18 20 -74 40 -110 40 -11 -1 -34 -7 -50 -14z"/>
<path d="M2575 5662 c-43 -20 -71 -55 -86 -104 -15 -52 93 -800 129 -895 15
-39 157 -274 419 -691 34 -54 97 -112 258 -235 282 -217 457 -361 532 -440 74
-78 136 -184 147 -254 l7 -38 441 -1 441 -2 -6 232 c-4 177 -10 253 -26 324
-74 346 -218 551 -524 749 -75 48 -170 109 -211 135 -74 47 -180 140 -398 344
-62 59 -131 115 -153 125 -128 59 -265 -25 -265 -163 0 -22 7 -55 16 -73 8
-18 103 -125 211 -237 107 -111 215 -228 239 -259 44 -58 124 -195 124 -215 0
-10 -41 -34 -60 -34 -5 0 -23 26 -39 58 -16 31 -49 84 -73 117 -85 114 -133
159 -210 198 -122 60 -195 123 -334 290 -199 238 -190 217 -268 614 -72 365
-84 402 -152 443 -49 31 -109 35 -159 12z"/>
<path d="M7537 5666 c-97 -35 -108 -63 -178 -428 -33 -172 -64 -331 -70 -353
-13 -51 -58 -119 -156 -236 -175 -210 -284 -306 -407 -359 -52 -22 -136 -113
-216 -235 -33 -49 -65 -98 -72 -108 -12 -16 -17 -17 -41 -6 -15 7 -27 19 -27
27 0 23 90 168 148 238 29 35 132 148 230 250 97 102 185 200 194 217 20 37
23 103 7 144 -35 93 -158 138 -254 94 -22 -10 -119 -91 -215 -181 -225 -209
-271 -245 -469 -370 -270 -170 -366 -259 -467 -430 -119 -202 -164 -407 -164
-752 l0 -173 438 -4 437 -3 18 69 c41 158 144 262 647 648 218 168 244 197
395 440 71 116 167 268 212 339 92 143 105 177 133 351 33 207 90 633 90 678
0 57 -32 105 -90 135 -51 25 -70 27 -123 8z"/>
<path d="M3230 5208 l0 -325 48 47 c26 26 52 49 58 51 8 3 20 81 33 208 l22
205 -24 45 c-23 46 -59 74 -109 86 l-28 7 0 -324z"/>
<path d="M6923 5500 c-66 -40 -72 -83 -50 -362 l12 -147 41 -29 c22 -16 50
-42 61 -57 l20 -28 2 322 2 321 -28 0 c-15 0 -42 -9 -60 -20z"/>
<path d="M3465 5267 c-2 -7 -6 -46 -10 -87 -3 -41 -8 -96 -12 -122 l-6 -48 37
0 c20 0 52 -6 70 -14 l33 -14 7 52 c15 126 2 187 -46 218 -33 21 -69 29 -73
15z"/>
<path d="M6721 5262 c-63 -34 -82 -101 -65 -226 6 -38 10 -46 23 -41 9 4 40 9
69 12 l54 6 -6 56 c-3 31 -8 91 -12 134 -4 47 -11 77 -18 77 -6 0 -27 -8 -45
-18z"/>
<path d="M3847 2913 c-4 -3 -7 -114 -7 -245 l0 -238 570 0 570 0 0 245 0 245
-563 0 c-310 0 -567 -3 -570 -7z"/>
<path d="M5267 2913 c-4 -3 -7 -114 -7 -245 l0 -238 570 0 570 0 -2 243 -3
242 -561 3 c-308 1 -564 -1 -567 -5z"/>
</g>
</svg>
