<svg version="1.1" id="Layer_1" xmlns="http://www.w3.org/2000/svg" xmlns:xlink="http://www.w3.org/1999/xlink" x="0px" y="0px"
	 width="100%" viewBox="0 0 1024 1024" enable-background="new 0 0 1024 1024" xml:space="preserve">
<path fill="#FEFEFE" opacity="1.000000" stroke="none" 
	d="
M469.000000,1025.000000 
	C312.666656,1025.000000 156.833328,1025.000000 1.000000,1025.000000 
	C1.000000,683.666687 1.000000,342.333344 1.000000,1.000000 
	C342.333344,1.000000 683.666687,1.000000 1025.000000,1.000000 
	C1025.000000,342.333344 1025.000000,683.666687 1025.000000,1025.000000 
	C839.833313,1025.000000 654.666687,1025.000000 469.000000,1025.000000 
M659.158936,460.000000 
	C657.067139,460.669373 654.975342,461.338715 652.661682,461.091431 
	C652.661682,450.627686 652.661682,440.163940 652.661682,429.721039 
	C653.473389,429.530975 653.945679,429.354523 654.428711,429.317139 
	C660.993958,428.808990 664.248169,425.958282 663.908386,420.987579 
	C663.589355,416.320496 660.181396,413.953400 653.700867,413.951752 
	C644.705750,413.949493 635.710693,413.991119 626.715576,413.985901 
	C609.891541,413.976135 593.067322,413.905029 576.243469,413.950256 
	C571.295349,413.963531 568.278625,416.573669 567.903992,420.751709 
	C567.511230,425.131683 570.364014,428.475555 575.194031,429.259735 
	C576.320801,429.442688 577.461914,429.537720 579.158142,429.740326 
	C579.158142,455.898773 579.158142,481.919952 579.158142,508.156097 
	C584.394531,507.781036 589.030029,507.449005 594.227661,507.076691 
	C594.227661,481.004913 594.227661,455.129059 594.227661,429.307495 
	C608.879272,429.307495 622.947266,429.307495 637.232849,429.307495 
	C637.232849,431.179047 637.231995,432.670105 637.233032,434.161163 
	C637.300659,527.943359 637.369324,621.725586 637.428345,715.507812 
	C637.429260,717.004456 637.390564,718.509399 637.236389,719.996582 
	C636.137512,730.600891 627.526978,738.676941 616.906921,739.104675 
	C603.688599,739.637085 594.071838,730.148682 594.060913,716.262085 
	C594.023315,668.454712 594.075623,620.647400 594.093506,572.840027 
	C594.094299,570.715820 594.093567,568.591614 594.093567,566.290527 
	C588.756165,567.108521 583.999939,567.837463 578.969604,567.858398 
	C577.643799,565.883118 576.317932,563.907898 575.743103,561.637390 
	C579.014099,561.088867 582.290955,560.572754 585.554993,559.985718 
	C594.561462,558.365784 603.725708,557.316040 612.523682,554.923401 
	C623.029907,552.066223 629.040527,541.450500 627.344238,530.765381 
	C625.681030,520.289062 618.003235,513.954895 606.534790,513.916748 
	C600.878174,513.897949 595.212524,514.217224 589.563965,514.583984 
	C562.817688,516.320801 536.075745,518.125183 509.332611,519.910461 
	C506.326233,520.111206 503.140778,520.026489 503.171082,516.073792 
	C503.199158,512.417175 506.274475,512.496704 509.074036,512.470642 
	C517.402832,512.393005 525.751038,512.504089 534.053528,511.959595 
	C546.442993,511.147064 558.799866,509.837646 571.160400,508.740509 
	C571.160400,497.136414 571.160400,486.118988 571.160400,474.797577 
	C562.874084,476.644318 555.165710,478.783691 547.315857,480.037018 
	C517.221619,484.841888 490.253693,496.803528 466.237701,515.344238 
	C451.226501,526.933228 436.364532,538.754456 421.993713,551.119995 
	C412.552490,559.243774 402.151398,564.580383 389.917450,565.991943 
	C375.699463,567.632263 361.423431,568.779968 347.164368,570.049194 
	C340.770416,570.618225 334.356506,570.962708 328.037231,571.403198 
	C328.037231,618.861267 328.037231,665.753235 328.037231,712.946228 
	C344.906067,708.394104 361.322357,704.098755 377.660126,699.523071 
	C401.049377,692.972412 424.570251,688.848694 449.130005,690.597778 
	C474.051666,692.372559 498.222198,687.686096 521.396423,678.182800 
	C533.100647,673.383179 544.849487,668.692688 556.561035,663.910889 
	C561.482666,661.901306 568.326111,661.057556 570.719238,657.365479 
	C573.247742,653.464478 571.602783,646.802795 571.629700,641.346313 
	C571.712830,624.531982 571.723633,607.717285 572.472717,591.025208 
	C573.271179,591.890259 574.069580,592.755371 574.774963,593.519531 
	C576.250244,592.807800 577.500244,592.204773 578.893372,592.493347 
	C578.921509,634.135132 578.855347,675.777283 579.017944,717.418518 
	C579.097961,737.892334 595.420593,754.033081 615.528076,753.993408 
	C636.349365,753.952332 652.478455,737.749695 652.486694,716.833862 
	C652.497375,689.517334 652.469604,662.200806 652.499695,634.884277 
	C652.504456,630.570618 652.726990,626.257141 653.587097,622.036743 
	C655.675720,622.693054 657.764404,623.349365 660.074707,624.639832 
	C662.887268,624.016663 665.853088,623.770325 668.484131,622.700623 
	C676.799561,619.319519 680.651489,613.447083 680.179565,605.561279 
	C679.735779,598.145569 675.617004,593.506226 667.010193,589.988037 
	C667.675781,587.717102 668.341309,585.446228 669.697937,582.825439 
	C675.230103,581.002930 680.889221,579.489441 686.262878,577.281250 
	C693.299988,574.389526 696.791077,568.564514 696.751404,561.130188 
	C696.711792,553.711365 693.142273,547.994324 686.169678,545.004089 
	C683.641174,543.919739 680.732117,543.722717 678.067688,542.377136 
	C678.712708,540.274780 679.357788,538.172424 680.638306,535.683899 
	C683.412048,534.604370 686.309021,533.762329 688.935791,532.399536 
	C696.070312,528.698059 699.713257,521.147827 698.433777,513.275330 
	C697.140137,505.315857 691.936768,499.706848 683.725891,498.631836 
	C679.910400,498.132324 675.891663,499.185883 672.024109,498.765686 
	C672.784180,496.212952 676.430847,494.397949 674.627258,490.646301 
	C686.454041,486.714050 691.849365,477.333405 688.159363,467.118256 
	C684.558411,457.149292 672.874512,452.619720 661.993286,457.124634 
	C661.073792,457.505341 660.621094,459.013519 659.158936,460.000000 
M677.360352,309.248505 
	C662.490540,321.743347 647.620667,334.238159 632.124573,347.259247 
	C626.492798,321.987732 621.023376,297.444824 615.537354,272.827271 
	C610.261475,297.009216 605.009888,321.079498 599.936890,344.331482 
	C586.560547,331.498901 573.281067,318.759277 559.868530,305.820892 
	C559.868530,305.820892 559.615112,305.824829 559.615112,305.824829 
	C559.615112,305.824829 560.057983,305.957825 559.875610,306.785767 
	C563.540466,323.751740 567.205322,340.717743 571.096375,358.730865 
	C557.004150,355.706024 544.456116,353.012665 532.506226,350.447662 
	C549.708435,368.052979 567.113159,385.865570 584.517883,403.678162 
	C584.959534,403.458801 585.401184,403.239410 585.842773,403.020050 
	C581.523499,392.944092 577.204163,382.868134 572.651611,372.248077 
	C577.759766,372.983429 582.222961,373.625916 587.301270,374.356934 
	C586.078918,366.218048 584.993774,358.992706 583.755554,350.748047 
	C591.787903,358.096985 598.930542,364.631897 606.565918,371.617645 
	C609.584656,360.795563 612.311157,351.021332 615.037598,341.247131 
	C615.320007,341.291931 615.602356,341.336700 615.884705,341.381500 
	C618.586670,351.103149 621.288635,360.824799 624.229675,371.406738 
	C632.520081,364.551880 640.116150,358.271179 648.849670,351.049957 
	C646.777344,360.190613 645.033203,367.883453 643.157471,376.156830 
	C647.850464,375.887451 651.927063,375.653473 656.964233,375.364349 
	C652.964539,385.214447 649.208557,394.464447 645.452515,403.714447 
	C645.773438,404.026855 646.094360,404.339233 646.415283,404.651642 
	C661.536377,389.705902 676.657471,374.760162 691.778564,359.814423 
	C691.536011,359.515900 691.293518,359.217407 691.051025,358.918884 
	C681.068848,359.729950 671.086731,360.540985 660.149231,361.429688 
	C664.456055,349.097626 668.396667,337.988739 672.206299,326.835114 
	C674.230713,320.907959 676.028015,314.903259 678.193359,308.957062 
	C678.193359,308.957062 678.330078,308.649902 678.330078,308.649902 
	C678.330078,308.649902 677.982666,309.000732 677.360352,309.248505 
M629.499939,722.470032 
	C629.682068,720.658875 630.022278,718.847778 630.023254,717.036560 
	C630.048584,671.052795 630.038330,625.068970 630.034302,579.085205 
	C630.034180,577.464294 630.034302,575.843384 630.034302,573.473633 
	C620.241333,573.473633 611.022217,573.473633 601.550476,573.473633 
	C601.485718,574.099121 601.329712,574.904541 601.329468,575.709900 
	C601.313721,622.692993 601.284607,669.676086 601.332825,716.659180 
	C601.340820,724.445862 605.733459,729.940918 612.837524,731.625122 
	C619.528931,733.211487 625.298523,730.248352 629.499939,722.470032 
M639.686401,307.137299 
	C639.448181,307.575409 639.208374,308.012695 638.971985,308.451813 
	C637.096069,311.935577 636.037415,315.438507 640.168945,318.035858 
	C643.572449,320.175568 646.989929,318.527222 649.660156,313.625854 
	C652.284546,308.808472 654.737427,303.897705 657.356018,299.076996 
	C659.188904,295.702759 659.333069,292.443970 655.801758,290.399139 
	C652.194824,288.310486 649.025757,289.566498 647.021973,293.247528 
	C644.637756,297.627136 642.343079,302.055481 639.686401,307.137299 
M586.684387,290.796814 
	C583.599670,285.722504 580.554932,284.173615 577.305298,286.025482 
	C573.989319,287.915222 573.749329,291.209076 576.595093,296.510925 
	C578.640259,300.321136 580.731262,304.106812 582.808594,307.899719 
	C584.670776,311.299866 587.397522,312.933655 591.046814,310.964020 
	C594.694336,308.995331 594.834900,305.777618 593.029053,302.383423 
	C591.075256,298.711243 589.019165,295.093536 586.684387,290.796814 
M677.327393,392.592712 
	C673.840271,396.956238 673.647278,401.184967 676.994873,404.001740 
	C680.192444,406.692322 683.744812,406.873138 686.997253,404.251648 
	C690.120728,401.734222 690.537231,398.377289 688.668274,394.850586 
	C686.622131,390.989441 683.143372,390.150330 677.327393,392.592712 
M622.113281,389.688324 
	C619.926575,386.283630 616.510071,384.949921 613.103882,386.502625 
	C610.922363,387.497040 608.406494,390.336304 608.249817,392.507996 
	C608.074158,394.941956 609.771851,398.591339 611.796204,399.800781 
	C613.830811,401.016327 617.711548,400.742371 619.991089,399.574615 
	C623.464661,397.795227 623.852905,394.071350 622.113281,389.688324 
M540.069702,392.544159 
	C537.136169,395.634308 536.572388,399.390289 539.214417,402.460999 
	C540.759216,404.256500 544.292419,405.819275 546.368164,405.287872 
	C548.708618,404.688721 551.491455,401.890228 552.081604,399.544983 
	C552.614807,397.426300 551.115234,393.449402 549.306885,392.430084 
	C547.062866,391.165222 543.578552,392.100677 540.069702,392.544159 
M631.662659,393.093842 
	C638.510193,394.942810 644.103943,390.807190 642.068176,384.952789 
	C641.220886,382.516266 638.163147,379.588409 635.806702,379.290894 
	C633.447571,378.993042 629.783752,381.080688 628.349609,383.229218 
	C626.082031,386.626740 627.800964,390.175842 631.662659,393.093842 
M679.576965,336.280334 
	C677.396912,339.356750 677.030640,342.927673 679.695129,345.368134 
	C681.604370,347.116913 685.105164,348.389709 687.529968,347.932831 
	C689.642700,347.534760 692.345886,344.629364 692.763245,342.444946 
	C693.189209,340.215637 691.808960,336.780853 690.037964,335.184937 
	C687.055603,332.497406 683.288208,332.971344 679.576965,336.280334 
M535.470642,334.463593 
	C542.329102,335.901794 547.418518,332.661743 545.974854,327.193573 
	C545.276367,324.547852 542.351379,321.322235 539.839600,320.677856 
	C537.676575,320.122955 533.800354,322.201660 532.228699,324.283722 
	C529.515808,327.877686 531.334839,331.461731 535.470642,334.463593 
M603.951111,385.618042 
	C603.664551,384.668365 603.525391,383.639648 603.065857,382.782745 
	C601.109253,379.133972 597.761047,378.161316 594.125732,379.164581 
	C590.568665,380.146210 588.727112,382.886047 588.944397,386.741119 
	C589.181702,390.951508 591.842896,392.977997 595.605591,393.660400 
	C599.735229,394.409393 602.614868,391.776367 603.951111,385.618042 
z"/>
<path fill="#254765" opacity="1.000000" stroke="none" 
	d="
M571.762573,590.902771 
	C571.723633,607.717285 571.712830,624.531982 571.629700,641.346313 
	C571.602783,646.802795 573.247742,653.464478 570.719238,657.365479 
	C568.326111,661.057556 561.482666,661.901306 556.561035,663.910889 
	C544.849487,668.692688 533.100647,673.383179 521.396423,678.182800 
	C498.222198,687.686096 474.051666,692.372559 449.130005,690.597778 
	C424.570251,688.848694 401.049377,692.972412 377.660126,699.523071 
	C361.322357,704.098755 344.906067,708.394104 328.037231,712.946228 
	C328.037231,665.753235 328.037231,618.861267 328.037231,571.403198 
	C334.356506,570.962708 340.770416,570.618225 347.164368,570.049194 
	C361.423431,568.779968 375.699463,567.632263 389.917450,565.991943 
	C402.151398,564.580383 412.552490,559.243774 421.993713,551.119995 
	C436.364532,538.754456 451.226501,526.933228 466.237701,515.344238 
	C490.253693,496.803528 517.221619,484.841888 547.315857,480.037018 
	C555.165710,478.783691 562.874084,476.644318 571.160400,474.797577 
	C571.160400,486.118988 571.160400,497.136414 571.160400,508.740509 
	C558.799866,509.837646 546.442993,511.147064 534.053528,511.959595 
	C525.751038,512.504089 517.402832,512.393005 509.074036,512.470642 
	C506.274475,512.496704 503.199158,512.417175 503.171082,516.073792 
	C503.140778,520.026489 506.326233,520.111206 509.332611,519.910461 
	C536.075745,518.125183 562.817688,516.320801 589.563965,514.583984 
	C595.212524,514.217224 600.878174,513.897949 606.534790,513.916748 
	C618.003235,513.954895 625.681030,520.289062 627.344238,530.765381 
	C629.040527,541.450500 623.029907,552.066223 612.523682,554.923401 
	C603.725708,557.316040 594.561462,558.365784 585.554993,559.985718 
	C582.290955,560.572754 579.014099,561.088867 574.931702,561.733765 
	C565.239075,563.226196 556.387695,564.872192 547.467285,565.940735 
	C540.104675,566.822632 534.891235,570.278076 530.896851,576.468201 
	C525.213989,585.274963 519.339539,593.984070 513.077698,602.385132 
	C503.850616,614.764587 491.747864,623.355286 476.820190,627.597961 
	C472.036682,628.957520 466.957306,629.294250 462.202759,630.727478 
	C460.522522,631.234009 459.406647,633.612732 458.033142,635.136719 
	C459.780975,636.229187 461.634552,638.380005 463.257050,638.217896 
	C468.359131,637.708252 473.438812,636.571045 478.412018,635.244995 
	C500.106445,629.460449 515.156189,615.164368 527.062378,596.903320 
	C531.061340,590.769897 535.050842,584.626099 539.242310,578.625122 
	C540.324707,577.075378 541.988037,575.271667 543.669434,574.910400 
	C552.676819,572.974548 561.774231,571.458130 571.762573,569.627869 
	C571.762573,577.319397 571.762573,584.111084 571.762573,590.902771 
z"/>
<path fill="#2A4B69" opacity="1.000000" stroke="none" 
	d="
M652.848816,621.943604 
	C652.726990,626.257141 652.504456,630.570618 652.499695,634.884277 
	C652.469604,662.200806 652.497375,689.517334 652.486694,716.833862 
	C652.478455,737.749695 636.349365,753.952332 615.528076,753.993408 
	C595.420593,754.033081 579.097961,737.892334 579.017944,717.418518 
	C578.855347,675.777283 578.921509,634.135132 578.907959,591.681030 
	C579.029541,583.434570 579.136597,576.000488 579.243652,568.566406 
	C583.999939,567.837463 588.756165,567.108521 594.093567,566.290527 
	C594.093567,568.591614 594.094299,570.715820 594.093506,572.840027 
	C594.075623,620.647400 594.023315,668.454712 594.060913,716.262085 
	C594.071838,730.148682 603.688599,739.637085 616.906921,739.104675 
	C627.526978,738.676941 636.137512,730.600891 637.236389,719.996582 
	C637.390564,718.509399 637.429260,717.004456 637.428345,715.507812 
	C637.369324,621.725586 637.300659,527.943359 637.233032,434.161163 
	C637.231995,432.670105 637.232849,431.179047 637.232849,429.307495 
	C622.947266,429.307495 608.879272,429.307495 594.227661,429.307495 
	C594.227661,455.129059 594.227661,481.004913 594.227661,507.076691 
	C589.030029,507.449005 584.394531,507.781036 579.158142,508.156097 
	C579.158142,481.919952 579.158142,455.898773 579.158142,429.740326 
	C577.461914,429.537720 576.320801,429.442688 575.194031,429.259735 
	C570.364014,428.475555 567.511230,425.131683 567.903992,420.751709 
	C568.278625,416.573669 571.295349,413.963531 576.243469,413.950256 
	C593.067322,413.905029 609.891541,413.976135 626.715576,413.985901 
	C635.710693,413.991119 644.705750,413.949493 653.700867,413.951752 
	C660.181396,413.953400 663.589355,416.320496 663.908386,420.987579 
	C664.248169,425.958282 660.993958,428.808990 654.428711,429.317139 
	C653.945679,429.354523 653.473389,429.530975 652.661682,429.721039 
	C652.661682,440.163940 652.661682,450.627686 652.653320,462.005249 
	C652.648987,498.486450 652.633423,534.053833 652.665344,569.621216 
	C652.681030,587.062073 652.784912,604.502808 652.848816,621.943604 
z"/>
<path fill="#29DBD2" opacity="1.000000" stroke="none" 
	d="
M560.001587,306.019653 
	C573.281067,318.759277 586.560547,331.498901 599.936890,344.331482 
	C605.009888,321.079498 610.261475,297.009216 615.537354,272.827271 
	C621.023376,297.444824 626.492798,321.987732 632.124573,347.259247 
	C647.620667,334.238159 662.490540,321.743347 677.660645,309.106201 
	C677.960876,308.963928 677.927856,308.933563 677.927856,308.933563 
	C676.028015,314.903259 674.230713,320.907959 672.206299,326.835114 
	C668.396667,337.988739 664.456055,349.097626 660.149231,361.429688 
	C671.086731,360.540985 681.068848,359.729950 691.051025,358.918884 
	C691.293518,359.217407 691.536011,359.515900 691.778564,359.814423 
	C676.657471,374.760162 661.536377,389.705902 646.415283,404.651642 
	C646.094360,404.339233 645.773438,404.026855 645.452515,403.714447 
	C649.208557,394.464447 652.964539,385.214447 656.964233,375.364349 
	C651.927063,375.653473 647.850464,375.887451 643.157471,376.156830 
	C645.033203,367.883453 646.777344,360.190613 648.849670,351.049957 
	C640.116150,358.271179 632.520081,364.551880 624.229675,371.406738 
	C621.288635,360.824799 618.586670,351.103149 615.884705,341.381500 
	C615.602356,341.336700 615.320007,341.291931 615.037598,341.247131 
	C612.311157,351.021332 609.584656,360.795563 606.565918,371.617645 
	C598.930542,364.631897 591.787903,358.096985 583.755554,350.748047 
	C584.993774,358.992706 586.078918,366.218048 587.301270,374.356934 
	C582.222961,373.625916 577.759766,372.983429 572.651611,372.248077 
	C577.204163,382.868134 581.523499,392.944092 585.842773,403.020050 
	C585.401184,403.239410 584.959534,403.458801 584.517883,403.678162 
	C567.113159,385.865570 549.708435,368.052979 532.506226,350.447662 
	C544.456116,353.012665 557.004150,355.706024 571.096375,358.730865 
	C567.205322,340.717743 563.540466,323.751740 559.949707,306.384949 
	C560.023743,305.984161 560.001587,306.019684 560.001587,306.019653 
z"/>
<path fill="#27DBCB" opacity="1.000000" stroke="none" 
	d="
M629.343506,722.849243 
	C625.298523,730.248352 619.528931,733.211487 612.837524,731.625122 
	C605.733459,729.940918 601.340820,724.445862 601.332825,716.659180 
	C601.284607,669.676086 601.313721,622.692993 601.329468,575.709900 
	C601.329712,574.904541 601.485718,574.099121 601.550476,573.473633 
	C611.022217,573.473633 620.241333,573.473633 630.034302,573.473633 
	C630.034302,575.843384 630.034180,577.464294 630.034302,579.085205 
	C630.038330,625.068970 630.048584,671.052795 630.023254,717.036560 
	C630.022278,718.847778 629.682068,720.658875 629.343506,722.849243 
z"/>
<path fill="#F6F9FA" opacity="1.000000" stroke="none" 
	d="
M653.217957,621.990173 
	C652.784912,604.502808 652.681030,587.062073 652.665344,569.621216 
	C652.633423,534.053833 652.648987,498.486450 652.764221,462.463562 
	C654.975342,461.338715 657.067139,460.669373 659.654907,460.458710 
	C660.150818,471.878052 660.150818,482.838715 660.150818,494.108246 
	C665.369934,492.948273 669.685547,491.989136 674.001160,491.029968 
	C676.430847,494.397949 672.784180,496.212952 671.677368,499.309662 
	C668.446716,500.604919 665.511047,501.208160 662.706177,502.186340 
	C661.699768,502.537354 660.292480,503.782806 660.281250,504.636047 
	C660.122620,516.662231 660.173401,528.691162 660.173401,541.137451 
	C667.257996,539.327026 673.630432,537.698547 680.002869,536.070068 
	C679.357788,538.172424 678.712708,540.274780 677.693665,542.921570 
	C672.528564,544.796692 667.699036,546.009155 662.974548,547.544678 
	C661.851013,547.909851 660.282532,549.343323 660.266785,550.307373 
	C660.078796,561.836609 660.145386,573.370056 660.145386,585.342407 
	C663.606445,584.495972 666.306641,583.835632 669.006897,583.175293 
	C668.341309,585.446228 667.675781,587.717102 666.584717,590.423218 
	C661.626221,590.481384 659.742859,592.080872 659.958557,597.082336 
	C660.344910,606.038574 659.931885,615.029297 659.853027,624.005615 
	C657.764404,623.349365 655.675720,622.693054 653.217957,621.990173 
z"/>
<path fill="#EFF2F2" opacity="1.000000" stroke="none" 
	d="
M579.106628,568.212402 
	C579.136597,576.000488 579.029541,583.434570 578.836304,591.235229 
	C577.500244,592.204773 576.250244,592.807800 574.774963,593.519531 
	C574.069580,592.755371 573.271179,591.890259 572.117676,590.963989 
	C571.762573,584.111084 571.762573,577.319397 571.762573,569.627869 
	C561.774231,571.458130 552.676819,572.974548 543.669434,574.910400 
	C541.988037,575.271667 540.324707,577.075378 539.242310,578.625122 
	C535.050842,584.626099 531.061340,590.769897 527.062378,596.903320 
	C515.156189,615.164368 500.106445,629.460449 478.412018,635.244995 
	C473.438812,636.571045 468.359131,637.708252 463.257050,638.217896 
	C461.634552,638.380005 459.780975,636.229187 458.033142,635.136719 
	C459.406647,633.612732 460.522522,631.234009 462.202759,630.727478 
	C466.957306,629.294250 472.036682,628.957520 476.820190,627.597961 
	C491.747864,623.355286 503.850616,614.764587 513.077698,602.385132 
	C519.339539,593.984070 525.213989,585.274963 530.896851,576.468201 
	C534.891235,570.278076 540.104675,566.822632 547.467285,565.940735 
	C556.387695,564.872192 565.239075,563.226196 574.556213,561.881348 
	C576.317932,563.907898 577.643799,565.883118 579.106628,568.212402 
z"/>
<path fill="#284A68" opacity="1.000000" stroke="none" 
	d="
M680.320557,535.876953 
	C673.630432,537.698547 667.257996,539.327026 660.173401,541.137451 
	C660.173401,528.691162 660.122620,516.662231 660.281250,504.636047 
	C660.292480,503.782806 661.699768,502.537354 662.706177,502.186340 
	C665.511047,501.208160 668.446716,500.604919 671.647827,499.694519 
	C675.891663,499.185883 679.910400,498.132324 683.725891,498.631836 
	C691.936768,499.706848 697.140137,505.315857 698.433777,513.275330 
	C699.713257,521.147827 696.070312,528.698059 688.935791,532.399536 
	C686.309021,533.762329 683.412048,534.604370 680.320557,535.876953 
z"/>
<path fill="#264968" opacity="1.000000" stroke="none" 
	d="
M669.352417,583.000366 
	C666.306641,583.835632 663.606445,584.495972 660.145386,585.342407 
	C660.145386,573.370056 660.078796,561.836609 660.266785,550.307373 
	C660.282532,549.343323 661.851013,547.909851 662.974548,547.544678 
	C667.699036,546.009155 672.528564,544.796692 677.658203,543.293457 
	C680.732117,543.722717 683.641174,543.919739 686.169678,545.004089 
	C693.142273,547.994324 696.711792,553.711365 696.751404,561.130188 
	C696.791077,568.564514 693.299988,574.389526 686.262878,577.281250 
	C680.889221,579.489441 675.230103,581.002930 669.352417,583.000366 
z"/>
<path fill="#284A68" opacity="1.000000" stroke="none" 
	d="
M674.314209,490.838135 
	C669.685547,491.989136 665.369934,492.948273 660.150818,494.108246 
	C660.150818,482.838715 660.150818,471.878052 660.051147,460.457672 
	C660.621094,459.013519 661.073792,457.505341 661.993286,457.124634 
	C672.874512,452.619720 684.558411,457.149292 688.159363,467.118256 
	C691.849365,477.333405 686.454041,486.714050 674.314209,490.838135 
z"/>
<path fill="#2A4B69" opacity="1.000000" stroke="none" 
	d="
M659.963867,624.322754 
	C659.931885,615.029297 660.344910,606.038574 659.958557,597.082336 
	C659.742859,592.080872 661.626221,590.481384 666.583862,590.792114 
	C675.617004,593.506226 679.735779,598.145569 680.179565,605.561279 
	C680.651489,613.447083 676.799561,619.319519 668.484131,622.700623 
	C665.853088,623.770325 662.887268,624.016663 659.963867,624.322754 
z"/>
<path fill="#2ADDD5" opacity="1.000000" stroke="none" 
	d="
M639.848022,306.800018 
	C642.343079,302.055481 644.637756,297.627136 647.021973,293.247528 
	C649.025757,289.566498 652.194824,288.310486 655.801758,290.399139 
	C659.333069,292.443970 659.188904,295.702759 657.356018,299.076996 
	C654.737427,303.897705 652.284546,308.808472 649.660156,313.625854 
	C646.989929,318.527222 643.572449,320.175568 640.168945,318.035858 
	C636.037415,315.438507 637.096069,311.935577 638.971985,308.451813 
	C639.208374,308.012695 639.448181,307.575409 639.848022,306.800018 
z"/>
<path fill="#2ADDD5" opacity="1.000000" stroke="none" 
	d="
M586.846069,291.124451 
	C589.019165,295.093536 591.075256,298.711243 593.029053,302.383423 
	C594.834900,305.777618 594.694336,308.995331 591.046814,310.964020 
	C587.397522,312.933655 584.670776,311.299866 582.808594,307.899719 
	C580.731262,304.106812 578.640259,300.321136 576.595093,296.510925 
	C573.749329,291.209076 573.989319,287.915222 577.305298,286.025482 
	C580.554932,284.173615 583.599670,285.722504 586.846069,291.124451 
z"/>
<path fill="#2EDFD8" opacity="1.000000" stroke="none" 
	d="
M677.641113,392.367126 
	C683.143372,390.150330 686.622131,390.989441 688.668274,394.850586 
	C690.537231,398.377289 690.120728,401.734222 686.997253,404.251648 
	C683.744812,406.873138 680.192444,406.692322 676.994873,404.001740 
	C673.647278,401.184967 673.840271,396.956238 677.641113,392.367126 
z"/>
<path fill="#2EDFD8" opacity="1.000000" stroke="none" 
	d="
M622.300049,390.040009 
	C623.852905,394.071350 623.464661,397.795227 619.991089,399.574615 
	C617.711548,400.742371 613.830811,401.016327 611.796204,399.800781 
	C609.771851,398.591339 608.074158,394.941956 608.249817,392.507996 
	C608.406494,390.336304 610.922363,387.497040 613.103882,386.502625 
	C616.510071,384.949921 619.926575,386.283630 622.300049,390.040009 
z"/>
<path fill="#2EDFD8" opacity="1.000000" stroke="none" 
	d="
M540.349854,392.314941 
	C543.578552,392.100677 547.062866,391.165222 549.306885,392.430084 
	C551.115234,393.449402 552.614807,397.426300 552.081604,399.544983 
	C551.491455,401.890228 548.708618,404.688721 546.368164,405.287872 
	C544.292419,405.819275 540.759216,404.256500 539.214417,402.460999 
	C536.572388,399.390289 537.136169,395.634308 540.349854,392.314941 
z"/>
<path fill="#2ADDD5" opacity="1.000000" stroke="none" 
	d="
M631.327881,392.909058 
	C627.800964,390.175842 626.082031,386.626740 628.349609,383.229218 
	C629.783752,381.080688 633.447571,378.993042 635.806702,379.290894 
	C638.163147,379.588409 641.220886,382.516266 642.068176,384.952789 
	C644.103943,390.807190 638.510193,394.942810 631.327881,392.909058 
z"/>
<path fill="#2EDFD8" opacity="1.000000" stroke="none" 
	d="
M679.840271,336.003113 
	C683.288208,332.971344 687.055603,332.497406 690.037964,335.184937 
	C691.808960,336.780853 693.189209,340.215637 692.763245,342.444946 
	C692.345886,344.629364 689.642700,347.534760 687.529968,347.932831 
	C685.105164,348.389709 681.604370,347.116913 679.695129,345.368134 
	C677.030640,342.927673 677.396912,339.356750 679.840271,336.003113 
z"/>
<path fill="#2EDFD8" opacity="1.000000" stroke="none" 
	d="
M535.119995,334.273376 
	C531.334839,331.461731 529.515808,327.877686 532.228699,324.283722 
	C533.800354,322.201660 537.676575,320.122955 539.839600,320.677856 
	C542.351379,321.322235 545.276367,324.547852 545.974854,327.193573 
	C547.418518,332.661743 542.329102,335.901794 535.119995,334.273376 
z"/>
<path fill="#2EDFD8" opacity="1.000000" stroke="none" 
	d="
M603.955078,386.008514 
	C602.614868,391.776367 599.735229,394.409393 595.605591,393.660400 
	C591.842896,392.977997 589.181702,390.951508 588.944397,386.741119 
	C588.727112,382.886047 590.568665,380.146210 594.125732,379.164581 
	C597.761047,378.161316 601.109253,379.133972 603.065857,382.782745 
	C603.525391,383.639648 603.664551,384.668365 603.955078,386.008514 
z"/>
<path fill="#29DBD2" opacity="1.000000" stroke="none" 
	d="
M677.971802,308.982330 
	C677.982666,309.000732 678.330078,308.649902 678.330078,308.649902 
	C678.330078,308.649902 678.193359,308.957062 678.060608,308.945312 
	C677.927856,308.933563 677.960876,308.963928 677.971802,308.982330 
z"/>
<path fill="#29DBD2" opacity="1.000000" stroke="none" 
	d="
M560.040894,305.971008 
	C560.057983,305.957825 559.615112,305.824829 559.615112,305.824829 
	C559.615112,305.824829 559.868530,305.820892 559.935059,305.920288 
	C560.001587,306.019684 560.023743,305.984161 560.040894,305.971008 
z"/>
</svg>