<svg version="1.1" id="Layer_1" xmlns="http://www.w3.org/2000/svg" xmlns:xlink="http://www.w3.org/1999/xlink" x="0px" y="0px"
	 width="100%" viewBox="0 0 1024 1024" enable-background="new 0 0 1024 1024" xml:space="preserve">
<path fill="#000000" opacity="1.000000" stroke="none" 
	d="
M315.023560,714.976929 
	C272.302643,672.214905 246.604218,621.021851 236.956528,561.932068 
	C219.199158,453.172516 267.672089,344.040100 359.835419,283.581726 
	C395.993835,259.862091 435.534027,244.997513 478.319183,240.042572 
	C555.565613,231.096710 625.440857,250.410019 686.541138,298.761505 
	C740.077148,341.127075 774.217590,396.190491 786.766785,463.294800 
	C802.489136,547.366821 784.593933,624.149841 731.177124,691.600708 
	C691.796570,741.327759 641.070068,774.878418 579.292542,789.033936 
	C478.423279,812.146667 390.223358,786.540100 315.023560,714.976929 
M281.566040,641.963074 
	C282.752258,644.161865 283.883911,646.392212 285.132477,648.554993 
	C341.661987,746.472351 453.674896,797.598022 564.526733,775.325134 
	C624.994080,763.175720 675.333191,732.890320 714.543152,685.386902 
	C765.205933,624.008301 783.693787,553.225098 771.698181,474.762573 
	C763.944946,424.049683 742.227478,379.494141 707.630493,341.676117 
	C662.190735,292.005951 605.830444,263.183777 538.679138,256.162292 
	C511.334839,253.303131 484.086945,254.471771 457.276855,260.721313 
	C386.337006,277.257690 330.401093,315.634247 291.168732,377.212128 
	C258.642700,428.263916 245.628143,484.386658 251.592239,544.558716 
	C254.971283,578.649963 264.864868,611.038940 281.566040,641.963074 
z"/>
<path fill="#000000" opacity="1.000000" stroke="none" 
	d="
M642.158386,302.769836 
	C689.204834,331.939575 723.731201,371.428589 744.685852,422.412384 
	C758.817505,456.795563 765.130676,492.736542 763.032104,529.805542 
	C759.374817,594.409668 735.312073,650.373596 689.170654,696.086670 
	C653.615417,731.311768 611.154114,754.635010 561.848022,763.837646 
	C493.086212,776.671570 428.838104,764.400024 370.955811,724.515442 
	C315.172028,686.076904 279.919708,632.953430 267.400391,566.563538 
	C251.799362,483.831299 272.143982,409.949524 329.104248,347.202789 
	C364.433258,308.284760 408.280243,283.245972 459.636261,272.472687 
	C524.055969,258.958923 585.020874,268.874298 642.158386,302.769836 
M449.784454,292.332428 
	C443.151215,294.515442 436.373962,296.339905 429.906860,298.936707 
	C361.077332,326.575012 314.551208,375.598083 290.334045,445.620117 
	C282.330414,468.761963 278.937164,492.795135 279.016907,517.298645 
	C279.031189,521.694702 278.671875,526.042603 277.265381,530.400513 
	C273.971436,529.198547 273.308838,526.521484 271.725586,524.685608 
	C270.970520,523.810059 270.351318,522.658936 268.994354,522.792175 
	C267.334106,522.955139 266.959503,524.432617 266.648285,525.680664 
	C265.414520,530.628296 265.409607,535.599365 267.044342,540.456665 
	C268.615692,545.125610 270.719086,546.035645 274.897980,543.276428 
	C278.103394,541.160034 279.424255,542.164612 280.148956,545.299194 
	C280.934631,548.697693 281.656036,552.117432 282.231110,555.557129 
	C290.722473,606.345703 313.299011,650.093994 350.251770,685.664734 
	C401.704193,735.192871 463.669159,756.640442 534.938843,750.731384 
	C560.713501,748.594360 585.382019,741.986389 608.897217,731.310974 
	C705.149048,687.614929 760.867859,584.170227 743.622375,479.781830 
	C736.389648,436.001770 718.443054,397.048340 688.896729,363.998596 
	C644.776917,314.647125 589.681213,287.371368 523.127563,284.011017 
	C498.448090,282.764954 474.319885,285.519989 449.784454,292.332428 
z"/>
<path fill="#000000" opacity="1.000000" stroke="none" 
	d="
M468.656189,410.257141 
	C471.687317,409.029633 474.442902,408.651917 477.322968,408.657227 
	C501.151123,408.701355 524.979431,408.649506 548.807617,408.693237 
	C560.715271,408.715088 569.283997,417.252441 569.326599,429.112793 
	C569.382202,444.609314 569.453369,460.107513 569.266235,475.601990 
	C569.221069,479.339386 570.459229,481.727875 573.393616,483.985992 
	C584.218323,492.315979 594.872192,500.869263 605.530640,509.412994 
	C607.599609,511.071503 609.764099,511.757416 612.406433,511.737366 
	C624.403259,511.646240 636.401245,511.662231 648.398560,511.700226 
	C656.561035,511.726044 660.669189,515.297241 661.642273,523.490967 
	C662.052612,526.945679 661.977539,530.474915 661.914490,533.966492 
	C661.238464,571.432739 661.360718,608.898438 661.908752,646.364441 
	C661.925781,647.529785 661.973267,648.705322 661.854065,649.860352 
	C661.308594,655.143555 657.792969,658.703491 652.893372,659.007202 
	C648.597046,659.273438 644.849060,656.415283 643.704224,651.433411 
	C639.943359,635.067383 636.359497,618.660767 632.668884,602.278503 
	C632.061462,599.582092 631.259094,596.929626 629.487244,594.222656 
	C627.431885,603.197327 625.384583,612.173767 623.319092,621.146118 
	C621.080750,630.869690 618.884399,640.603516 616.555664,650.305481 
	C615.147705,656.170959 611.390442,659.350159 606.675415,658.975525 
	C601.257385,658.544983 597.967896,654.771606 597.935425,648.158508 
	C597.809448,622.497864 597.832886,596.836487 597.815369,571.175354 
	C597.808838,561.510803 597.845459,551.846191 597.854980,542.181641 
	C597.856934,540.190308 598.157715,538.067688 596.771973,536.410767 
	C588.465332,526.478638 580.105042,516.591309 571.581177,506.473358 
	C569.236023,508.648865 569.383484,510.882507 569.383789,512.935669 
	C569.389038,556.092590 569.377014,599.249817 569.532776,642.406311 
	C569.567444,652.015320 564.589783,659.193848 556.406433,660.241394 
	C546.859558,661.463501 540.306946,656.515259 537.882996,646.218567 
	C530.490417,614.815430 523.108887,583.409668 515.718140,552.006104 
	C515.227051,549.919312 514.805542,547.796265 513.305420,546.015259 
	C510.769409,546.779358 510.942169,549.180237 510.541107,550.895691 
	C503.085114,582.786011 495.735840,614.701233 488.383606,646.615784 
	C486.098175,656.536316 479.823090,661.260803 470.126404,660.282104 
	C462.004852,659.462280 456.686920,652.807312 456.679840,643.252014 
	C456.649292,602.093933 456.684021,560.935852 456.599091,519.777954 
	C456.592133,516.405518 457.434692,513.742126 459.761292,511.229889 
	C465.645996,504.875580 471.318726,498.324554 477.054626,491.833130 
	C478.965240,489.670837 481.282196,487.209900 478.369324,484.538757 
	C475.254822,481.682739 473.410461,484.656036 471.539886,486.809479 
	C457.997345,502.400177 444.483429,518.016357 430.830902,533.510376 
	C428.235687,536.455627 427.240753,539.502502 427.255432,543.422485 
	C427.386444,578.414734 427.346680,613.407654 427.330719,648.400391 
	C427.328003,654.329102 424.870789,657.656189 419.945496,658.657227 
	C414.530396,659.757751 410.625519,656.630798 409.047302,649.673035 
	C405.553497,634.269653 402.163208,618.842834 398.698914,603.432739 
	C398.044434,600.521423 397.242889,597.643250 396.283569,593.859863 
	C393.793488,598.503662 393.472290,602.947083 392.484070,607.128357 
	C389.003723,621.853882 385.759460,636.635132 382.375183,651.383667 
	C381.188232,656.556335 377.494537,659.449646 372.854187,659.031189 
	C367.724945,658.568787 364.172150,654.595276 364.188049,649.169800 
	C364.309784,607.690430 364.441650,566.211060 364.605774,524.731812 
	C364.639282,516.266235 369.078491,511.780151 377.564240,511.715668 
	C389.394440,511.625763 401.225952,511.655182 413.056488,511.716827 
	C415.644623,511.730316 417.894043,511.297241 420.001038,509.591370 
	C431.007172,500.680237 442.057892,491.822845 453.181244,483.058716 
	C455.763977,481.023743 455.963165,478.447479 456.118561,475.529785 
	C456.951721,459.882660 456.289459,444.226501 456.549377,428.577759 
	C456.690063,420.108093 460.528809,413.986298 468.656189,410.257141 
z"/>
<path fill="#000000" opacity="1.000000" stroke="none" 
	d="
M549.392639,346.900085 
	C556.004578,368.325775 545.442566,389.305420 524.918335,396.099579 
	C505.247223,402.611359 483.225708,391.949677 476.663330,372.737061 
	C469.598572,352.053680 479.754639,330.336304 499.871094,323.110565 
	C520.142944,315.828979 541.386108,325.885162 549.392639,346.900085 
z"/>
<path fill="#000000" opacity="1.000000" stroke="none" 
	d="
M623.129517,463.654663 
	C633.441528,461.045380 642.887085,464.490936 648.042175,472.495514 
	C653.110474,480.365387 652.425049,491.201996 646.387207,498.660461 
	C640.816589,505.541748 630.517334,508.217621 621.868042,505.030884 
	C613.135132,501.813324 607.229370,493.147766 607.768677,483.537781 
	C608.318237,473.744904 613.404968,467.070953 623.129517,463.654663 
z"/>
<path fill="#000000" opacity="1.000000" stroke="none" 
	d="
M398.692932,462.764587 
	C413.974884,466.248138 421.514038,478.444366 416.964050,491.644653 
	C413.359802,502.101105 402.622162,508.239960 392.062958,505.880920 
	C380.471680,503.291321 373.481812,493.277740 374.729919,481.049744 
	C375.747620,471.078827 385.052826,462.956879 395.764191,462.699646 
	C396.593811,462.679718 397.424866,462.721039 398.692932,462.764587 
z"/>
</svg>