<svg version="1.1" id="Layer_1" xmlns="http://www.w3.org/2000/svg" xmlns:xlink="http://www.w3.org/1999/xlink" x="0px" y="0px"
	 width="100%" viewBox="0 0 1024 1024" enable-background="new 0 0 1024 1024" xml:space="preserve">
<path fill="#000000" opacity="1.000000" stroke="none" 
	d="
M570.072693,245.893799 
	C667.869202,318.364899 687.301147,469.933563 595.772400,565.786804 
	C596.432678,568.494446 598.771973,570.060669 600.449219,572.034424 
	C610.267212,583.587830 620.251343,595.000183 630.052002,606.568115 
	C632.162048,609.058777 633.773926,609.880249 637.116394,608.205750 
	C644.643250,604.434998 653.962952,606.671204 659.843079,613.280884 
	C679.001404,634.816284 698.058044,656.442078 717.179260,678.010620 
	C741.495056,705.438599 765.732910,732.936707 790.209351,760.220764 
	C802.353638,773.758118 801.316101,792.248901 787.286499,803.900269 
	C782.545715,807.837341 777.822998,811.798340 773.166138,815.833923 
	C759.012573,828.099426 739.671753,826.743469 727.473450,812.318665 
	C688.634094,766.389954 649.886292,720.383728 611.106140,674.404907 
	C608.098633,670.839172 605.005676,667.338501 602.141602,663.660278 
	C595.909973,655.657227 595.404907,648.079712 600.868469,639.690002 
	C602.434631,637.284973 601.938171,636.045959 600.312622,634.157410 
	C589.443726,621.529846 578.609070,608.870667 567.945435,596.070068 
	C565.608032,593.264282 563.872620,593.149719 560.908325,595.148987 
	C532.807129,614.102417 501.943359,626.203308 468.267395,629.949890 
	C403.955872,637.104736 346.771362,620.136169 298.158081,576.904175 
	C258.549438,541.680054 236.166580,497.078461 228.904388,444.829315 
	C214.730865,342.855652 277.701935,242.822189 376.215851,212.539810 
	C445.915924,191.114609 510.761749,202.517090 570.072693,245.893799 
M259.277924,400.565582 
	C257.438751,412.866699 258.054260,425.230408 259.538086,437.432556 
	C264.737854,480.193481 281.984436,517.398132 313.082581,547.485352 
	C355.746643,588.762573 407.050385,605.766235 465.785431,598.369934 
	C501.460785,593.877563 533.338806,579.367798 560.374390,555.404358 
	C608.328918,512.899170 628.621033,459.171631 622.306396,395.786743 
	C618.650208,359.087097 604.547241,326.092499 579.962646,298.372253 
	C532.451904,244.801712 472.933167,224.373108 402.762390,238.114319 
	C357.985565,246.882751 322.051361,271.202728 294.662964,307.584290 
	C274.181183,334.791443 262.679962,365.725922 259.277924,400.565582 
z"/>
<path fill="#000000" opacity="1.000000" stroke="none" 
	d="
M508.295776,329.944824 
	C507.820007,357.192108 496.575836,379.201630 478.531769,398.272278 
	C464.867889,412.713470 449.179413,424.885437 434.319092,437.984344 
	C420.168518,450.457733 407.785736,464.248932 400.917297,482.182709 
	C394.476837,498.998993 394.604218,516.002563 399.833771,533.091370 
	C400.358215,534.805054 401.507874,536.403931 400.559692,539.124695 
	C394.090942,539.124695 387.349731,539.225342 380.614197,539.073792 
	C378.018494,539.015381 377.745178,536.544922 377.280945,534.674805 
	C369.873749,504.832214 374.025970,476.906891 391.244232,451.172211 
	C402.055267,435.013824 416.823364,422.776947 431.464447,410.384460 
	C445.198364,398.759796 459.107605,387.292328 470.043671,372.783905 
	C486.855896,350.479919 490.309021,325.980865 482.111572,299.558899 
	C481.726501,298.317749 480.881256,297.150940 481.855774,294.924744 
	C488.375824,294.924744 495.283447,294.681396 502.158081,295.050995 
	C504.714447,295.188416 504.744629,298.236206 505.198761,300.261871 
	C507.352295,309.868134 508.702759,319.572113 508.295776,329.944824 
z"/>
<path fill="#000000" opacity="1.000000" stroke="none" 
	d="
M483.266663,530.302612 
	C492.035431,494.926208 479.883850,467.009338 454.113434,443.701843 
	C446.890656,437.169342 446.922607,437.133942 454.175537,431.039795 
	C454.303040,430.932648 454.431396,430.826599 454.558716,430.719269 
	C464.796082,422.092255 464.768372,422.120148 474.468933,431.737610 
	C490.536316,447.667511 502.556488,465.888550 506.735870,488.552032 
	C509.581543,503.983215 508.941406,519.301636 505.160767,534.522583 
	C504.335999,537.843262 502.910034,539.636475 499.026764,539.397766 
	C493.253265,539.042908 487.441772,539.305908 481.565399,539.305908 
	C480.701630,535.773315 482.879822,533.409851 483.266663,530.302612 
z"/>
<path fill="#000000" opacity="1.000000" stroke="none" 
	d="
M396.223297,331.779907 
	C397.249390,348.444000 403.644501,362.490417 413.539307,375.058624 
	C418.692719,381.604370 424.514587,387.566162 430.651093,393.209930 
	C431.981995,394.434021 433.548126,395.481903 434.161346,397.790771 
	C429.951111,402.475708 424.623566,406.178558 419.754150,410.378662 
	C418.140076,411.770905 416.675476,410.877228 415.343933,409.667847 
	C395.608643,391.742950 379.785736,371.417511 375.227081,344.199615 
	C372.662964,328.890289 373.568054,313.734375 377.354034,298.716827 
	C377.812134,296.899750 378.249146,294.954468 380.614929,294.929169 
	C387.221130,294.858429 393.828583,294.904602 401.294830,294.904602 
	C397.481995,307.274963 395.022888,319.076599 396.223297,331.779907 
z"/>
<path fill="#000000" opacity="1.000000" stroke="none" 
	d="
M440.410217,323.479736 
	C428.132446,324.178436 416.331085,324.254761 404.424286,323.250458 
	C402.812378,319.380463 404.698151,315.906189 405.157867,312.402679 
	C405.398438,310.569244 407.376068,310.686951 408.870544,310.686798 
	C430.036652,310.684631 451.202850,310.663574 472.368713,310.739746 
	C476.422974,310.754333 478.689178,314.892090 478.110870,320.882629 
	C477.733856,324.788208 474.645294,323.903259 472.363373,323.748352 
	C461.869202,323.035919 451.372589,323.533478 440.410217,323.479736 
z"/>
<path fill="#000000" opacity="1.000000" stroke="none" 
	d="
M458.289948,523.411133 
	C441.715546,523.398865 425.602936,523.327637 409.491028,523.401184 
	C406.129181,523.416504 404.520874,522.179321 404.643066,518.757385 
	C404.677979,517.780212 404.507965,516.751099 404.213745,515.814453 
	C402.893768,511.612640 404.829803,510.593842 408.689484,510.615387 
	C427.140778,510.718445 445.592957,510.660583 464.044800,510.663513 
	C467.535614,510.664062 471.027649,510.741211 474.516846,510.670868 
	C477.287201,510.614990 478.279205,511.837158 478.274231,514.598633 
	C478.259583,522.686890 477.110138,523.857910 469.221802,523.502014 
	C465.737488,523.344727 462.242279,523.428894 458.289948,523.411133 
z"/>
<path fill="#000000" opacity="1.000000" stroke="none" 
	d="
M405.532410,341.438171 
	C405.196167,338.744385 406.831696,338.716736 408.355652,338.718292 
	C430.468445,338.740723 452.581238,338.780853 474.693939,338.849854 
	C475.314941,338.851776 475.934845,339.219177 476.661682,339.449951 
	C477.195251,343.360962 475.277191,346.586334 474.093170,349.967560 
	C473.338928,352.121490 471.429749,352.200867 469.550903,352.200897 
	C450.596222,352.201019 431.641510,352.173767 412.686951,352.224670 
	C409.949219,352.232025 408.286072,351.143951 407.561462,348.518646 
	C406.943878,346.281250 406.265259,344.060730 405.532410,341.438171 
z"/>
<path fill="#000000" opacity="1.000000" stroke="none" 
	d="
M466.934387,495.283997 
	C446.388489,495.283630 426.330475,495.283630 406.173828,495.283630 
	C405.688782,490.473114 407.388428,487.031250 408.890625,483.574768 
	C409.622864,481.889862 411.352722,482.089569 412.819061,482.083496 
	C431.603699,482.005768 450.388550,481.972656 469.173096,481.877869 
	C471.825317,481.864502 473.688477,482.724548 474.381683,485.451782 
	C475.143829,488.450073 476.870392,491.251587 476.339447,494.600891 
	C473.382385,495.889832 470.357269,495.057739 466.934387,495.283997 
z"/>
<path fill="#000000" opacity="1.000000" stroke="none" 
	d="
M450.547241,380.296021 
	C445.934143,380.304291 441.773285,380.307495 437.612396,380.306183 
	C428.409515,380.303253 423.224365,376.961273 418.435272,367.509216 
	C433.604889,367.509216 448.449249,367.509216 464.614380,367.509216 
	C460.022339,372.867188 457.767395,378.822998 450.547241,380.296021 
z"/>
<path fill="#000000" opacity="1.000000" stroke="none" 
	d="
M429.060913,454.277039 
	C436.567963,453.967102 443.798920,453.147095 450.838531,453.968048 
	C457.412842,454.734680 460.089081,461.057343 464.692078,466.448914 
	C448.747498,466.448914 434.027283,466.448914 418.191589,466.448914 
	C421.662933,461.379150 425.249084,457.986694 429.060913,454.277039 
z"/>
</svg>