<?xml version="1.0" standalone="no"?>
<!DOCTYPE svg PUBLIC "-//W3C//DTD SVG 20010904//EN"
 "http://www.w3.org/TR/2001/REC-SVG-20010904/DTD/svg10.dtd">
<svg version="1.0" xmlns="http://www.w3.org/2000/svg"
 width="1024.000000pt" height="1024.000000pt" viewBox="0 0 1024.000000 1024.000000"
 preserveAspectRatio="xMidYMid meet">

<g transform="translate(0.000000,1024.000000) scale(0.100000,-0.100000)"
fill="#000000" stroke="none">
<path d="M4825 8443 c-905 -44 -1716 -240 -2384 -576 l-144 -72 1 -1135 c0
-1229 4 -1329 58 -1670 180 -1140 789 -2076 1836 -2823 234 -167 538 -348 810
-483 l118 -58 77 38 c803 394 1465 920 1925 1529 430 569 686 1202 782 1937
39 294 42 400 38 1708 l-2 962 -162 79 c-765 372 -1727 577 -2668 569 -124 -1
-252 -3 -285 -5z m1838 -1658 c16 -8 97 -80 182 -161 252 -240 252 -244 -23
-551 -298 -333 -802 -898 -1023 -1148 -253 -286 -551 -622 -732 -825 -82 -91
-156 -164 -179 -177 -49 -27 -121 -30 -176 -8 -45 19 -1114 1081 -1141 1135
-58 111 -43 150 132 330 171 175 189 189 254 196 97 12 98 12 475 -364 191
-190 349 -344 351 -341 1 2 59 67 128 144 114 128 299 337 949 1075 261 296
578 649 600 668 48 41 150 55 203 27z"/>
</g>
</svg>
