<svg version="1.1" id="Layer_1" xmlns="http://www.w3.org/2000/svg" xmlns:xlink="http://www.w3.org/1999/xlink" x="0px" y="0px"
	 width="100%" viewBox="0 0 1024 1024" enable-background="new 0 0 1024 1024" xml:space="preserve">
<path fill="none" opacity="1.000000" stroke="#000000" stroke-linecap="round" stroke-linejoin="round" stroke-width="11.000000"
	d="
M513.000000,437.000000 
	C512.833374,426.833344 512.265869,416.649109 512.709839,406.509186 
	C512.872864,402.785553 512.426697,399.168182 512.442505,395.499756 
	C512.551758,370.166870 512.500000,344.833344 512.500000,319.500000 
	C512.500000,318.166656 512.197327,316.744690 512.557007,315.516693 
	C513.616333,311.899780 512.649292,309.029999 510.009338,306.490265 
	C504.371887,301.066895 501.718262,293.506622 496.127747,287.873230 
	C486.438171,278.109344 475.377319,272.575317 461.500427,272.451202 
	C441.636566,272.273590 423.732697,277.769806 408.005798,290.007446 
	C399.769958,296.416046 394.214783,304.455170 392.420044,314.986359 
	C391.725647,319.060791 389.558594,321.222900 384.518768,321.698761 
	C357.273071,324.271210 337.266785,343.094879 332.550354,369.509003 
	C330.674530,380.014618 330.689728,390.548462 333.427307,401.019012 
	C334.359009,404.582642 333.492523,407.773285 329.513306,409.530151 
	C306.618744,419.638306 295.492523,438.848358 290.715240,462.044342 
	C288.015472,475.152832 288.692474,488.712311 291.111908,501.979584 
	C291.504486,504.132477 291.198212,506.352997 292.369690,508.568878 
	C294.121552,511.882538 292.625000,515.020691 289.990265,517.489624 
	C288.078217,519.281311 286.972748,521.424744 286.478912,523.995972 
	C285.465637,529.271423 288.709961,532.709106 292.592987,534.268433 
	C297.165894,536.104797 297.187256,539.395325 296.354462,542.460449 
	C294.252350,550.197876 295.682190,557.089355 300.035797,563.475586 
	C304.203217,569.588684 308.987976,575.302002 312.859894,581.586304 
	C314.703186,584.578003 317.130035,585.693787 320.009491,586.464539 
	C326.518433,588.206726 329.500000,591.401978 329.500000,597.000000 
	C329.500000,601.702393 324.633026,608.617249 319.992371,608.773926 
	C316.075378,608.906128 312.404083,606.730347 309.947296,603.035034 
	C307.646820,599.574890 307.643402,594.379333 309.532837,591.521729 
	C311.036591,589.247375 312.833374,587.166687 314.500031,585.000000 
"/>
<path fill="none" opacity="1.000000" stroke="#000000" stroke-linecap="round" stroke-linejoin="round" stroke-width="11.000000"
	d="
M689.000000,407.500000 
	C690.413940,407.163422 691.665161,407.125214 692.079285,405.015564 
	C694.905701,390.615967 696.251160,376.238739 691.470581,362.009888 
	C684.071289,339.987061 668.924805,326.721130 645.997009,322.516327 
	C643.519226,322.061920 641.008606,321.667053 638.498108,321.536804 
	C634.142761,321.310913 634.075806,317.827301 633.554749,314.989929 
	C631.670532,304.729279 626.220886,296.422485 618.397400,290.127502 
	C606.966980,280.930206 593.551086,275.751587 579.006042,273.461700 
	C569.773987,272.008301 560.519592,271.517181 551.525391,274.088715 
	C536.789856,278.301849 526.930542,288.613525 519.557556,301.532867 
	C517.841919,304.539124 515.904907,307.139832 513.000000,309.000000 
"/>
<path fill="none" opacity="1.000000" stroke="#000000" stroke-linecap="round" stroke-linejoin="round" stroke-width="6.000000"
	d="
M688.000000,477.500000 
	C688.047058,480.696808 688.549500,483.868896 688.796692,487.015961 
	C689.168213,491.747894 687.633057,495.921082 683.624390,499.634277 
	C671.612061,510.761108 660.092773,522.426880 648.569885,534.069214 
	C646.558777,536.101135 644.571350,536.596497 641.999268,536.526855 
	C638.168762,536.423218 634.333069,536.527527 630.500061,536.494019 
	C623.333191,536.431396 615.230042,538.402344 609.251038,535.695557 
	C602.651428,532.707764 597.686096,525.689636 592.635559,519.882080 
	C590.197937,517.079041 587.850037,516.433533 584.499756,516.447632 
	C561.000183,516.546387 537.500000,516.500000 514.000000,516.500000 
	C489.333344,516.500000 464.666565,516.531311 440.000153,516.452148 
	C437.499847,516.444153 435.704407,516.986816 433.939117,518.945129 
	C429.285797,524.107361 424.192322,528.874207 419.567505,534.060181 
	C417.643188,536.217896 415.570801,536.578003 412.999451,536.528320 
	C408.001312,536.431702 403.000000,536.500000 398.000000,536.500000 
	C392.000000,536.500000 385.286255,538.188904 380.195496,536.037415 
	C374.823608,533.767151 370.975555,527.858337 366.505219,523.494629 
	C357.987152,515.179749 349.754333,506.548798 340.888885,498.624329 
	C336.679230,494.861481 337.320038,490.366119 337.172089,485.994171 
	C337.090210,483.574097 337.368195,481.002319 337.500000,478.500000 
"/>
<path fill="none" opacity="1.000000" stroke="#000000" stroke-linecap="round" stroke-linejoin="round" stroke-width="6.000000"
	d="
M388.750000,370.000000 
	C388.666656,382.833344 388.514557,395.666779 388.535095,408.499939 
	C388.542908,413.380585 395.090546,419.482147 400.000000,419.496735 
	C404.999969,419.511597 410.000000,419.500000 415.000000,419.500000 
	C421.000000,419.500000 427.713745,417.811127 432.804504,419.962585 
	C438.176392,422.232849 442.053864,428.112396 446.488770,432.511322 
	C455.692657,441.640472 464.946564,450.724823 473.913971,460.082428 
	C475.952057,462.209137 477.952728,462.533142 480.500092,462.521149 
	C491.166534,462.470947 501.833344,462.500000 512.500000,462.500000 
	C512.500000,480.333344 512.500000,498.166656 512.500000,516.000000 
"/>
<path fill="none" opacity="1.000000" stroke="#000000" stroke-linecap="round" stroke-linejoin="round" stroke-width="6.000000"
	d="
M637.000000,370.000000 
	C637.000000,382.333344 637.009949,394.666656 636.995789,407.000000 
	C636.988953,412.969940 630.446472,419.494263 624.500000,419.499268 
	C620.000000,419.503052 615.500000,419.500000 611.000000,419.500000 
	C605.000000,419.500000 598.286255,417.811127 593.195496,419.962585 
	C587.823608,422.232880 583.919556,428.086700 579.516724,432.516602 
	C570.294922,441.795135 561.170288,451.170197 551.994629,460.494720 
	C551.026550,461.478485 550.201050,462.545197 548.499817,462.535522 
	C536.664490,462.468201 524.828613,462.500000 512.113464,462.500000 
	C513.943054,454.000000 512.182922,446.000000 513.000000,438.000000 
"/>
<path fill="none" opacity="1.000000" stroke="#000000" stroke-linecap="round" stroke-linejoin="round" stroke-width="12.000000"
	d="
M651.500000,681.000000 
	C651.680908,686.756592 647.850098,690.886902 644.856323,694.892639 
	C631.510864,712.748962 614.636047,726.669739 593.423340,733.771057 
	C574.504883,740.104309 555.427612,740.441528 537.970215,728.041870 
	C529.968445,722.358459 524.233154,714.896179 519.516174,706.490906 
	C518.898499,705.390320 518.828735,703.714050 517.946655,703.073425 
	C512.204468,698.903198 513.024536,693.048157 512.883606,687.002686 
	C512.129578,654.667908 512.591919,622.333252 512.540466,589.999939 
	C512.501953,565.833557 512.833313,541.666687 512.999939,517.500000 
"/>
<path fill="none" opacity="1.000000" stroke="#000000" stroke-linecap="round" stroke-linejoin="round" stroke-width="11.000000"
	d="
M373.500000,680.500000 
	C375.692535,689.115540 381.261902,695.583130 386.978638,702.018982 
	C400.235474,716.943237 415.611847,728.762756 435.013458,734.454102 
	C454.208527,740.084778 472.754913,739.504272 489.474335,726.965759 
	C496.664307,721.573730 501.944763,714.536560 506.071411,706.536865 
	C507.633179,703.509277 509.211609,700.255249 512.500000,698.500000 
"/>
<path fill="none" opacity="1.000000" stroke="#000000" stroke-linecap="round" stroke-linejoin="round" stroke-width="11.000000"
	d="
M692.500000,407.000000 
	C702.761597,412.566193 712.677124,418.506561 720.038574,427.969971 
	C728.688904,439.090210 733.452942,451.641724 735.571106,465.489136 
	C737.895325,480.683655 735.780518,495.573059 733.446167,510.491577 
	C733.370544,510.974640 732.500000,511.333313 732.000000,511.750000 
"/>
<path fill="none" opacity="1.000000" stroke="#000000" stroke-linecap="round" stroke-linejoin="round" stroke-width="6.000000"
	d="
M566.500000,365.500000 
	C566.500000,378.000000 566.472473,390.500122 566.526489,402.999878 
	C566.535767,405.147766 566.310669,406.854309 564.557556,408.559204 
	C555.433960,417.432098 546.432129,426.433990 537.559204,435.557587 
	C535.854309,437.310638 534.147705,437.535522 531.999878,437.526428 
	C519.333435,437.472778 506.666473,437.465668 494.000153,437.528687 
	C491.430908,437.541443 489.404602,437.155457 487.432251,435.063904 
	C479.428650,426.576782 471.305023,418.190338 462.921906,410.080750 
	C460.140137,407.389679 459.240326,404.862671 459.363373,400.995667 
	C459.739502,389.174286 459.500000,377.333344 459.500000,365.500000 
"/>
<path fill="none" opacity="1.000000" stroke="#000000" stroke-linecap="round" stroke-linejoin="round" stroke-width="11.000000"
	d="
M706.500000,609.500000 
	C705.886047,631.093445 700.242981,650.780884 684.473022,666.472900 
	C677.869080,673.044189 669.505066,675.797058 660.599365,678.346985 
	C652.689148,680.611816 646.280273,677.753601 639.583252,675.725159 
	C636.898254,674.911865 634.242126,674.231628 631.500000,673.750000 
"/>
<path fill="none" opacity="1.000000" stroke="#000000" stroke-linecap="round" stroke-linejoin="round" stroke-width="11.000000"
	d="
M319.500000,609.500000 
	C319.426117,628.046509 324.664124,644.876587 335.471985,660.020020 
	C343.381165,671.101929 354.394501,676.091858 367.450256,678.744812 
	C376.424011,680.568298 383.174561,675.541199 391.000000,674.000000 
"/>
<path fill="none" opacity="1.000000" stroke="#000000" stroke-linecap="round" stroke-linejoin="round" stroke-width="6.000000"
	d="
M545.750000,327.000000 
	C545.833313,341.000000 545.870117,355.000580 546.041565,368.999481 
	C546.073608,371.614410 545.524353,373.630524 543.544556,375.546082 
	C536.431030,382.428711 529.545288,389.546051 522.484253,396.483978 
	C517.716980,401.168091 508.669830,401.435303 504.020538,396.978577 
	C496.278534,389.557159 488.718170,381.945984 480.958069,374.543945 
	C479.337006,372.997711 479.502991,371.311157 479.502411,369.500000 
	C479.498016,355.500000 479.500000,341.500000 479.500000,327.500000 
"/>
<path fill="none" opacity="1.000000" stroke="#000000" stroke-linecap="round" stroke-linejoin="round" stroke-width="6.000000"
	d="
M565.500000,698.500000 
	C565.500000,695.833313 565.930725,693.082581 565.429016,690.513855 
	C562.503540,675.534668 572.018677,667.791565 582.484314,660.477539 
	C585.214600,658.569519 585.516357,655.575623 585.512146,652.500000 
	C585.487488,634.333313 585.500000,616.166687 585.500000,598.000000 
	C585.500000,597.166687 585.237061,596.219666 585.540588,595.517517 
	C588.600952,588.437866 583.743347,584.667847 579.519897,580.479919 
	C566.465332,567.534973 553.422485,554.575745 540.572388,541.429260 
	C538.294250,539.098572 536.048767,538.424500 532.999573,538.450073 
	C519.333862,538.564758 505.666565,538.525391 492.000092,538.473633 
	C489.852325,538.465515 488.157166,538.705566 486.442719,540.443481 
	C471.876312,555.209106 457.178192,569.844910 442.489319,584.489258 
	C439.859192,587.111511 438.071045,589.706360 440.411316,593.553955 
	C441.003296,594.527161 440.500000,596.166687 440.500000,597.500000 
	C440.500000,615.000000 440.112976,632.512268 440.666016,649.994751 
	C440.935822,658.525085 440.270203,667.000000 440.500000,675.500000 
"/>
<path fill="none" opacity="1.000000" stroke="#000000" stroke-linecap="round" stroke-linejoin="round" stroke-width="7.000000"
	d="
M513.500000,584.500000 
	C517.710388,584.051025 520.688599,585.524048 523.628845,588.887390 
	C529.355774,595.438416 535.723206,601.449829 542.057556,607.439148 
	C544.387207,609.641968 545.066895,611.983093 545.039551,615.000366 
	C544.939575,625.999451 545.012329,637.000000 544.988708,648.000000 
	C544.984436,650.000122 544.833374,652.000000 544.750061,654.000000 
"/>
<path fill="none" opacity="1.000000" stroke="#000000" stroke-linecap="round" stroke-linejoin="round" stroke-width="6.000000"
	d="
M512.500000,585.000000 
	C507.927124,584.673035 504.562469,586.170532 501.363007,589.881897 
	C495.684357,596.469238 489.284698,602.458923 482.933105,608.428894 
	C480.837616,610.398438 480.445801,612.430054 480.473633,615.000305 
	C480.614258,627.999695 480.666656,641.000000 480.750000,654.000000 
"/>
<path fill="none" opacity="1.000000" stroke="#000000" stroke-linecap="round" stroke-linejoin="round" stroke-width="5.000000"
	d="
M433.000000,556.000000 
	C428.839508,559.673706 425.510345,564.180237 420.593353,567.154358 
	C418.216980,568.591675 417.271027,571.928528 415.058136,574.060364 
	C406.911682,581.908325 399.121246,590.127747 390.917664,597.913208 
	C388.778198,599.943604 388.386597,601.951721 388.486084,604.500549 
	C388.557556,606.331055 388.291107,608.195129 388.535950,609.995117 
	C389.636383,618.085632 387.534485,624.583801 380.583069,629.614746 
	C376.623810,632.480164 373.697540,636.734375 369.926422,639.912720 
	C367.639191,641.840393 367.345245,643.953308 367.500000,646.500000 
"/>
<path fill="none" opacity="1.000000" stroke="#000000" stroke-linecap="round" stroke-linejoin="round" stroke-width="6.000000"
	d="
M564.500000,615.500000 
	C564.500000,613.000000 564.184326,610.452209 564.554565,608.008240 
	C566.172180,597.329651 562.819397,589.131531 554.122253,582.343384 
	C547.667847,577.305725 542.202148,570.955994 536.571350,564.933289 
	C534.606140,562.831360 532.570129,562.437866 529.999634,562.471069 
	C523.334045,562.557312 516.666687,562.500000 510.000000,562.500000 
	C504.000000,562.500000 497.286255,560.811157 492.195496,562.962585 
	C486.823578,565.232849 482.963684,571.129700 478.509583,575.509705 
	C473.467957,580.467407 468.587860,585.592773 463.455963,590.453491 
	C461.452759,592.350891 460.875702,594.382202 460.960510,597.001282 
	C461.165497,603.330627 461.166687,609.666687 461.250000,616.000000 
"/>
<path fill="none" opacity="1.000000" stroke="#000000" stroke-linecap="round" stroke-linejoin="round" stroke-width="6.000000"
	d="
M592.000000,555.000000 
	C606.166687,569.333313 620.272705,583.727661 634.562134,597.937561 
	C636.834290,600.197083 637.858887,602.424133 637.527527,605.502991 
	C637.367920,606.985779 637.675049,608.524292 637.470886,609.995972 
	C636.348938,618.083679 638.514343,624.524536 645.406311,629.626587 
	C649.903137,632.955444 653.500000,637.500000 657.500000,641.500000 
"/>
<path fill="none" opacity="1.000000" stroke="#000000" stroke-linecap="round" stroke-linejoin="round" stroke-width="6.000000"
	d="
M679.500000,531.500000 
	C679.707581,533.806458 678.626526,535.442871 677.025085,537.025391 
	C668.139404,545.805725 659.264343,554.599609 650.559326,563.557678 
	C648.854980,565.311584 647.147888,565.537903 644.999878,565.526611 
	C634.000183,565.469116 622.999939,565.518250 612.000061,565.485168 
	C609.692566,565.478210 607.414062,565.405396 605.500000,567.000000 
"/>
<path fill="none" opacity="1.000000" stroke="#000000" stroke-linecap="round" stroke-linejoin="round" stroke-width="6.000000"
	d="
M346.500000,531.500000 
	C346.303894,533.647034 346.688477,535.354919 348.442413,537.059265 
	C357.400452,545.764282 366.241821,554.593811 374.935944,563.562134 
	C376.654694,565.335083 378.389801,565.518127 380.500031,565.512756 
	C391.333313,565.485168 402.166718,565.518494 412.999969,565.485168 
	C415.307434,565.478027 417.585938,565.405396 419.500000,567.000000 
"/>
<path fill="none" opacity="1.000000" stroke="#000000" stroke-linecap="round" stroke-linejoin="round" stroke-width="6.000000"
	d="
M660.000000,404.000000 
	C660.000000,408.833344 659.814148,413.676025 660.057068,418.497131 
	C660.262268,422.570618 659.136963,425.618713 656.075623,428.578217 
	C644.553894,439.716644 633.313721,451.147186 622.023132,462.522949 
	C620.492554,464.064972 618.196289,465.230988 618.500000,468.000000 
"/>
<path fill="none" opacity="1.000000" stroke="#000000" stroke-linecap="round" stroke-linejoin="round" stroke-width="6.000000"
	d="
M365.750000,404.000000 
	C365.666687,409.833344 365.744934,415.675446 365.428406,421.496094 
	C365.281006,424.206451 366.969788,425.463318 368.502625,426.997375 
	C380.331207,438.835480 392.185486,450.647980 403.976929,462.522888 
	C405.507782,464.064545 407.803711,465.230988 407.500000,468.000000 
"/>
<path fill="none" opacity="1.000000" stroke="#000000" stroke-linecap="round" stroke-linejoin="round" stroke-width="6.000000"
	d="
M625.500000,493.500000 
	C606.500000,493.500000 587.500000,493.500000 568.500000,493.500000 
"/>
<path fill="none" opacity="1.000000" stroke="#000000" stroke-linecap="round" stroke-linejoin="round" stroke-width="6.000000"
	d="
M456.500000,493.500000 
	C438.833344,493.500000 421.166656,493.500000 403.500000,493.500000 
"/>
<path fill="none" opacity="1.000000" stroke="#000000" stroke-linecap="round" stroke-linejoin="round" stroke-width="7.000000"
	d="
M603.500000,321.500000 
	C607.343567,322.548737 608.712158,324.759918 608.660706,329.001953 
	C608.573730,336.176971 608.250122,343.433136 608.508850,350.481323 
	C608.721375,356.270538 608.372253,362.184204 609.006409,367.999298 
	C609.291626,370.614777 608.514160,372.622345 606.544434,374.545502 
	C597.775330,383.107269 589.166687,391.833344 580.500000,400.500000 
"/>
<path fill="none" opacity="1.000000" stroke="#000000" stroke-linecap="round" stroke-linejoin="round" stroke-width="6.000000"
	d="
M416.750000,327.000000 
	C416.966553,334.511108 415.023834,342.123566 417.939697,349.523773 
	C418.368958,350.613220 417.219055,352.018890 417.154602,353.010040 
	C416.577667,361.881012 414.041473,370.883270 422.863251,378.165649 
	C431.005768,384.887329 438.000000,393.000000 445.500000,400.500000 
"/>
<path fill="none" opacity="1.000000" stroke="#000000" stroke-linecap="round" stroke-linejoin="round" stroke-width="10.000000"
	d="
M735.000000,514.500000 
	C737.087402,516.633728 739.318298,518.617493 740.524780,521.489563 
	C742.161621,525.386292 741.381042,528.870850 737.992798,531.490662 
	C736.200195,532.876709 734.511597,534.719666 732.461426,535.380371 
	C728.654907,536.607056 729.131470,539.514099 729.586365,541.984070 
	C731.274170,551.146851 729.701660,559.358582 723.502075,566.501770 
	C719.179749,571.481995 716.359009,577.511658 712.144104,582.618896 
	C710.332031,584.814636 708.358948,585.829102 705.989563,586.460754 
	C699.193054,588.273071 696.384521,591.430664 696.499939,597.500000 
	C696.597290,602.616577 700.905884,608.552429 706.009766,608.789856 
	C710.293945,608.989197 713.979492,606.212463 716.487671,602.491699 
	C718.454346,599.574219 717.964844,593.635559 715.480896,590.515198 
	C714.086975,588.764160 712.500000,587.166687 711.000000,585.500000 
"/>
<path fill="none" opacity="1.000000" stroke="#000000" stroke-linecap="round" stroke-linejoin="round" stroke-width="5.000000"
	d="
M581.500000,311.500000 
	C581.500000,313.333344 581.531860,315.167297 581.494202,316.999878 
	C581.365295,323.272217 582.339478,328.775848 587.895691,333.133026 
	C593.051392,337.176056 597.325989,342.340729 602.004089,346.995880 
	C603.575439,348.559509 604.976257,350.418274 607.500000,350.500000 
"/>
<path fill="none" opacity="1.000000" stroke="#000000" stroke-linecap="round" stroke-linejoin="round" stroke-width="6.000000"
	d="
M443.500000,311.500000 
	C443.500000,311.833344 443.456207,312.173401 443.506317,312.499023 
	C445.140594,323.117493 441.875488,331.587128 433.065399,338.088623 
	C429.502289,340.718018 426.666595,344.333282 423.500031,347.500031 
	C422.083344,348.916809 420.743958,350.462128 418.500000,350.500000 
"/>
<path fill="none" opacity="1.000000" stroke="#000000" stroke-linecap="round" stroke-linejoin="round" stroke-width="6.000000"
	d="
M442.500000,660.500000 
	C447.360107,661.653198 449.328308,666.417664 453.036652,668.946228 
	C459.766663,673.535278 461.396057,679.877014 460.567535,687.507324 
	C460.174072,691.131287 460.500000,694.833313 460.500000,698.500000 
"/>
<path fill="none" opacity="1.000000" stroke="#000000" stroke-linecap="round" stroke-linejoin="round" stroke-width="6.000000"
	d="
M431.500000,636.500000 
	C427.465302,642.237488 422.569946,647.225220 417.443909,651.939026 
	C414.354767,654.779724 413.120239,657.837097 413.419678,662.005798 
	C413.765137,666.814270 413.500000,671.666687 413.500000,676.500000 
"/>
<path fill="none" opacity="1.000000" stroke="#000000" stroke-linecap="round" stroke-linejoin="round" stroke-width="6.000000"
	d="
M594.500000,637.500000 
	C599.666687,643.000000 604.650330,648.690979 610.091553,653.904480 
	C612.218445,655.942444 612.556946,657.951904 612.520874,660.500305 
	C612.450134,665.499268 612.500000,670.500000 612.500000,675.500000 
"/>
<path fill="none" opacity="1.000000" stroke="#000000" stroke-linecap="round" stroke-linejoin="round" stroke-width="5.000000"
	d="
M587.500000,590.500000 
	C589.743958,590.537842 591.083374,592.083130 592.500000,593.500000 
	C595.333252,596.333435 598.190063,599.143738 600.993896,602.005981 
	C604.297729,605.378662 608.549011,607.997742 607.635193,614.020508 
	C607.049072,617.883850 607.687866,621.931213 605.500000,625.500000 
"/>
<path fill="none" opacity="1.000000" stroke="#000000" stroke-linecap="round" stroke-linejoin="round" stroke-width="6.000000"
	d="
M693.500000,440.500000 
	C691.166687,440.500000 688.782349,440.814148 686.508850,440.445374 
	C676.870422,438.882202 669.680725,442.254791 664.419434,450.448273 
	C663.126465,452.461914 660.833374,453.833344 659.000000,455.500031 
"/>
<path fill="none" opacity="1.000000" stroke="#000000" stroke-linecap="round" stroke-linejoin="round" stroke-width="6.000000"
	d="
M438.500000,590.500000 
	C433.711273,591.347412 432.020264,596.107727 428.469452,598.453796 
	C419.660370,604.274109 416.030579,612.082214 418.500000,622.500000 
"/>
<path fill="none" opacity="1.000000" stroke="#000000" stroke-linecap="round" stroke-linejoin="round" stroke-width="6.000000"
	d="
M367.000000,455.000000 
	C362.153381,451.556061 357.981171,447.338074 354.089813,442.920868 
	C352.121979,440.687134 350.048615,440.414215 347.499573,440.485168 
	C342.667664,440.619720 337.833344,440.666656 333.000000,440.750000 
"/>
<path fill="none" opacity="1.000000" stroke="#000000" stroke-linecap="round" stroke-linejoin="round" stroke-width="6.000000"
	d="
M595.500000,469.500000 
	C601.333313,469.500000 607.267151,470.171356 612.972717,469.317566 
	C619.093628,468.401581 624.976501,470.034241 631.006775,469.592041 
	C636.808838,469.166534 642.666687,469.500000 648.500000,469.500000 
"/>
<path fill="none" opacity="1.000000" stroke="#000000" stroke-linecap="round" stroke-linejoin="round" stroke-width="6.000000"
	d="
M431.500000,469.500000 
	C425.666656,469.500000 419.710907,470.239685 414.033142,469.299835 
	C407.886902,468.282471 402.017029,469.953247 395.995117,469.578308 
	C390.184296,469.216492 384.333344,469.500000 378.500000,469.500000 
"/>
<path fill="none" opacity="1.000000" stroke="#000000" stroke-linecap="round" stroke-linejoin="round" stroke-width="6.000000"
	d="
M349.500000,553.000000 
	C341.183441,551.994019 332.832275,552.718933 324.500000,552.500000 
"/>
<path fill="none" opacity="1.000000" stroke="#000000" stroke-linecap="round" stroke-linejoin="round" stroke-width="6.000000"
	d="
M701.500000,552.500000 
	C693.833313,552.500000 686.166687,552.500000 678.500000,552.500000 
"/>
<path fill="none" opacity="1.000000" stroke="#000000" stroke-linecap="round" stroke-linejoin="round" stroke-width="6.000000"
	d="
M686.000000,565.000000 
	C680.666687,570.166687 675.385254,575.388916 669.959961,580.457092 
	C668.749939,581.587463 668.862549,582.804626 669.040161,583.994019 
	C670.059143,590.816895 669.209229,597.669678 669.500000,604.500000 
"/>
<path fill="none" opacity="1.000000" stroke="#000000" stroke-linecap="round" stroke-linejoin="round" stroke-width="7.000000"
	d="
M339.500000,563.500000 
	C339.098816,565.934143 341.304749,566.702209 342.541992,567.958679 
	C346.427856,571.904358 350.400421,575.778687 354.537811,579.457458 
	C356.972900,581.622681 357.331573,584.049683 356.772034,587.004150 
	C355.672577,592.809875 355.587891,598.652466 356.500000,604.500000 
"/>
<path fill="none" opacity="1.000000" stroke="#000000" stroke-linecap="round" stroke-linejoin="round" stroke-width="6.000000"
	d="
M306.000000,525.500000 
	C311.666656,525.416687 317.333344,525.333313 323.000000,525.250000 
"/>
<path fill="none" opacity="1.000000" stroke="#000000" stroke-linecap="round" stroke-linejoin="round" stroke-width="6.000000"
	d="
M730.500000,513.500000 
	C724.805237,515.762207 722.248413,520.842163 719.642944,525.500000 
	C714.169250,525.500000 708.834595,525.500000 703.500000,525.500000 
"/>
<path fill="none" opacity="1.000000" stroke="#000000" stroke-linecap="round" stroke-linejoin="round" stroke-width="7.000000"
	d="
M583.500000,660.500000 
	C586.522217,665.185913 584.030579,670.607056 585.500000,675.500000 
"/>
<path fill="none" opacity="1.000000" stroke="#000000" stroke-linecap="round" stroke-linejoin="round" stroke-width="5.000000"
	d="
M295.500000,514.000000 
	C296.399750,515.133789 297.787781,515.399048 298.977539,516.041565 
	C306.392883,520.045776 307.456879,524.777649 302.472290,531.479431 
	C301.498077,532.789185 300.166656,533.833313 299.000000,535.000000 
"/>
<path fill="none" opacity="1.000000" stroke="#000000" stroke-linecap="round" stroke-linejoin="round" stroke-width="6.000000"
	d="
M690.000000,486.500000 
	C693.833313,486.500000 697.666687,486.500000 701.500000,486.500000 
"/>
<path fill="none" opacity="1.000000" stroke="#000000" stroke-linecap="round" stroke-linejoin="round" stroke-width="6.000000"
	d="
M336.000000,487.000000 
	C332.204559,485.961548 328.330200,486.739014 324.500000,486.500000 
"/>
<path fill="none" opacity="1.000000" stroke="#000000" stroke-linecap="round" stroke-linejoin="round" stroke-width="5.000000"
	d="
M719.250000,526.000000 
	C719.625671,530.901062 724.310913,532.091064 727.000000,535.000000 
"/>
<path fill="none" opacity="1.000000" stroke="#000000" stroke-linecap="round" stroke-linejoin="round" stroke-width="2.000000"
	d="
M702.000000,487.500000 
	C702.833313,488.500000 703.666687,489.500000 704.500000,490.500000 
"/>
</svg>