<svg version="1.1" id="Layer_1" xmlns="http://www.w3.org/2000/svg" xmlns:xlink="http://www.w3.org/1999/xlink" x="0px" y="0px"
	 width="100%" viewBox="0 0 1024 1024" enable-background="new 0 0 1024 1024" xml:space="preserve">
<path fill="#000000" opacity="1.000000" stroke="none" 
	d="
M292.711731,657.717163 
	C292.688324,609.588806 292.610992,561.928894 292.710541,514.269287 
	C292.752319,494.269562 307.766296,478.350983 327.708771,476.730988 
	C371.547272,473.169891 415.439514,471.011047 459.441071,471.688965 
	C471.433411,471.873749 483.392487,472.603027 495.351318,473.490356 
	C498.965912,473.758514 499.708435,475.305176 499.561127,478.579742 
	C499.194855,486.724609 498.799103,494.923248 500.856354,502.929962 
	C505.617218,521.458740 521.179382,533.576599 540.695862,533.954102 
	C551.392090,534.161011 550.264465,533.083191 550.307983,543.720642 
	C550.346191,553.052490 550.305969,562.384705 550.330872,571.716614 
	C550.349915,578.828918 553.145752,584.494385 559.795288,587.414795 
	C566.518311,590.367310 572.821106,589.054138 578.302124,584.106750 
	C581.489990,581.229248 584.670044,578.343201 587.792847,575.516052 
	C590.038391,576.903076 589.295349,578.754456 589.298096,580.268250 
	C589.343689,605.264587 589.404419,630.261414 589.291504,655.257324 
	C589.193665,676.911682 571.933105,694.091064 549.983826,694.237000 
	C523.822021,694.410950 497.658203,694.299255 471.495270,694.303284 
	C425.835114,694.310303 380.174957,694.326416 334.514801,694.308228 
	C311.663788,694.299072 296.237183,680.930298 292.711731,657.717163 
M532.523254,580.907410 
	C532.879700,580.156128 533.268311,579.418335 533.587708,578.651611 
	C537.931702,568.221802 534.895630,556.744324 525.899841,549.552002 
	C517.126343,542.537415 504.382690,542.377014 495.294250,549.166809 
	C486.231140,555.937683 482.664093,567.772644 486.707977,578.113464 
	C490.433136,587.639282 497.564270,593.430786 507.591492,594.450623 
	C518.260925,595.535828 526.644897,590.955261 532.523254,580.907410 
M395.852783,561.832031 
	C391.529510,549.962708 382.049255,543.393250 369.907776,544.278992 
	C359.906982,545.008606 352.774078,550.336426 348.672394,559.346436 
	C344.391205,568.750854 346.131348,577.773438 352.555786,585.453125 
	C358.852509,592.980103 367.225616,596.150330 377.109497,593.777771 
	C391.698425,590.275635 399.050354,578.139404 395.852783,561.832031 
M455.400482,632.328979 
	C454.990417,629.928772 453.429443,629.023132 451.145111,629.025208 
	C444.651031,629.031189 438.156708,629.057312 431.662933,629.014465 
	C428.320282,628.992432 426.734467,630.731750 426.689514,633.902405 
	C426.597473,640.385986 426.577698,646.871094 426.604034,653.355347 
	C426.616058,656.311401 427.934296,657.945618 431.190247,657.872742 
	C437.349243,657.734924 443.513245,657.751831 449.674347,657.802734 
	C453.879974,657.837524 455.738647,655.822266 455.667694,651.673889 
	C455.562317,645.514038 455.578674,639.352112 455.400482,632.328979 
M390.179413,632.632263 
	C382.979034,641.280151 384.470490,651.450500 393.647705,656.179626 
	C399.002563,658.939026 404.717316,657.785889 410.316467,657.552979 
	C412.172760,657.475708 412.554535,655.782166 412.563110,654.196594 
	C412.601715,647.040100 412.608002,639.883484 412.623169,632.726868 
	C412.627075,630.883362 412.096802,629.268372 409.972778,629.195435 
	C403.387756,628.969482 396.599243,627.598328 390.179413,632.632263 
M492.805756,633.749634 
	C487.479218,628.268860 480.829681,627.985901 473.847717,628.851807 
	C471.218292,629.177917 470.105652,630.526367 470.142242,633.147644 
	C470.211792,638.128296 470.133789,643.110779 470.158020,648.092346 
	C470.209259,658.626221 468.869568,657.667297 480.202759,657.858704 
	C486.347412,657.962402 491.330261,656.174194 494.449738,650.627930 
	C497.633972,644.966736 497.033264,639.504578 492.805756,633.749634 
z"/>
<path fill="#000000" opacity="1.000000" stroke="none" 
	d="
M512.261108,349.564423 
	C518.508728,337.416046 528.193176,331.657928 541.457581,331.663330 
	C608.766602,331.690735 676.075684,331.670258 743.384705,331.681030 
	C761.770142,331.683990 773.903137,342.753174 775.428650,360.956482 
	C775.761963,364.933289 775.924438,368.935760 775.931824,372.926819 
	C776.004883,412.412384 776.095581,451.898163 776.035034,491.383636 
	C776.009033,508.337097 765.800232,520.909485 749.957764,523.845520 
	C747.527283,524.295959 744.986267,524.259399 742.496155,524.261475 
	C705.842712,524.291992 669.189209,524.329285 632.536011,524.239197 
	C628.798096,524.230042 626.149658,525.279358 623.365234,527.988464 
	C606.654236,544.247192 589.678528,560.234070 572.778992,576.298767 
	C570.359680,578.598572 567.700439,580.066223 564.214478,578.587646 
	C560.492798,577.009094 559.899536,573.898987 559.910461,570.367249 
	C559.951904,557.038940 559.745605,543.705566 560.066101,530.384521 
	C560.184753,525.449402 558.485535,524.118286 553.760620,524.197144 
	C546.969055,524.310425 540.114380,525.078491 533.354736,523.485840 
	C519.122253,520.132568 509.699615,508.542999 509.681610,494.007263 
	C509.627777,450.523071 509.666931,407.038727 509.597046,363.554565 
	C509.589417,358.811707 510.314117,354.286926 512.261108,349.564423 
M524.078247,367.553619 
	C524.051819,408.537659 524.010437,449.521698 524.007202,490.505737 
	C524.006042,504.336334 529.638306,509.970734 543.305786,509.948914 
	C550.802795,509.936951 558.301758,509.785278 565.796204,509.911285 
	C571.901367,510.013947 574.229309,512.435303 574.276245,518.514587 
	C574.352112,528.343506 574.254822,538.173828 574.348206,548.002502 
	C574.363953,549.658447 573.500366,551.630432 575.487732,553.159058 
	C576.423218,552.428589 577.390442,551.795349 578.214600,551.011658 
	C590.647827,539.188660 603.222351,527.506958 615.390137,515.416199 
	C619.389954,511.441650 623.506653,509.779694 629.074463,509.804932 
	C666.892456,509.976410 704.711487,509.923981 742.530212,509.915131 
	C755.287354,509.912140 761.620605,503.637939 761.626282,490.956818 
	C761.644714,449.472900 761.647644,407.988922 761.602356,366.505035 
	C761.586426,351.857391 755.151489,345.445740 740.580994,345.429260 
	C717.600098,345.403259 694.619141,345.428528 671.638245,345.429688 
	C629.487915,345.431763 587.337524,345.431274 545.187195,345.433502 
	C530.010315,345.434296 524.032166,351.424225 524.078247,367.553619 
z"/>
<path fill="#000000" opacity="1.000000" stroke="none" 
	d="
M249.799149,599.976685 
	C249.828735,585.326050 249.742294,571.169739 249.920898,557.016663 
	C250.119644,541.268127 258.507660,530.495544 272.847778,527.154053 
	C280.983002,525.258301 282.282196,526.239624 282.279785,534.368591 
	C282.270294,566.508667 282.252899,598.648682 282.231293,630.788757 
	C282.226807,637.475525 281.503052,638.057495 275.030396,636.694763 
	C259.157440,633.352966 249.977203,622.172546 249.807678,605.967896 
	C249.788513,604.136230 249.801804,602.304199 249.799149,599.976685 
z"/>
<path fill="#000000" opacity="1.000000" stroke="none" 
	d="
M599.836548,633.742310 
	C599.793823,611.771729 599.828918,590.275574 599.695984,568.780518 
	C599.674744,565.347595 600.624390,562.859802 603.247681,560.517395 
	C610.204407,554.305237 616.945435,547.847290 623.663269,541.373962 
	C626.446899,538.691650 628.119629,539.233704 629.500549,542.639893 
	C631.080261,546.536560 632.193787,550.526794 632.199524,554.741516 
	C632.223206,572.238098 632.339355,589.736267 632.140808,607.230713 
	C631.971252,622.167664 621.679871,634.491821 607.412903,636.937317 
	C604.758423,637.392273 600.826904,639.331360 599.836548,633.742310 
z"/>
<path fill="#000000" opacity="1.000000" stroke="none" 
	d="
M273.874481,515.381836 
	C270.048615,518.566406 265.288696,517.986206 262.008087,520.381592 
	C260.197876,518.921997 260.501312,517.719299 260.506958,516.576294 
	C260.561859,505.411041 260.452271,494.241791 260.736755,483.082550 
	C260.843964,478.875793 259.691589,476.072937 256.189728,473.413208 
	C249.052139,467.992096 247.569687,457.515228 252.211899,449.964325 
	C256.752045,442.579559 266.450745,439.521210 274.584442,442.925873 
	C280.875336,445.559204 284.233246,450.591858 285.134521,457.061157 
	C286.070038,463.776428 283.976929,469.856079 278.296265,473.742859 
	C275.049500,475.964355 274.178558,478.347046 274.210419,481.976776 
	C274.306824,492.970856 274.101288,503.967560 273.874481,515.381836 
z"/>
<path fill="#000000" opacity="1.000000" stroke="none" 
	d="
M633.019531,471.712524 
	C627.868774,478.438934 621.019470,480.960022 613.988953,478.970673 
	C607.104065,477.022614 602.490417,471.458618 601.730225,464.186981 
	C600.984924,457.058228 604.428955,450.392120 610.693848,447.180359 
	C612.136414,446.440796 613.905151,445.618774 615.393372,445.816406 
	C620.621216,446.510834 623.117126,443.533813 625.582397,439.619049 
	C632.499329,428.635010 639.689880,417.823090 646.784485,406.951172 
	C648.302490,404.624969 648.967285,402.549072 647.617004,399.585114 
	C644.425354,392.579681 646.523743,384.231323 652.028564,379.643982 
	C657.759827,374.867889 666.236694,374.305695 672.550720,378.282959 
	C678.802124,382.220734 681.836853,390.251648 679.808411,397.489227 
	C677.836609,404.524872 671.168030,410.060272 663.527039,409.952850 
	C659.970886,409.902832 658.541321,411.468262 656.938965,413.971161 
	C649.495544,425.598511 641.959778,437.166992 634.409363,448.725403 
	C633.171326,450.620544 632.473816,452.162140 633.681030,454.604462 
	C636.422119,460.150116 636.050293,465.862122 633.019531,471.712524 
M619.924072,456.434845 
	C616.822754,455.854645 614.308044,456.653625 612.900146,459.657806 
	C611.857178,461.883118 611.782471,464.162476 613.336487,466.223846 
	C615.010498,468.444275 617.376526,469.081512 619.977966,468.550690 
	C622.459656,468.044373 624.094299,466.396332 624.564697,463.897644 
	C625.204773,460.497437 623.602600,458.178345 619.924072,456.434845 
M665.637451,386.617981 
	C661.705811,385.526276 658.664062,386.553589 657.365967,390.616577 
	C656.421631,393.572296 657.161133,396.238983 660.120239,397.806793 
	C663.435547,399.563324 666.380066,398.622620 668.451050,395.814209 
	C671.086304,392.240448 669.559998,389.312805 665.637451,386.617981 
z"/>
<path fill="#000000" opacity="1.000000" stroke="none" 
	d="
M680.720032,444.496460 
	C688.008423,444.797546 690.691101,442.101624 690.624939,434.511139 
	C690.546448,425.499054 694.391052,418.770355 702.130737,414.400238 
	C709.881958,410.023651 717.526489,411.273987 724.852417,415.673218 
	C729.194824,418.280853 730.537292,422.171051 728.502808,425.676880 
	C726.617065,428.926361 723.006775,429.312347 718.453308,426.751160 
	C709.797546,421.882477 703.323853,425.564117 703.043152,435.515106 
	C702.584167,451.785980 690.028625,461.585815 676.219360,456.397430 
	C668.119934,453.354370 664.356262,447.055023 663.753845,438.772644 
	C663.428833,434.303711 663.668396,429.790649 663.719910,425.298248 
	C663.761841,421.645844 665.494690,419.163361 669.232056,418.793488 
	C673.289062,418.391998 675.594360,420.831177 675.996826,424.563690 
	C676.422791,428.514038 676.254333,432.538177 676.197205,436.527985 
	C676.148132,439.958130 677.084839,442.758759 680.720032,444.496460 
z"/>
<path fill="#000000" opacity="1.000000" stroke="none" 
	d="
M591.131531,423.674194 
	C588.968079,434.803345 583.359375,440.907715 574.118408,442.586273 
	C570.936096,443.164307 566.915710,443.912872 565.874939,440.282135 
	C564.950378,437.056732 566.815613,432.715485 570.057312,431.479980 
	C577.303955,428.718079 578.893433,423.780945 578.935791,416.649689 
	C578.999207,405.965759 588.234131,397.690582 598.859253,397.669800 
	C609.649292,397.648712 617.540527,405.184845 618.201965,416.419067 
	C618.475769,421.069183 618.302002,425.748505 618.255005,430.413757 
	C618.214050,434.482574 615.879700,436.658325 612.016479,436.713623 
	C608.056885,436.770325 605.880981,434.425415 605.776367,430.437195 
	C605.680298,426.773651 605.788147,423.105255 605.736023,419.439972 
	C605.648499,413.288055 603.092651,410.113312 598.375183,410.199829 
	C593.987610,410.280304 591.345398,413.608032 591.211548,419.240112 
	C591.179871,420.572357 591.185852,421.905426 591.131531,423.674194 
z"/>
</svg>