<?xml version="1.0" standalone="no"?>
<!DOCTYPE svg PUBLIC "-//W3C//DTD SVG 20010904//EN"
 "http://www.w3.org/TR/2001/REC-SVG-20010904/DTD/svg10.dtd">
<svg version="1.0" xmlns="http://www.w3.org/2000/svg"
 width="1024.000000pt" height="1024.000000pt" viewBox="0 0 1024.000000 1024.000000"
 preserveAspectRatio="xMidYMid meet">

<g transform="translate(0.000000,1024.000000) scale(0.100000,-0.100000)"
fill="#000000" stroke="none">
<path d="M4223 8989 c-327 -167 -392 -204 -397 -224 -5 -18 9 -54 48 -134 54
-107 67 -121 108 -121 19 0 756 368 786 392 23 19 12 68 -38 168 -47 93 -71
121 -102 119 -7 0 -189 -91 -405 -200z"/>
<path d="M4448 8556 c-163 -83 -299 -154 -303 -157 -5 -5 165 -361 180 -377 3
-3 609 302 623 313 7 6 -184 375 -193 374 -5 -1 -144 -70 -307 -153z"/>
<path d="M4715 8036 c-292 -149 -489 -255 -502 -271 -13 -14 -23 -39 -23 -55
0 -17 154 -335 399 -827 l400 -798 0 123 1 123 -40 38 c-35 33 -40 43 -40 83
0 107 115 153 189 74 46 -49 34 -134 -24 -172 -25 -16 -25 -17 -25 -173 0 -86
-4 -161 -9 -167 -6 -5 0 -29 16 -63 28 -58 74 -88 119 -77 l24 6 0 420 0 419
-40 22 c-41 23 -80 85 -80 127 0 48 32 102 75 127 47 28 81 31 128 11 119 -51
121 -214 2 -270 l-35 -17 0 -399 c0 -254 4 -400 10 -400 5 0 34 12 65 27 l55
27 0 83 c0 65 3 85 15 89 29 12 45 -16 45 -77 0 -33 3 -59 8 -59 4 0 25 10 47
23 38 21 40 26 43 74 2 35 8 53 19 57 23 9 43 -12 43 -45 0 -16 3 -29 8 -28 4
0 90 44 191 97 170 90 184 100 195 132 9 28 17 36 39 38 16 2 34 -2 42 -8 27
-22 100 33 111 83 6 27 -14 72 -137 319 -79 158 -146 288 -149 287 -3 0 -38
-43 -77 -96 -90 -118 -95 -148 -34 -199 43 -37 53 -69 39 -121 -17 -62 -104
-93 -158 -56 -39 26 -49 45 -50 85 0 49 16 81 51 102 26 15 29 22 29 67 0 48
4 56 85 161 47 60 85 116 85 123 0 27 -569 1154 -589 1164 -49 26 -80 13 -566
-233z m718 -1627 c29 -41 -8 -88 -56 -70 -32 13 -41 39 -22 67 19 30 59 31 78
3z m185 9 c20 -20 14 -56 -13 -74 -23 -15 -27 -15 -50 0 -44 29 -28 86 25 86
14 0 31 -5 38 -12z"/>
<path d="M5165 6935 c-56 -55 -15 -155 62 -155 25 0 43 8 64 29 37 37 38 79 3
120 -34 41 -92 44 -129 6z"/>
<path d="M4260 6773 c-253 -127 -444 -266 -650 -473 -212 -212 -350 -401 -479
-660 -121 -245 -191 -466 -232 -735 -25 -165 -30 -488 -10 -650 56 -448 215
-843 485 -1205 92 -124 295 -332 421 -433 145 -117 375 -262 388 -246 2 2 21
45 42 94 21 50 77 178 125 285 l86 195 -111 73 c-365 240 -639 620 -749 1042
-45 171 -59 282 -60 480 0 200 9 280 54 460 87 348 257 632 538 901 143 137
266 223 444 311 81 40 147 76 147 81 1 4 -60 129 -134 277 -101 203 -140 270
-153 270 -10 0 -78 -30 -152 -67z"/>
<path d="M5702 6709 c-41 -16 -38 -90 6 -101 29 -8 61 9 68 36 12 48 -27 82
-74 65z"/>
<path d="M4973 6484 c-15 -24 -15 -29 -2 -53 10 -18 24 -27 45 -29 36 -4 57
16 57 55 0 53 -70 72 -100 27z"/>
<path d="M6422 6326 c-77 -38 -122 -66 -122 -76 0 -8 50 -65 110 -125 101
-101 110 -113 110 -147 0 -21 3 -38 6 -38 4 0 28 12 55 27 l49 26 0 165 c0
147 -2 167 -20 192 -32 45 -55 42 -188 -24z"/>
<path d="M6147 6183 c-46 -24 -102 -59 -123 -77 -24 -20 -54 -35 -79 -39 -22
-3 -107 -41 -190 -84 l-150 -79 -3 -204 c-1 -112 2 -208 7 -213 5 -5 33 4 67
22 94 48 92 46 65 75 -65 69 -30 191 62 211 68 16 140 -34 152 -103 l6 -38 97
49 c53 28 99 52 102 54 2 2 -11 16 -29 30 -62 49 -79 134 -38 194 82 123 274
70 265 -74 -2 -26 -1 -47 2 -47 3 0 28 12 57 28 49 25 53 30 53 62 0 31 -13
48 -120 156 l-119 121 -84 -44z"/>
<path d="M6680 6115 c0 -76 2 -86 17 -83 10 2 24 15 32 30 14 24 13 30 -9 78
-13 28 -28 54 -32 56 -4 3 -8 -34 -8 -81z"/>
<path d="M6184 5990 c-87 -35 -61 -174 31 -174 30 0 44 7 66 32 16 18 29 41
29 53 0 36 -28 76 -61 88 -37 13 -37 13 -65 1z"/>
<path d="M5483 5842 l-53 -26 0 -218 c0 -120 2 -218 4 -218 2 0 24 11 49 25
45 25 46 27 52 88 3 34 5 132 3 218 l-3 156 -52 -25z"/>
<path d="M6578 5776 l-58 -31 0 -111 c0 -132 -3 -136 -87 -132 -51 3 -58 6
-61 26 -3 17 1 22 20 22 64 1 68 6 68 92 l0 79 -107 -57 c-60 -32 -110 -58
-111 -60 -2 -1 40 -86 93 -187 85 -164 99 -187 128 -196 17 -7 43 -22 57 -36
l25 -24 39 24 38 23 -30 16 c-104 54 -95 205 15 235 81 23 159 -43 150 -127
-3 -24 -13 -52 -23 -64 -16 -17 -9 -16 42 10 l61 31 5 71 5 72 -92 177 c-51
97 -99 177 -106 177 -8 1 -40 -12 -71 -30z"/>
<path d="M5313 5757 l-63 -31 0 -92 c0 -83 2 -93 19 -99 11 -3 34 -22 50 -41
37 -42 41 -92 11 -141 -23 -38 -20 -40 21 -16 l29 17 0 218 c0 120 -1 218 -2
217 -2 0 -31 -14 -65 -32z"/>
<path d="M5780 5720 c-29 -29 -26 -74 7 -100 32 -25 69 -20 96 12 37 44 6 108
-53 108 -17 0 -39 -9 -50 -20z"/>
<path d="M5112 5654 c-115 -63 -119 -73 -62 -181 l45 -84 6 42 c4 31 15 51 41
74 19 18 40 34 47 36 8 3 11 28 9 81 l-3 77 -83 -45z"/>
<path d="M5175 5465 c-41 -40 -30 -92 25 -115 25 -10 34 -10 55 4 50 33 55 91
12 121 -31 22 -65 18 -92 -10z"/>
<path d="M5833 5398 c-22 -11 -23 -15 -23 -173 l0 -162 38 -24 c74 -48 76
-157 3 -206 -39 -27 -80 -29 -125 -8 -85 40 -88 170 -6 219 l28 16 4 142 c3
79 3 146 1 150 -4 8 -307 -147 -310 -159 -1 -4 42 -93 95 -198 86 -167 100
-190 126 -197 16 -4 41 -19 56 -33 l28 -27 151 79 c145 75 151 79 145 105 -3
15 -1 43 5 63 9 35 5 47 -87 231 -53 107 -99 194 -102 193 -3 0 -15 -5 -27
-11z"/>
<path d="M6590 5390 c-41 -41 -10 -120 47 -120 29 0 73 42 73 68 0 59 -79 93
-120 52z"/>
<path d="M5142 5298 c17 -26 67 -35 95 -19 15 9 13 10 -12 11 -16 0 -43 7 -59
15 -38 20 -41 19 -24 -7z"/>
<path d="M5735 4985 c-53 -53 -12 -126 65 -115 53 7 68 84 24 119 -35 27 -59
26 -89 -4z"/>
<path d="M5143 4087 c-22 -18 -23 -24 -23 -161 0 -112 3 -146 16 -164 l15 -22
1154 0 1154 0 15 22 c21 29 23 294 4 321 -12 16 -97 17 -1162 19 -1099 3
-1151 2 -1173 -15z"/>
<path d="M6272 3383 c-48 -131 -174 -291 -310 -394 -66 -50 -247 -147 -314
-169 -21 -6 -38 -16 -38 -22 0 -6 50 -121 111 -257 62 -135 118 -261 126 -279
16 -38 14 -38 128 9 274 113 577 371 753 643 91 140 188 361 217 494 l7 32
-330 0 -329 0 -21 -57z"/>
<path d="M4915 3020 c-129 -18 -252 -88 -327 -187 -23 -30 -109 -209 -218
-454 -100 -222 -213 -475 -252 -561 l-70 -157 -302 -3 -301 -3 -53 -30 c-64
-35 -96 -71 -131 -145 -25 -53 -26 -61 -26 -245 l0 -190 2038 -3 2039 -2 -4
193 -3 192 -33 67 c-33 67 -71 106 -142 144 -33 18 -71 19 -614 24 l-579 5
-58 125 c-31 69 -100 222 -154 340 -250 556 -301 662 -341 714 -102 129 -290
200 -469 176z m187 -282 c54 -23 120 -89 144 -145 20 -48 21 -157 1 -204 -20
-49 -72 -105 -126 -137 -40 -23 -57 -27 -126 -27 -90 0 -139 20 -198 79 -149
149 -69 409 140 454 50 11 107 4 165 -20z"/>
</g>
</svg>
