<svg version="1.1" id="Layer_1" xmlns="http://www.w3.org/2000/svg" xmlns:xlink="http://www.w3.org/1999/xlink" x="0px" y="0px"
	 width="100%" viewBox="0 0 1024 1024" enable-background="new 0 0 1024 1024" xml:space="preserve">
<path fill="#000000" opacity="1.000000" stroke="none" 
	d="
M244.893127,604.993652 
	C243.938797,649.142151 244.441238,692.798340 244.433609,736.451599 
	C244.432816,740.987305 243.144531,742.502808 238.480713,742.386902 
	C211.332840,741.712219 191.109299,721.124573 190.947876,692.665771 
	C190.679474,645.343201 190.754898,598.016235 191.098022,550.694092 
	C191.210556,535.172913 193.170273,519.770447 200.616760,505.687866 
	C209.923126,488.087860 224.721024,476.620850 242.577133,468.793091 
	C259.555939,461.349976 277.401855,457.773102 295.950134,457.640839 
	C336.768494,457.349792 377.591187,457.281982 418.402374,456.566864 
	C434.019409,456.293213 449.610046,454.503845 465.212341,453.399231 
	C477.494690,452.529633 489.766083,451.184082 502.061462,450.910583 
	C513.821777,450.648987 524.651184,447.805756 535.222656,442.847351 
	C575.032349,424.175140 615.143188,406.140900 654.387024,386.275238 
	C660.752747,383.052856 665.454773,383.978027 667.724976,388.654846 
	C670.249146,393.855042 668.234314,398.850525 662.106873,402.133881 
	C654.473633,406.224121 646.768921,410.180725 639.111572,414.226227 
	C637.372498,415.145050 635.414673,415.772644 634.228760,417.456299 
	C634.129456,419.038483 635.265564,419.921600 635.984558,420.994537 
	C645.358887,434.983185 641.250854,453.326141 626.407593,461.407745 
	C600.221436,475.665100 573.395508,488.691925 546.628967,501.812531 
	C533.721436,508.139648 519.400818,509.112793 505.450134,511.296265 
	C487.712219,514.072449 469.909210,516.462830 452.224182,519.537048 
	C437.579559,522.082703 431.149811,530.255310 431.106384,545.854004 
	C430.950958,601.676208 430.948914,657.498840 430.892639,713.321350 
	C430.884735,721.153137 430.796539,728.986755 430.944214,736.815857 
	C431.016815,740.663086 429.977936,742.462219 425.603333,742.451477 
	C371.613800,742.318848 317.623535,742.283264 263.634277,742.462402 
	C258.111267,742.480713 257.891754,739.765320 257.897919,735.655334 
	C257.983124,678.999451 257.992004,622.343567 258.012939,565.687622 
	C258.013885,563.188477 257.967133,560.688904 257.913849,558.190186 
	C257.845490,554.985535 256.582977,552.664307 253.118912,552.254211 
	C249.707123,551.850403 246.816452,552.645569 245.288620,556.142761 
	C244.321060,558.357483 244.272964,560.693909 244.428207,563.022766 
	C245.349289,576.839417 244.721176,590.671387 244.893127,604.993652 
z"/>
<path fill="#000000" opacity="1.000000" stroke="none" 
	d="
M729.999878,299.399841 
	C645.670776,299.396606 561.841614,299.393097 478.012512,299.387756 
	C470.274994,299.387268 470.275665,299.381927 470.274872,306.979431 
	C470.270508,348.477295 470.206512,389.975342 470.341187,431.472748 
	C470.356812,436.291931 469.525055,438.482941 463.896423,438.613373 
	C453.950714,438.843903 453.975311,439.329803 453.970215,429.427307 
	C453.947296,384.763336 453.911530,340.099396 453.891693,295.435425 
	C453.887421,285.811371 456.048035,283.671387 465.622009,283.671875 
	C584.449402,283.677948 703.276855,283.682251 822.104248,283.688385 
	C832.777039,283.688934 834.987122,285.880890 834.988220,296.515320 
	C834.998718,397.176788 835.005798,497.838226 835.009949,598.499695 
	C835.010315,607.643250 832.302185,610.284363 823.050842,610.378235 
	C720.395996,611.420410 617.738220,610.864136 515.082153,610.770508 
	C497.926758,610.754883 480.762085,610.531006 463.601227,610.440735 
	C457.385986,610.408081 454.145447,607.601929 454.091400,601.378906 
	C453.907684,580.215515 454.033691,559.049438 453.977142,537.884583 
	C453.968811,534.770447 455.492676,533.237671 458.382416,532.940186 
	C471.532379,531.586182 470.265503,529.427307 470.280792,542.550354 
	C470.298706,557.882874 470.483643,573.219666 470.160767,588.545471 
	C470.061279,593.266113 471.728699,594.653748 476.066040,594.559082 
	C482.728027,594.413757 489.396759,594.606384 496.062622,594.605591 
	C525.227173,594.602051 554.391907,594.630432 583.556274,594.552551 
	C618.872498,594.458252 654.188477,594.159729 689.504517,594.153015 
	C720.323792,594.147156 751.142944,594.478821 781.962402,594.544373 
	C792.450500,594.566711 802.940125,594.080872 813.427490,594.136047 
	C817.683716,594.158447 818.742432,592.440308 818.738953,588.450073 
	C818.657837,493.954895 818.655212,399.459534 818.763916,304.964386 
	C818.768982,300.526581 817.302917,299.276245 812.986511,299.302032 
	C785.491821,299.466248 757.995605,299.393646 729.999878,299.399841 
z"/>
<path fill="#000000" opacity="1.000000" stroke="none" 
	d="
M296.021301,332.102173 
	C312.758606,308.254272 339.026672,298.541931 363.770935,307.672089 
	C386.838715,316.183655 399.988037,333.733917 404.726440,357.338898 
	C409.344788,380.345795 405.081665,401.755493 389.836670,420.203949 
	C364.222900,451.200104 317.544037,448.556305 296.298370,414.164948 
	C279.808868,387.472595 279.690460,359.752655 296.021301,332.102173 
z"/>
<path fill="#000000" opacity="1.000000" stroke="none" 
	d="
M669.634705,413.631592 
	C670.459595,413.018585 671.096191,412.701630 671.502502,412.198578 
	C674.704041,408.235687 677.984802,407.662506 683.032715,409.751251 
	C690.782288,412.957947 700.185059,408.888214 704.702026,401.691589 
	C708.991028,394.858063 708.182068,385.465607 702.785461,379.439636 
	C697.088684,373.078522 688.263306,371.327332 680.508240,375.315277 
	C678.164795,376.520386 676.432129,376.917206 674.212524,375.085083 
	C670.895813,372.347351 666.856384,371.365051 662.583923,371.455383 
	C661.042725,371.488007 659.556213,371.598419 658.759033,369.879181 
	C657.920288,368.070160 658.718506,366.757446 659.869080,365.384491 
	C664.455383,359.911743 665.273315,359.737305 671.167358,363.380493 
	C674.914978,365.696991 681.354431,362.916992 681.689026,358.501770 
	C682.089783,353.214508 685.130798,352.616028 689.506958,352.578735 
	C693.853760,352.541687 695.912354,353.969055 696.256287,358.445099 
	C696.618896,363.162811 703.436157,366.289703 707.010498,363.198456 
	C711.093567,359.667236 713.720093,361.370544 716.677063,364.423981 
	C719.537964,367.378204 720.134949,370.160706 717.343140,373.617157 
	C714.722229,376.861938 717.195801,382.901184 721.323792,383.975281 
	C727.279053,385.524902 729.360535,389.745270 727.208740,395.755280 
	C726.431763,397.925415 724.597900,398.000793 722.789062,398.313660 
	C717.791565,399.177917 714.763184,405.872314 717.762085,409.952118 
	C720.072693,413.095642 719.167664,415.395844 716.923645,417.890045 
	C714.583069,420.491608 712.440674,422.644836 708.440918,420.485077 
	C703.375610,417.750000 697.637024,420.370422 696.632751,426.101929 
	C695.624573,431.855591 691.429871,430.676178 687.844971,430.987061 
	C684.111450,431.310791 682.629211,429.453461 682.269104,425.692719 
	C681.837952,421.190826 675.054382,418.612823 671.023560,421.146729 
	C669.049072,422.387909 667.281006,424.042114 664.698059,422.486450 
	C661.640137,420.644684 661.566956,418.511353 664.609924,416.628204 
	C666.165588,415.665497 667.761780,414.768250 669.634705,413.631592 
z"/>
<path fill="#000000" opacity="1.000000" stroke="none" 
	d="
M673.861450,450.637817 
	C672.362244,454.253632 670.041809,454.470520 667.246765,453.013000 
	C664.578552,451.621674 664.742981,449.575439 665.733582,447.112976 
	C666.904846,444.201538 667.985168,441.217285 668.704773,438.170074 
	C669.498596,434.808807 671.254089,433.979095 674.459106,434.795593 
	C678.142151,435.733826 678.069397,437.923401 677.037781,440.815491 
	C675.926025,443.932251 675.010132,447.118896 673.861450,450.637817 
z"/>
<path fill="#000000" opacity="1.000000" stroke="none" 
	d="
M684.601929,340.339996 
	C684.648865,336.760773 684.691895,333.617920 684.705322,330.474884 
	C684.715271,328.144867 685.673157,326.609070 688.160278,326.560547 
	C690.722534,326.510498 692.887451,327.314575 693.018005,330.302765 
	C693.176575,333.934692 693.005676,337.579926 693.101929,341.216095 
	C693.193298,344.665283 691.957947,346.436310 688.177856,346.262451 
	C684.161926,346.077759 684.202515,343.633240 684.601929,340.339996 
z"/>
<path fill="#000000" opacity="1.000000" stroke="none" 
	d="
M732.197021,414.879578 
	C727.925842,413.847900 727.339111,411.763947 728.874084,408.150360 
	C730.574219,404.148010 732.914185,405.848969 735.335205,406.840881 
	C738.411560,408.101318 741.468750,409.408813 744.551453,410.653320 
	C747.399414,411.803040 747.599854,413.779358 746.532288,416.322235 
	C745.494812,418.793304 743.889648,419.535492 741.377380,418.492035 
	C738.460693,417.280640 735.498596,416.178741 732.197021,414.879578 
z"/>
<path fill="#000000" opacity="1.000000" stroke="none" 
	d="
M653.946533,351.109802 
	C655.033997,352.169708 655.821228,353.024719 656.688354,353.789001 
	C658.850708,355.694946 658.397339,357.371338 656.487793,359.192108 
	C654.761841,360.837830 653.193115,361.993286 651.023438,359.875854 
	C648.302368,357.220154 645.519470,354.627167 642.738586,352.033569 
	C640.731262,350.161438 640.215759,348.281891 642.311768,346.072510 
	C644.481812,343.785095 646.533203,343.848724 648.698853,346.023865 
	C650.332520,347.664612 652.019409,349.252319 653.946533,351.109802 
z"/>
</svg>