<?xml version="1.0" standalone="no"?>
<!DOCTYPE svg PUBLIC "-//W3C//DTD SVG 20010904//EN"
 "http://www.w3.org/TR/2001/REC-SVG-20010904/DTD/svg10.dtd">
<svg version="1.0" xmlns="http://www.w3.org/2000/svg"
 width="1024.000000pt" height="1024.000000pt" viewBox="0 0 1024.000000 1024.000000"
 preserveAspectRatio="xMidYMid meet">

<g transform="translate(0.000000,1024.000000) scale(0.100000,-0.100000)"
fill="#000000" stroke="none">
<path d="M4890 8188 c-102 -49 -547 -263 -990 -475 -443 -213 -931 -447 -1085
-520 -154 -74 -347 -166 -430 -204 -91 -43 -161 -82 -177 -100 l-28 -29 0
-1695 c0 -1334 3 -1700 13 -1722 10 -22 60 -50 282 -159 575 -280 1159 -566
1870 -914 550 -269 749 -362 775 -362 35 0 122 42 1610 772 294 144 702 343
905 442 204 99 381 191 395 204 l25 24 0 1709 c0 1695 0 1709 -20 1731 -11 13
-42 33 -70 45 -56 25 -543 258 -1902 909 -734 351 -919 436 -950 435 -26 0
-94 -28 -223 -91z m571 -297 c184 -87 676 -323 1094 -523 418 -201 840 -402
938 -449 97 -46 177 -86 177 -89 0 -3 -109 -58 -242 -122 -335 -161 -1074
-518 -1746 -844 l-562 -272 -528 255 c-1038 503 -1511 732 -1764 853 -142 68
-258 127 -258 130 0 3 244 122 543 265 298 142 868 416 1267 607 399 191 730
348 736 348 7 0 162 -71 345 -159z m-2161 -1659 c684 -330 1674 -811 1693
-822 16 -10 17 -95 17 -1565 0 -855 -2 -1555 -5 -1555 -3 0 -272 131 -597 291
-793 390 -1890 926 -1955 955 l-53 24 0 1554 0 1554 243 -118 c133 -64 429
-208 657 -318z m4540 -1120 l0 -1548 -617 -302 c-340 -165 -925 -452 -1301
-636 -376 -185 -685 -336 -688 -336 -2 0 -4 701 -4 1558 l1 1557 277 134 c152
74 666 323 1142 553 476 230 933 452 1015 492 83 41 156 75 163 75 9 1 12
-315 12 -1547z"/>
</g>
</svg>
