<?xml version="1.0" standalone="no"?>
<!DOCTYPE svg PUBLIC "-//W3C//DTD SVG 20010904//EN"
 "http://www.w3.org/TR/2001/REC-SVG-20010904/DTD/svg10.dtd">
<svg version="1.0" xmlns="http://www.w3.org/2000/svg"
 width="1024.000000pt" height="1024.000000pt" viewBox="0 0 1024.000000 1024.000000"
 preserveAspectRatio="xMidYMid meet">

<g transform="translate(0.000000,1024.000000) scale(0.100000,-0.100000)"
fill="#000000" stroke="none">
<path d="M2440 6059 l0 -266 -320 -178 c-177 -98 -331 -186 -343 -195 -22 -18
-22 -21 -25 -372 l-4 -354 66 0 66 1 0 321 0 321 53 28 c28 16 166 93 306 172
140 79 260 143 265 142 6 0 146 -76 311 -168 l300 -168 3 -370 c2 -289 -1
-373 -10 -381 -7 -5 -147 -84 -310 -175 l-297 -165 -138 78 c-76 43 -194 109
-263 148 l-125 70 -12 -40 c-6 -22 -19 -48 -27 -57 -15 -17 -1 -26 244 -162
l260 -144 0 -260 0 -260 65 0 65 0 0 260 0 260 306 172 306 172 211 -119 c117
-65 254 -142 306 -172 l95 -53 -3 -261 -2 -260 65 0 66 1 0 260 1 260 330 184
c182 102 337 194 345 205 11 17 14 83 14 361 l0 340 -65 0 -65 0 -2 -319 -3
-318 -110 -62 c-60 -35 -199 -112 -308 -173 l-198 -111 -92 52 c-51 29 -182
103 -292 164 -110 61 -208 117 -217 124 -15 12 -16 44 -10 383 l7 370 90 51
c333 188 508 284 518 283 7 0 127 -64 267 -143 l255 -142 13 30 c7 17 23 41
34 53 12 13 20 25 17 26 -2 2 -122 68 -266 147 l-263 143 0 266 0 266 -60 0
-60 1 0 -71 c-1 -38 0 -158 0 -265 l1 -196 -310 -172 -310 -172 -303 169 -303
170 -3 268 -2 268 -65 0 -65 0 0 -266z"/>
<path d="M6900 6030 c-42 -42 -13 -97 53 -102 l42 -3 1 -310 c2 -226 -1 -322
-11 -355 -7 -25 -135 -301 -285 -615 -149 -313 -313 -658 -363 -765 l-92 -195
0 -95 c0 -81 4 -102 25 -144 14 -27 46 -68 72 -91 88 -79 33 -75 1019 -75
1010 0 944 -6 1040 90 71 71 93 129 87 238 -4 86 17 39 -537 1202 l-216 455 0
85 c0 47 1 196 3 333 l2 247 38 0 c65 0 95 57 52 100 -19 19 -33 20 -465 20
-432 0 -446 -1 -465 -20z m712 -453 l3 -352 139 -290 c184 -386 540 -1141 582
-1237 20 -44 34 -92 34 -115 -1 -59 -32 -118 -81 -150 l-43 -28 -880 0 -881 0
-37 23 c-56 35 -83 85 -83 157 0 58 9 79 237 560 130 275 298 631 375 790
l138 290 3 340 c1 187 4 345 6 350 2 6 95 11 244 12 l241 3 3 -353z"/>
<path d="M2487 5532 c-22 -24 -22 -65 1 -84 26 -23 450 -258 465 -258 7 0 23
7 35 16 33 23 30 77 -5 102 -76 52 -433 242 -455 242 -14 0 -32 -8 -41 -18z"/>
<path d="M3846 5534 c-24 -24 -20 -69 8 -91 13 -10 109 -65 215 -123 l191
-105 0 -256 c0 -235 1 -257 18 -272 27 -24 79 -22 92 4 7 13 12 119 13 299 2
267 1 280 -18 298 -34 33 -453 262 -479 262 -14 0 -32 -7 -40 -16z"/>
<path d="M1997 5258 c-14 -12 -17 -46 -18 -300 -2 -217 1 -290 10 -302 11 -14
243 -148 416 -242 80 -43 120 -43 131 1 14 57 5 66 -221 191 l-215 119 0 256
c0 235 -1 257 -18 272 -22 20 -62 22 -85 5z"/>
<path d="M3364 4714 c-35 -53 -19 -68 231 -206 127 -70 238 -128 248 -128 24
0 57 36 57 63 0 13 -8 31 -17 40 -40 35 -449 257 -475 257 -19 0 -33 -8 -44
-26z"/>
</g>
</svg>
