<?xml version="1.0" standalone="no"?>
<!DOCTYPE svg PUBLIC "-//W3C//DTD SVG 20010904//EN"
 "http://www.w3.org/TR/2001/REC-SVG-20010904/DTD/svg10.dtd">
<svg version="1.0" xmlns="http://www.w3.org/2000/svg"
 width="1024.000000pt" height="1024.000000pt" viewBox="0 0 1024.000000 1024.000000"
 preserveAspectRatio="xMidYMid meet">

<g transform="translate(0.000000,1024.000000) scale(0.100000,-0.100000)"
fill="#000000" stroke="none">
<path d="M2425 7437 c-12 -20 -13 -37 -5 -108 9 -70 26 -150 45 -206 3 -8 17
-5 47 10 24 12 44 22 45 22 1 0 -6 39 -17 85 -10 47 -21 111 -25 143 -5 41
-12 60 -25 67 -29 16 -48 12 -65 -13z"/>
<path d="M2725 7440 c-37 -41 0 -221 78 -375 79 -159 191 -292 371 -442 119
-100 125 -102 172 -67 l37 29 -38 30 c-106 83 -215 176 -215 183 0 4 87 9 193
11 110 2 197 7 205 13 19 16 14 55 -10 72 -19 13 -61 16 -263 16 l-241 0 -52
79 c-29 43 -64 104 -77 134 -28 61 -75 234 -75 277 0 29 -27 60 -52 60 -8 0
-23 -9 -33 -20z"/>
<path d="M4086 7444 c-9 -8 -16 -30 -16 -47 -1 -60 -39 -206 -74 -281 -99
-215 -252 -373 -651 -671 -260 -195 -435 -334 -463 -368 -10 -11 -4 -20 28
-46 l40 -32 82 72 c46 39 171 137 278 217 349 261 451 347 579 487 67 73 151
196 194 280 67 135 108 352 73 388 -22 21 -50 22 -70 1z"/>
<path d="M4382 7448 c-5 -7 -15 -54 -21 -105 -16 -135 -53 -252 -125 -395
l-63 -128 36 -22 c20 -13 39 -24 42 -26 8 -4 49 66 99 167 47 94 86 216 105
328 19 110 19 158 -1 177 -19 19 -58 21 -72 4z"/>
<path d="M6510 7282 c-398 -404 -678 -809 -871 -1259 -161 -376 -237 -789
-209 -1132 45 -551 271 -952 730 -1295 109 -81 275 -183 408 -250 l92 -46 0
-239 c0 -219 2 -241 19 -262 16 -20 23 -22 47 -14 l29 10 3 250 2 250 105 53
c662 336 1025 789 1121 1397 21 134 24 416 5 555 -92 684 -469 1377 -1087
1998 -134 133 -167 162 -191 162 -23 0 -57 -30 -203 -178z m551 -297 c508
-595 793 -1209 841 -1812 28 -359 -52 -722 -222 -998 -139 -228 -388 -465
-651 -622 -95 -56 -254 -143 -263 -143 -3 0 -6 66 -6 148 l0 147 319 319 319
319 -31 38 -32 38 -280 -279 c-154 -154 -283 -280 -288 -280 -4 0 -7 54 -7
121 l0 121 140 137 140 136 0 200 0 200 167 167 168 168 64 0 64 0 -7 31 c-3
17 -6 40 -6 50 0 17 -8 19 -79 19 l-80 0 -195 -197 -195 -198 -1 -200 0 -200
-82 -82 c-46 -46 -86 -83 -90 -83 -5 0 -8 170 -8 378 l0 377 205 205 205 205
0 140 0 140 -50 0 -50 0 0 -120 0 -120 -155 -155 -155 -155 0 687 c0 683 0
687 -21 701 -21 16 -54 12 -67 -7 -4 -6 -9 -194 -12 -417 l-5 -407 -162 158
-163 158 0 64 c0 36 -2 67 -4 69 -2 2 -27 2 -55 1 l-51 -4 0 -77 0 -76 220
-220 220 -220 0 -342 c0 -189 -4 -343 -8 -343 -4 0 -81 73 -170 163 l-162 163
0 55 0 54 -50 -3 -50 -4 0 -73 0 -73 220 -214 220 -213 0 -170 0 -170 -318
318 -317 317 -55 0 -55 0 -2 -44 c-1 -44 -1 -45 32 -48 29 -3 79 -48 374 -341
l341 -338 -2 -177 -3 -177 -221 218 c-122 119 -224 217 -227 217 -4 0 -7 -5
-7 -11 0 -6 -10 -25 -22 -42 l-22 -31 252 -246 252 -246 0 -172 0 -172 -61 30
c-182 92 -404 243 -545 370 -471 424 -635 1032 -468 1735 135 563 475 1136
989 1663 l140 144 130 -133 c72 -74 169 -179 216 -234z"/>
<path d="M3240 7270 l0 -50 188 2 187 3 3 48 3 47 -190 0 -191 0 0 -50z"/>
<path d="M2682 6778 l-33 -20 19 -29 c57 -90 181 -217 339 -347 l52 -43 40 31
40 32 -92 78 c-97 82 -234 220 -281 283 -32 42 -38 43 -84 15z"/>
<path d="M3859 6482 c-78 -70 -217 -178 -444 -347 -215 -159 -421 -353 -523
-490 -62 -83 -134 -226 -157 -310 -24 -91 -30 -265 -12 -350 39 -181 135 -351
284 -500 81 -81 275 -245 290 -245 7 0 83 51 83 55 0 1 -53 45 -118 98 -65 52
-151 131 -192 174 l-75 78 256 5 c277 5 293 9 287 59 -6 47 -29 51 -339 51
l-286 0 -31 68 c-46 98 -65 191 -64 308 1 172 47 300 167 460 122 162 230 260
580 524 225 169 313 239 386 307 l36 34 -33 34 c-18 19 -34 35 -36 35 -2 0
-29 -22 -59 -48z"/>
<path d="M3785 6177 l-38 -33 89 -74 c260 -217 408 -419 481 -658 25 -82 30
-92 48 -87 11 2 32 5 48 5 36 0 35 17 -3 131 -61 182 -159 342 -299 491 -75
79 -194 186 -272 246 -13 10 -22 6 -54 -21z"/>
<path d="M3548 6001 c-21 -14 -37 -29 -38 -33 0 -3 46 -45 103 -91 56 -47 140
-124 187 -171 l85 -86 -256 0 c-235 0 -257 -1 -272 -18 -20 -22 -22 -53 -5
-70 9 -9 90 -12 305 -12 l293 0 29 -45 c16 -25 42 -85 57 -133 25 -76 29 -102
29 -207 0 -179 -42 -299 -162 -460 -117 -157 -259 -285 -618 -555 -127 -95
-263 -201 -302 -234 l-73 -60 37 -38 c41 -42 33 -44 116 29 26 23 148 117 270
209 304 230 405 314 523 436 218 226 314 433 314 674 0 213 -77 394 -254 596
-70 81 -207 206 -291 266 l-40 29 -37 -26z"/>
<path d="M2587 5708 c-64 -111 -119 -247 -141 -350 -6 -27 -5 -28 34 -29 22
-1 45 -2 51 -3 7 -1 22 35 35 79 13 44 46 126 74 182 l51 103 -33 30 c-18 16
-36 30 -40 30 -3 0 -17 -19 -31 -42z"/>
<path d="M3250 5140 l0 -50 190 0 190 0 0 50 0 50 -190 0 -190 0 0 -50z"/>
<path d="M2472 4933 c-32 -4 -33 -6 -27 -36 48 -228 217 -502 427 -687 101
-91 174 -150 183 -150 12 0 75 50 75 58 0 4 -41 41 -91 82 -242 198 -401 417
-474 653 -20 65 -31 87 -44 85 -9 0 -31 -3 -49 -5z"/>
<path d="M4316 4848 c-15 -51 -47 -131 -70 -178 l-43 -85 42 -31 42 -32 56
117 c54 112 97 233 97 272 0 14 -7 19 -27 19 -16 0 -37 3 -48 5 -18 5 -23 -5
-49 -87z"/>
<path d="M3860 4203 c-47 -41 -184 -150 -305 -241 -312 -235 -397 -305 -507
-420 -117 -123 -186 -217 -244 -337 -56 -114 -83 -208 -91 -311 -6 -80 -5 -82
21 -99 24 -16 28 -16 50 -1 20 12 26 27 31 73 18 154 71 300 154 422 107 156
249 290 559 523 287 215 478 371 490 400 3 7 -58 68 -68 67 -3 0 -43 -34 -90
-76z"/>
<path d="M3778 3889 l-37 -30 87 -73 c105 -88 193 -173 253 -243 l44 -52 43
25 42 26 -29 37 c-66 82 -159 177 -255 256 -55 47 -103 85 -106 85 -3 -1 -22
-14 -42 -31z"/>
<path d="M3536 3708 l-37 -33 122 -100 c68 -55 125 -106 127 -113 3 -11 -32
-13 -188 -11 -179 3 -193 2 -206 -16 -19 -26 -18 -41 6 -65 19 -19 33 -20 264
-20 l243 0 41 -58 c86 -123 131 -235 152 -387 15 -98 20 -109 54 -113 42 -5
56 13 56 75 0 215 -152 500 -368 691 -80 70 -218 182 -225 182 -2 0 -20 -15
-41 -32z"/>
<path d="M2614 3463 c-99 -153 -170 -348 -194 -532 -14 -102 -9 -128 27 -137
39 -10 57 7 66 62 25 150 40 224 58 278 24 71 84 199 128 272 l31 51 -40 32
-40 32 -36 -58z"/>
<path d="M4385 3190 c-4 -7 -23 -19 -42 -27 -24 -9 -33 -19 -29 -29 16 -41 36
-139 47 -224 6 -52 16 -101 22 -107 12 -16 59 -17 75 -1 23 23 7 180 -35 328
-17 62 -27 77 -38 60z"/>
<path d="M3252 2988 c3 -53 3 -53 36 -52 17 0 104 1 192 2 l160 2 0 50 0 50
-196 0 -195 0 3 -52z"/>
</g>
</svg>
