<?xml version="1.0" standalone="no"?>
<!DOCTYPE svg PUBLIC "-//W3C//DTD SVG 20010904//EN"
 "http://www.w3.org/TR/2001/REC-SVG-20010904/DTD/svg10.dtd">
<svg version="1.0" xmlns="http://www.w3.org/2000/svg"
 width="1024.000000pt" height="1024.000000pt" viewBox="0 0 1024.000000 1024.000000"
 preserveAspectRatio="xMidYMid meet">

<g transform="translate(0.000000,1024.000000) scale(0.100000,-0.100000)"
fill="#000000" stroke="none">
<path d="M4920 7873 c-400 -38 -703 -123 -1026 -287 -117 -59 -202 -110 -169
-102 47 12 196 26 277 26 77 0 97 4 190 40 201 79 408 129 645 156 167 20 501
14 663 -11 268 -41 558 -134 799 -254 73 -37 88 -41 158 -41 43 -1 114 -7 158
-15 43 -8 81 -13 83 -11 4 5 -170 116 -275 175 -287 161 -666 278 -1027 316
-129 13 -378 18 -476 8z"/>
<path d="M4583 7455 c-107 -54 -167 -152 -167 -275 -1 -89 29 -165 88 -222 61
-59 118 -82 211 -82 90 -1 147 21 202 74 l31 30 48 -27 c59 -32 62 -35 47 -40
-30 -11 -355 -210 -457 -280 -305 -209 -592 -473 -832 -763 -73 -88 -178 -225
-208 -272 l-18 -28 99 0 99 0 46 63 c91 126 248 305 399 452 284 277 565 481
948 689 l105 56 60 -36 c233 -141 486 -343 707 -563 292 -293 509 -587 706
-959 45 -84 63 -109 70 -100 6 7 27 46 47 86 l36 72 -20 40 c-32 62 -137 236
-203 335 -381 571 -872 1020 -1462 1338 l-140 75 -6 74 c-7 88 -40 158 -98
211 -65 58 -96 70 -196 75 -82 3 -95 1 -142 -23z m206 -154 c91 -64 92 -188 2
-248 -69 -46 -162 -20 -202 57 -69 128 83 273 200 191z"/>
<path d="M3796 7390 c-311 -49 -554 -215 -676 -463 -78 -157 -101 -264 -107
-483 -6 -191 4 -317 38 -484 23 -115 81 -333 111 -414 l21 -58 68 4 c38 2 74
9 80 15 8 8 1 39 -25 116 -41 122 -87 302 -111 432 -22 119 -31 436 -16 535
51 324 237 539 541 622 76 21 106 23 290 22 113 0 224 -5 248 -11 41 -11 42
-10 48 16 3 14 11 44 17 66 6 22 11 44 12 50 1 28 -411 55 -539 35z"/>
<path d="M6220 7289 c-198 -18 -463 -80 -700 -166 -183 -66 -176 -56 -80 -118
l83 -52 61 24 c285 111 681 179 913 154 317 -33 512 -156 628 -396 62 -130 76
-194 82 -379 12 -363 -80 -706 -312 -1165 -259 -512 -641 -986 -1080 -1336
-497 -397 -1025 -647 -1585 -751 -118 -22 -406 -30 -511 -14 -188 27 -348 107
-464 232 -216 234 -253 622 -105 1123 19 65 26 103 19 110 -5 5 -40 11 -78 13
l-70 4 -25 -83 c-64 -205 -102 -475 -93 -659 18 -377 179 -648 472 -795 178
-89 349 -121 600 -112 526 19 1152 250 1693 625 734 509 1321 1278 1585 2077
132 397 154 787 62 1070 -73 221 -219 390 -430 495 -182 91 -397 123 -665 99z"/>
<path d="M2909 6757 c-208 -282 -351 -575 -444 -907 -23 -86 -62 -269 -67
-325 l-3 -30 77 -3 c74 -3 78 -2 82 20 52 257 86 385 143 537 36 98 116 265
173 361 26 43 33 71 41 144 5 50 18 128 29 175 11 46 19 85 17 87 -1 2 -23
-25 -48 -59z"/>
<path d="M7465 6525 c4 -22 11 -107 15 -190 7 -149 7 -151 53 -260 190 -453
234 -1010 121 -1529 -47 -216 -148 -491 -239 -650 -39 -70 -44 -84 -54 -183
-5 -60 -19 -140 -29 -180 -10 -39 -15 -70 -10 -67 4 3 36 46 71 97 318 459
478 976 480 1552 1 435 -92 837 -283 1220 -50 99 -100 191 -111 205 l-20 25 6
-40z"/>
<path d="M4813 5848 c-25 -12 -48 -60 -41 -86 3 -10 58 -101 122 -202 65 -100
120 -189 123 -196 3 -7 -12 -27 -32 -45 -132 -116 -207 -322 -185 -510 17
-148 74 -262 180 -362 118 -112 256 -167 420 -167 167 0 292 52 417 175 93 92
141 177 169 303 19 86 15 215 -10 295 -43 135 -151 275 -268 345 -151 90 -343
112 -498 57 -53 -19 -30 -43 -188 202 -92 143 -123 185 -146 193 -34 12 -35
12 -63 -2z m670 -533 c90 -19 178 -67 235 -130 204 -224 142 -570 -127 -703
-74 -37 -77 -37 -195 -37 -115 0 -124 1 -189 32 -175 83 -280 283 -247 471 37
214 216 370 435 381 11 0 50 -6 88 -14z"/>
<path d="M6990 4808 c-60 -94 -60 -65 3 -268 149 -485 141 -967 -21 -1214
-195 -296 -554 -391 -1052 -279 -140 31 -321 91 -454 149 l-99 43 -78 -42
c-43 -23 -79 -45 -79 -48 0 -9 200 -102 305 -143 849 -327 1498 -153 1689 454
45 142 59 261 53 465 -6 193 -25 329 -77 540 -26 106 -122 410 -133 421 -2 3
-28 -33 -57 -78z"/>
<path d="M2420 4562 c0 -4 20 -80 44 -168 47 -168 125 -373 195 -513 50 -97
151 -264 157 -258 3 2 0 26 -7 53 -6 27 -13 105 -15 174 l-4 125 -55 128 c-49
112 -94 249 -137 412 l-14 50 -82 3 c-45 2 -82 -1 -82 -6z"/>
<path d="M3726 4398 c42 -72 257 -329 394 -471 178 -185 427 -398 602 -515
l67 -44 80 33 c45 19 81 37 81 40 0 3 -47 38 -105 77 -315 218 -573 456 -838
775 l-98 117 -95 0 c-73 0 -93 -3 -88 -12z"/>
<path d="M3550 2855 c0 -2 35 -25 78 -53 345 -221 711 -357 1127 -419 170 -25
574 -25 735 0 335 52 598 135 870 273 105 53 203 112 165 99 -11 -4 -94 -10
-185 -13 -164 -5 -165 -5 -275 -47 -218 -84 -402 -130 -635 -161 -175 -22
-556 -15 -720 14 -275 50 -500 122 -705 225 -76 39 -86 41 -205 48 -69 4 -153
14 -187 22 -35 9 -63 14 -63 12z"/>
</g>
</svg>
